<?xml version="1.0" encoding="UTF-8"?>
<!DOCTYPE svg PUBLIC "-//W3C//DTD SVG 1.1//EN" "http://www.w3.org/Graphics/SVG/1.1/DTD/svg11.dtd">
<svg xmlns="http://www.w3.org/2000/svg" version="1.1" width="500px" height="500px" style="shape-rendering:geometricPrecision; text-rendering:geometricPrecision; image-rendering:optimizeQuality; fill-rule:evenodd; clip-rule:evenodd" xmlns:xlink="http://www.w3.org/1999/xlink">
<g><path style="opacity:1" fill="#fefefe" d="M -0.5,-0.5 C 166.167,-0.5 332.833,-0.5 499.5,-0.5C 499.5,166.167 499.5,332.833 499.5,499.5C 332.833,499.5 166.167,499.5 -0.5,499.5C -0.5,332.833 -0.5,166.167 -0.5,-0.5 Z"/></g>
<g><path style="opacity:1" fill="#090605" d="M 418.5,303.5 C 416.251,304.08 414.585,305.413 413.5,307.5C 407.131,312.342 400.131,316.175 392.5,319C 391.663,320.011 391.33,321.178 391.5,322.5C 404.764,355.033 418.597,387.366 433,419.5C 436.885,431.285 432.718,435.785 420.5,433C 402.51,429.302 384.51,425.802 366.5,422.5C 367.626,421.142 367.626,419.808 366.5,418.5C 358.916,430.671 351.082,442.671 343,454.5C 342.598,455.872 342.098,457.205 341.5,458.5C 341.624,459.107 341.957,459.44 342.5,459.5C 342.5,459.833 342.5,460.167 342.5,460.5C 341.178,460.33 340.011,460.663 339,461.5C 337.378,465.016 335.211,468.183 332.5,471C 332.743,471.902 333.077,472.735 333.5,473.5C 329.198,477.645 325.198,477.312 321.5,472.5C 324.533,473.292 327.866,473.292 331.5,472.5C 325.813,471.821 321.813,468.821 319.5,463.5C 318.817,463.863 318.15,464.196 317.5,464.5C 317.5,464.167 317.5,463.833 317.5,463.5C 318.033,459.845 317.533,456.178 316,452.5C 307.127,432.866 298.46,413.199 290,393.5C 288.855,392.316 287.688,392.316 286.5,393.5C 286.5,393.167 286.5,392.833 286.5,392.5C 286.918,391.778 287.584,391.278 288.5,391C 287.35,385.16 284.016,381.327 278.5,379.5C 272.211,377.678 265.877,376.011 259.5,374.5C 258.292,373.766 256.959,373.433 255.5,373.5C 252.167,374.833 248.833,374.833 245.5,373.5C 240.475,374.601 235.141,376.101 229.5,378C 227.781,379.87 226.781,382.037 226.5,384.5C 211.256,419.314 195.256,453.647 178.5,487.5C 175.657,488.921 174.324,490.921 174.5,493.5C 167.792,496.87 163.125,494.87 160.5,487.5C 160.56,486.957 160.893,486.624 161.5,486.5C 163.57,490.41 164.404,490.077 164,485.5C 155.953,472.65 148.286,459.65 141,446.5C 138.64,443.64 136.473,440.64 134.5,437.5C 132.484,436.294 130.484,436.294 128.5,437.5C 130.023,439.283 132.023,439.949 134.5,439.5C 134.629,441.216 134.962,442.883 135.5,444.5C 132.073,441.769 128.073,440.769 123.5,441.5C 121.952,441.179 121.285,440.179 121.5,438.5C 116.5,439.167 111.5,439.833 106.5,440.5C 106.5,441.5 106.5,442.5 106.5,443.5C 108.099,443.232 109.432,443.566 110.5,444.5C 97.8433,446.498 85.1767,448.498 72.5,450.5C 67.4024,450.725 64.4024,448.392 63.5,443.5C 80.8934,405.046 98.5601,366.713 116.5,328.5C 118.074,326.898 118.741,324.898 118.5,322.5C 110.915,320.023 103.582,316.857 96.5,313C 95.365,312.251 94.365,312.417 93.5,313.5C 95.7059,315.085 98.0392,316.585 100.5,318C 105.419,320.123 110.419,322.123 115.5,324C 116.738,324.69 116.738,325.19 115.5,325.5C 107.903,323.02 100.569,319.854 93.5,316C 89.0506,313.716 85.384,310.549 82.5,306.5C 90.0968,310.208 90.4301,309.208 83.5,303.5C 75.9743,293.074 71.9743,281.407 71.5,268.5C 72.2071,265.214 72.5405,261.881 72.5,258.5C 74.4431,256.043 75.4431,253.043 75.5,249.5C 74.9049,246.86 74.5715,244.193 74.5,241.5C 74.5,241.167 74.5,240.833 74.5,240.5C 76.4023,237.663 77.069,234.329 76.5,230.5C 75.5,230.5 74.5,230.5 73.5,230.5C 73.233,228.035 72.5664,225.701 71.5,223.5C 73.3442,222.796 73.8442,221.463 73,219.5C 67.155,209.143 61.8216,198.477 57,187.5C 55.0929,181.286 53.9262,174.953 53.5,168.5C 53.9431,161.606 56.1097,155.273 60,149.5C 69.6667,138.5 80,128.167 91,118.5C 98.2479,106.86 102.748,94.1936 104.5,80.5C 107.234,75.3088 109.234,69.6422 110.5,63.5C 117.599,50.2542 128.599,42.0876 143.5,39C 157.179,38.1561 170.846,37.1561 184.5,36C 187.833,34.6667 191.167,33.3333 194.5,32C 204.167,25 213.833,18 223.5,11C 240.792,1.06977 258.125,1.06977 275.5,11C 285.976,19.4059 296.976,27.0725 308.5,34C 312.123,35.1557 315.789,36.1557 319.5,37C 334.712,36.8877 349.712,38.5544 364.5,42C 377.333,46.8333 386.167,55.6667 391,68.5C 394.158,80.1313 397.158,91.798 400,103.5C 401.393,107.286 403.059,110.952 405,114.5C 414.721,124.711 424.721,134.711 435,144.5C 447.299,159.035 449.633,175.035 442,192.5C 435.804,204.227 430.137,216.227 425,228.5C 424.337,231.977 423.837,235.477 423.5,239C 426.279,253.724 427.446,268.558 427,283.5C 425.963,291.048 423.13,297.715 418.5,303.5 Z"/></g>
<g><path style="opacity:1" fill="#877033" d="M 243.5,19.5 C 245.641,18.8367 247.975,18.5034 250.5,18.5C 254.141,18.3148 257.474,18.9814 260.5,20.5C 254.862,19.7803 249.196,19.447 243.5,19.5 Z"/></g>
<g><path style="opacity:1" fill="#b8a261" d="M 243.5,19.5 C 239.553,21.4825 235.886,23.9825 232.5,27C 231.207,27.49 229.873,27.6567 228.5,27.5C 232.47,23.0134 237.47,20.3467 243.5,19.5 Z"/></g>
<g><path style="opacity:1" fill="#a29154" d="M 221.5,32.5 C 216.976,36.8585 212.31,41.0252 207.5,45C 204.846,45.9406 202.179,46.7739 199.5,47.5C 206.478,42.0084 213.812,37.0084 221.5,32.5 Z"/></g>
<g><path style="opacity:1" fill="#594c23" d="M 299.5,45.5 C 301.544,46.5082 303.544,47.5082 305.5,48.5C 302.687,48.9754 300.687,47.9754 299.5,45.5 Z"/></g>
<g><path style="opacity:1" fill="#806b3a" d="M 197.5,47.5 C 194.207,50.598 190.207,51.9313 185.5,51.5C 189.41,50.2284 193.41,48.8951 197.5,47.5 Z"/></g>
<g><path style="opacity:1" fill="#4f401f" d="M 169.5,52.5 C 161.654,53.2971 153.654,53.9637 145.5,54.5C 146.263,53.7321 147.263,53.2321 148.5,53C 155.492,52.5004 162.492,52.3337 169.5,52.5 Z"/></g>
<g><path style="opacity:1" fill="#a99553" d="M 321.5,52.5 C 332.359,52.512 343.026,53.1787 353.5,54.5C 342.61,54.9384 331.943,54.2717 321.5,52.5 Z"/></g>
<g><path style="opacity:1" fill="#96894e" d="M 143.5,55.5 C 141.723,56.6005 139.723,57.4338 137.5,58C 134.919,61.0884 131.919,63.5884 128.5,65.5C 130.884,62.609 133.551,59.7757 136.5,57C 138.74,56.023 141.073,55.523 143.5,55.5 Z"/></g>
<g><path style="opacity:1" fill="#e0c068" d="M 362.5,57.5 C 369.581,60.9137 374.581,66.2471 377.5,73.5C 377.833,76.1667 378.167,78.8333 378.5,81.5C 377.503,81.5299 376.836,81.0299 376.5,80C 374.616,71.8169 370.283,65.3169 363.5,60.5C 362.873,59.5832 362.539,58.5832 362.5,57.5 Z"/></g>
<g><path style="opacity:1" fill="#96874b" d="M 128.5,65.5 C 127.023,69.7866 125.023,73.7866 122.5,77.5C 122.925,72.65 124.925,68.65 128.5,65.5 Z"/></g>
<g><path style="opacity:1" fill="#535353" d="M 110.5,63.5 C 109.234,69.6422 107.234,75.3088 104.5,80.5C 105.439,74.3834 107.439,68.7167 110.5,63.5 Z"/></g>
<g><path style="opacity:1" fill="#6a5126" d="M 377.5,73.5 C 379.277,76.5046 380.277,79.8379 380.5,83.5C 380.167,83.5 379.833,83.5 379.5,83.5C 379.672,82.5084 379.338,81.8417 378.5,81.5C 378.167,78.8333 377.833,76.1667 377.5,73.5 Z"/></g>
<g><path style="opacity:1" fill="#fcd163" d="M 361.5,57.5 C 361.833,57.5 362.167,57.5 362.5,57.5C 362.539,58.5832 362.873,59.5832 363.5,60.5C 370.283,65.3169 374.616,71.8169 376.5,80C 376.836,81.0299 377.503,81.5299 378.5,81.5C 379.338,81.8417 379.672,82.5084 379.5,83.5C 380.541,91.5415 382.041,99.5415 384,107.5C 384.608,109.066 385.442,110.4 386.5,111.5C 387.306,115.525 388.472,119.525 390,123.5C 396.657,128.253 395.823,130.253 387.5,129.5C 385.281,128.172 383.948,126.172 383.5,123.5C 381.5,122.833 379.5,122.167 377.5,121.5C 377.813,118.753 377.48,116.086 376.5,113.5C 374.568,112.855 373.401,111.521 373,109.5C 372.667,106.167 372.333,102.833 372,99.5C 370.599,97.8078 368.766,97.1412 366.5,97.5C 365.568,94.3015 365.568,91.1348 366.5,88C 364.592,80.5374 362.926,73.0374 361.5,65.5C 357.167,64.5 354.5,61.8333 353.5,57.5C 356.167,57.5 358.833,57.5 361.5,57.5 Z"/></g>
<g><path style="opacity:1" fill="#3b321a" d="M 122.5,77.5 C 122.077,82.5401 120.744,87.2068 118.5,91.5C 118.38,86.3373 119.713,81.6706 122.5,77.5 Z"/></g>
<g><path style="opacity:1" fill="#d1af63" d="M 379.5,83.5 C 379.833,83.5 380.167,83.5 380.5,83.5C 381.855,92.9106 383.855,102.244 386.5,111.5C 385.442,110.4 384.608,109.066 384,107.5C 382.041,99.5415 380.541,91.5415 379.5,83.5 Z"/></g>
<g><path style="opacity:1" fill="#fcdf77" d="M 243.5,19.5 C 249.196,19.447 254.862,19.7803 260.5,20.5C 263.937,21.6979 267.27,23.1979 270.5,25C 278.651,31.907 286.984,38.5736 295.5,45C 296.793,45.49 298.127,45.6567 299.5,45.5C 300.687,47.9754 302.687,48.9754 305.5,48.5C 310.551,50.4627 315.884,51.7961 321.5,52.5C 331.943,54.2717 342.61,54.9384 353.5,54.5C 356.542,54.7329 359.208,55.7329 361.5,57.5C 358.833,57.5 356.167,57.5 353.5,57.5C 354.5,61.8333 357.167,64.5 361.5,65.5C 362.926,73.0374 364.592,80.5374 366.5,88C 365.568,91.1348 365.568,94.3015 366.5,97.5C 368.766,97.1412 370.599,97.8078 372,99.5C 372.333,102.833 372.667,106.167 373,109.5C 373.401,111.521 374.568,112.855 376.5,113.5C 377.48,116.086 377.813,118.753 377.5,121.5C 379.5,122.167 381.5,122.833 383.5,123.5C 383.948,126.172 385.281,128.172 387.5,129.5C 389.167,131.833 391.167,133.833 393.5,135.5C 396.606,137.427 399.606,139.594 402.5,142C 403.337,143.011 403.67,144.178 403.5,145.5C 405.167,145.5 406.833,145.5 408.5,145.5C 410.434,151.568 413.768,156.735 418.5,161C 417.299,171.328 417.299,181.495 418.5,191.5C 416.517,193.984 414.35,196.317 412,198.5C 409.994,201.536 409.16,204.869 409.5,208.5C 408.325,208.281 407.325,208.614 406.5,209.5C 400.492,218.024 397.158,227.524 396.5,238C 397.103,250.094 398.436,262.094 400.5,274C 399.986,279.399 399.986,284.733 400.5,290C 398.71,292.515 396.377,294.515 393.5,296C 394.641,296.741 394.641,297.575 393.5,298.5C 394.325,299.386 395.325,299.719 396.5,299.5C 395.013,300.804 393.346,301.97 391.5,303C 386.547,304.368 381.88,306.201 377.5,308.5C 364.337,312.676 353.337,320.009 344.5,330.5C 343.628,326.911 341.961,326.577 339.5,329.5C 338.833,329.167 338.167,328.833 337.5,328.5C 335.829,330.51 335.162,332.843 335.5,335.5C 334.448,335.351 333.448,335.517 332.5,336C 329.419,340.701 326.085,345.201 322.5,349.5C 322.709,350.086 323.043,350.586 323.5,351C 318.489,353.195 316.156,357.029 316.5,362.5C 317.833,362.5 319.167,362.5 320.5,362.5C 320.5,361.5 320.5,360.5 320.5,359.5C 321.5,359.5 322.5,359.5 323.5,359.5C 322.599,355.759 323.932,353.759 327.5,353.5C 327.5,352.5 327.5,351.5 327.5,350.5C 328.833,350.5 330.167,350.5 331.5,350.5C 328.199,356.462 323.866,361.462 318.5,365.5C 307.953,370.338 297.286,370.671 286.5,366.5C 276.977,363.369 267.31,360.702 257.5,358.5C 255.19,357.836 252.69,357.503 250,357.5C 246.195,357.304 242.695,357.97 239.5,359.5C 227.752,362.188 216.086,365.355 204.5,369C 197.005,370.299 190.005,369.132 183.5,365.5C 180.991,362.39 178.324,359.224 175.5,356C 174.852,354.56 174.519,353.06 174.5,351.5C 173.167,351.5 171.833,351.5 170.5,351.5C 169.17,345.843 166.503,340.843 162.5,336.5C 161.805,333.72 160.805,331.053 159.5,328.5C 155.989,328.087 153.655,326.254 152.5,323C 153.167,322.333 153.833,321.667 154.5,321C 151.526,320.007 148.526,319.174 145.5,318.5C 144.34,317.735 143.34,316.735 142.5,315.5C 137.974,313.997 133.64,312.33 129.5,310.5C 127.597,310.204 125.93,309.537 124.5,308.5C 121.121,306.137 117.455,304.137 113.5,302.5C 112.585,301.672 111.919,300.672 111.5,299.5C 106.116,297.256 100.949,294.59 96,291.5C 95.6667,289.167 95.3333,286.833 95,284.5C 93.3333,282.167 91.6667,279.833 90,277.5C 89.502,274.518 89.3354,271.518 89.5,268.5C 89.9157,263.507 90.2491,258.507 90.5,253.5C 90.5,253.167 90.5,252.833 90.5,252.5C 91.2679,251.737 91.7679,250.737 92,249.5C 92.8213,242.321 92.6546,235.321 91.5,228.5C 91.7947,226.265 91.4614,224.265 90.5,222.5C 90.8256,218.116 90.4922,213.783 89.5,209.5C 88.2519,208.96 87.0852,208.293 86,207.5C 83.4498,203.556 81.9498,199.222 81.5,194.5C 82.6869,194.446 84.0202,194.113 85.5,193.5C 83.6741,190.919 81.8407,190.919 80,193.5C 79.1499,189.982 76.9832,187.649 73.5,186.5C 70.9282,179.77 69.9282,172.77 70.5,165.5C 73.0686,157.038 78.0686,150.371 85.5,145.5C 95.1667,139.167 103.167,131.167 109.5,121.5C 114.039,112.022 117.039,102.022 118.5,91.5C 120.744,87.2068 122.077,82.5401 122.5,77.5C 125.023,73.7866 127.023,69.7866 128.5,65.5C 131.919,63.5884 134.919,61.0884 137.5,58C 139.723,57.4338 141.723,56.6005 143.5,55.5C 143.842,54.6618 144.508,54.3284 145.5,54.5C 153.654,53.9637 161.654,53.2971 169.5,52.5C 174.833,52.1667 180.167,51.8333 185.5,51.5C 190.207,51.9313 194.207,50.598 197.5,47.5C 198.167,47.5 198.833,47.5 199.5,47.5C 202.179,46.7739 204.846,45.9406 207.5,45C 212.31,41.0252 216.976,36.8585 221.5,32.5C 223.296,30.1 225.63,28.4333 228.5,27.5C 229.873,27.6567 231.207,27.49 232.5,27C 235.886,23.9825 239.553,21.4825 243.5,19.5 Z"/></g>
<g><path style="opacity:1" fill="#352918" d="M 154.5,109.5 C 151.646,112.558 149.813,116.225 149,120.5C 144.805,121.322 143.139,123.655 144,127.5C 142.333,128.5 140.667,129.5 139,130.5C 137.592,134.057 136.592,137.724 136,141.5C 135.23,140.402 134.397,140.402 133.5,141.5C 137.976,129.226 144.976,118.559 154.5,109.5 Z"/></g>
<g><path style="opacity:1" fill="#ead37d" d="M 328.5,92.5 C 329.873,92.3433 331.207,92.51 332.5,93C 341.991,101.265 350.657,110.099 358.5,119.5C 359.327,117.838 360.493,116.505 362,115.5C 363.731,118.833 363.897,122.333 362.5,126C 364.789,129.088 366.123,132.588 366.5,136.5C 361.181,127.883 355.348,119.55 349,111.5C 341.97,105.3 335.137,98.9672 328.5,92.5 Z"/></g>
<g><path style="opacity:1" fill="#3f3215" d="M 166.5,98.5 C 163.728,102.28 160.395,105.28 156.5,107.5C 157.5,106.167 158.5,104.833 159.5,103.5C 161.573,101.42 163.907,99.7536 166.5,98.5 Z"/></g>
<g><path style="opacity:1" fill="#59461c" d="M 172.5,93.5 C 171.421,95.543 169.754,96.8763 167.5,97.5C 168.539,95.4689 170.205,94.1355 172.5,93.5 Z"/></g>
<g><path style="opacity:1" fill="#e8d07a" d="M 199.5,77.5 C 189.453,81.0251 180.453,86.3584 172.5,93.5C 170.205,94.1355 168.539,95.4689 167.5,97.5C 166.833,97.5 166.5,97.8333 166.5,98.5C 163.907,99.7536 161.573,101.42 159.5,103.5C 159.5,101.833 159.5,100.167 159.5,98.5C 160.675,98.719 161.675,98.3857 162.5,97.5C 163.907,93.085 166.907,91.4183 171.5,92.5C 171.5,91.1667 171.5,89.8333 171.5,88.5C 174.831,88.422 177.498,87.7554 179.5,86.5C 179.33,85.1779 179.663,84.0113 180.5,83C 184.047,83.0862 187.047,81.9195 189.5,79.5C 188.167,78.8333 186.833,78.1667 185.5,77.5C 186.167,77.1667 186.833,76.8333 187.5,76.5C 191.453,77.3619 195.453,77.6952 199.5,77.5 Z"/></g>
<g><path style="opacity:1" fill="#3c3117" d="M 219.5,70.5 C 217.727,71.8923 215.727,73.059 213.5,74C 208.734,74.8902 204.067,76.0569 199.5,77.5C 200.6,76.4415 201.934,75.6082 203.5,75C 208.953,73.764 214.287,72.264 219.5,70.5 Z"/></g>
<g><path style="opacity:1" fill="#84773b" d="M 285.5,71.5 C 288.855,71.6896 291.855,72.6896 294.5,74.5C 291.084,74.4725 288.084,73.4725 285.5,71.5 Z"/></g>
<g><path style="opacity:1" fill="#7b6c37" d="M 238.5,67.5 C 245.989,66.3443 253.655,66.1777 261.5,67C 266.127,67.05 270.46,67.8833 274.5,69.5C 262.558,67.9789 250.558,67.3122 238.5,67.5 Z"/></g>
<g><path style="opacity:1" fill="#080706" d="M 236.5,67.5 C 237.167,67.5 237.833,67.5 238.5,67.5C 250.558,67.3122 262.558,67.9789 274.5,69.5C 278.076,70.4853 281.742,71.152 285.5,71.5C 288.084,73.4725 291.084,74.4725 294.5,74.5C 300.281,77.2924 306.281,79.7924 312.5,82C 317.719,85.7694 323.053,89.2694 328.5,92.5C 335.137,98.9672 341.97,105.3 349,111.5C 355.348,119.55 361.181,127.883 366.5,136.5C 371.367,147.436 375.034,158.769 377.5,170.5C 380.522,188.964 379.856,207.298 375.5,225.5C 374.067,230.481 372.567,235.481 371,240.5C 368.212,245.695 365.712,251.029 363.5,256.5C 353.79,270.922 342.457,283.922 329.5,295.5C 322.159,299.837 314.825,304.17 307.5,308.5C 300.54,310.654 293.874,313.321 287.5,316.5C 285.708,316.366 284.042,316.699 282.5,317.5C 277.537,318.426 272.537,319.092 267.5,319.5C 251.386,319.989 235.386,319.323 219.5,317.5C 218.833,317.5 218.167,317.5 217.5,317.5C 207.205,314.348 197.205,310.514 187.5,306C 181.055,302.05 175.055,297.55 169.5,292.5C 168.089,290.086 166.089,288.419 163.5,287.5C 160.5,284.833 157.5,282.167 154.5,279.5C 152.906,276.236 150.573,273.569 147.5,271.5C 144.437,265.048 140.603,259.048 136,253.5C 132.547,246.264 129.381,238.931 126.5,231.5C 126.5,230.833 126.5,230.167 126.5,229.5C 125.736,223.249 124.403,217.249 122.5,211.5C 121.908,208.873 121.575,206.206 121.5,203.5C 120.991,190.694 121.991,178.028 124.5,165.5C 126.343,156.958 129.343,148.958 133.5,141.5C 134.397,140.402 135.23,140.402 136,141.5C 136.592,137.724 137.592,134.057 139,130.5C 140.667,129.5 142.333,128.5 144,127.5C 143.139,123.655 144.805,121.322 149,120.5C 149.813,116.225 151.646,112.558 154.5,109.5C 154.833,108.5 155.5,107.833 156.5,107.5C 160.395,105.28 163.728,102.28 166.5,98.5C 166.5,97.8333 166.833,97.5 167.5,97.5C 169.754,96.8763 171.421,95.543 172.5,93.5C 180.453,86.3584 189.453,81.0251 199.5,77.5C 204.067,76.0569 208.734,74.8902 213.5,74C 215.727,73.059 217.727,71.8923 219.5,70.5C 225.478,70.5804 231.145,69.5804 236.5,67.5 Z"/></g>
<g><path style="opacity:1" fill="#959595" d="M 260.5,83.5 C 249.07,83.0838 237.737,83.9172 226.5,86C 220.759,86.9682 215.425,88.8016 210.5,91.5C 209.167,91.5 207.833,91.5 206.5,91.5C 223.796,83.8388 241.796,81.1722 260.5,83.5 Z"/></g>
<g><path style="opacity:1" fill="#ececee" d="M 260.5,83.5 C 306.753,88.7017 338.92,112.702 357,155.5C 373.018,210.676 357.851,254.843 311.5,288C 306.863,290.803 302.196,293.303 297.5,295.5C 293.299,296.223 289.632,297.89 286.5,300.5C 264.298,306.482 241.965,306.982 219.5,302C 211.813,299.426 204.479,296.26 197.5,292.5C 195.595,289.432 192.929,287.265 189.5,286C 185.12,281.723 180.62,277.556 176,273.5C 172.112,266.28 167.445,259.614 162,253.5C 155.179,238.231 150.512,222.231 148,205.5C 145.631,175.303 154.298,148.97 174,126.5C 176.12,120.544 179.62,115.544 184.5,111.5C 192.915,104.317 201.581,97.6505 210.5,91.5C 215.425,88.8016 220.759,86.9682 226.5,86C 237.737,83.9172 249.07,83.0838 260.5,83.5 Z"/></g>
<g><path style="opacity:1" fill="#fefffe" d="M 238.5,102.5 C 286.651,98.815 321.818,118.148 344,160.5C 360.999,209.16 348.832,248.66 307.5,279C 277.927,296.172 246.927,299.172 214.5,288C 167.944,266.729 147.778,230.563 154,179.5C 166.053,136.071 194.219,110.404 238.5,102.5 Z"/></g>
<g><path style="opacity:1" fill="#645829" d="M 236.5,67.5 C 231.145,69.5804 225.478,70.5804 219.5,70.5C 224.844,68.3671 230.511,67.3671 236.5,67.5 Z"/></g>
<g><path style="opacity:1" fill="#a99c5c" d="M 109.5,121.5 C 103.167,131.167 95.1667,139.167 85.5,145.5C 93.8333,137.833 101.833,129.833 109.5,121.5 Z"/></g>
<g><path style="opacity:1" fill="#e8c667" d="M 386.5,111.5 C 388.536,114.226 390.203,117.226 391.5,120.5C 397.876,128.204 404.543,135.538 411.5,142.5C 409.801,142.66 408.134,142.494 406.5,142C 404.85,136.566 401.184,133.399 395.5,132.5C 394.575,133.357 393.908,134.357 393.5,135.5C 391.167,133.833 389.167,131.833 387.5,129.5C 395.823,130.253 396.657,128.253 390,123.5C 388.472,119.525 387.306,115.525 386.5,111.5 Z"/></g>
<g><path style="opacity:1" fill="#cbcace" d="M 206.5,91.5 C 207.833,91.5 209.167,91.5 210.5,91.5C 201.581,97.6505 192.915,104.317 184.5,111.5C 179.62,115.544 176.12,120.544 174,126.5C 154.298,148.97 145.631,175.303 148,205.5C 150.512,222.231 155.179,238.231 162,253.5C 167.445,259.614 172.112,266.28 176,273.5C 180.62,277.556 185.12,281.723 189.5,286C 192.929,287.265 195.595,289.432 197.5,292.5C 162.483,273.118 142.483,243.452 137.5,203.5C 137.186,192.759 137.853,182.092 139.5,171.5C 140.93,165.674 142.596,160.008 144.5,154.5C 146.159,152.531 147.825,150.531 149.5,148.5C 150.504,145.155 151.504,141.821 152.5,138.5C 165.228,116.799 183.228,101.132 206.5,91.5 Z"/></g>
<g><path style="opacity:1" fill="#9c9b9f" d="M 152.5,138.5 C 151.504,141.821 150.504,145.155 149.5,148.5C 147.825,150.531 146.159,152.531 144.5,154.5C 146.132,148.57 148.798,143.236 152.5,138.5 Z"/></g>
<g><path style="opacity:1" fill="#342d19" d="M 70.5,165.5 C 69.9282,172.77 70.9282,179.77 73.5,186.5C 73.5,187.167 73.5,187.833 73.5,188.5C 71.8868,188.056 70.7202,187.056 70,185.5C 69.1794,178.654 69.346,171.987 70.5,165.5 Z"/></g>
<g><path style="opacity:1" fill="#644e20" d="M 430.5,178.5 C 430.353,183.311 428.686,187.311 425.5,190.5C 427.186,186.424 428.853,182.424 430.5,178.5 Z"/></g>
<g><path style="opacity:1" fill="#444444" d="M 53.5,168.5 C 53.9262,174.953 55.0929,181.286 57,187.5C 61.8216,198.477 67.155,209.143 73,219.5C 73.8442,221.463 73.3442,222.796 71.5,223.5C 65.1324,210.763 59.299,197.763 54,184.5C 52.5419,179.036 52.3752,173.703 53.5,168.5 Z"/></g>
<g><path style="opacity:1" fill="#3b3b3b" d="M 139.5,171.5 C 137.853,182.092 137.186,192.759 137.5,203.5C 136.344,196.011 136.178,188.345 137,180.5C 137.204,177.203 138.037,174.203 139.5,171.5 Z"/></g>
<g><path style="opacity:1" fill="#e5cc76" d="M 73.5,186.5 C 76.9832,187.649 79.1499,189.982 80,193.5C 81.8407,190.919 83.6741,190.919 85.5,193.5C 84.0202,194.113 82.6869,194.446 81.5,194.5C 81.9498,199.222 83.4498,203.556 86,207.5C 87.0852,208.293 88.2519,208.96 89.5,209.5C 90.4922,213.783 90.8256,218.116 90.5,222.5C 85.3606,210.888 79.6939,199.554 73.5,188.5C 73.5,187.833 73.5,187.167 73.5,186.5 Z"/></g>
<g><path style="opacity:1" fill="#b09c56" d="M 124.5,165.5 C 121.991,178.028 120.991,190.694 121.5,203.5C 120.344,195.677 120.177,187.677 121,179.5C 121.487,174.535 122.654,169.868 124.5,165.5 Z"/></g>
<g><path style="opacity:1" fill="#f9ce65" d="M 411.5,142.5 C 417.146,146.647 422.313,151.313 427,156.5C 430.098,163.481 431.264,170.815 430.5,178.5C 428.853,182.424 427.186,186.424 425.5,190.5C 421.96,197.91 418.127,205.243 414,212.5C 413.151,215.521 412.317,218.521 411.5,221.5C 410.732,222.263 410.232,223.263 410,224.5C 409.074,235.053 409.574,245.387 411.5,255.5C 411.5,256.5 411.5,257.5 411.5,258.5C 411.999,265.49 412.332,272.49 412.5,279.5C 410.515,288.783 405.182,295.449 396.5,299.5C 395.325,299.719 394.325,299.386 393.5,298.5C 394.641,297.575 394.641,296.741 393.5,296C 396.377,294.515 398.71,292.515 400.5,290C 399.986,284.733 399.986,279.399 400.5,274C 398.436,262.094 397.103,250.094 396.5,238C 397.158,227.524 400.492,218.024 406.5,209.5C 407.325,208.614 408.325,208.281 409.5,208.5C 409.16,204.869 409.994,201.536 412,198.5C 414.35,196.317 416.517,193.984 418.5,191.5C 417.299,181.495 417.299,171.328 418.5,161C 413.768,156.735 410.434,151.568 408.5,145.5C 406.833,145.5 405.167,145.5 403.5,145.5C 403.67,144.178 403.337,143.011 402.5,142C 399.606,139.594 396.606,137.427 393.5,135.5C 393.908,134.357 394.575,133.357 395.5,132.5C 401.184,133.399 404.85,136.566 406.5,142C 408.134,142.494 409.801,142.66 411.5,142.5 Z"/></g>
<g><path style="opacity:1" fill="#b6a463" d="M 377.5,170.5 C 379.109,173.149 379.943,176.149 380,179.5C 380.667,191.5 380.667,203.5 380,215.5C 378.807,219.198 377.307,222.531 375.5,225.5C 379.856,207.298 380.522,188.964 377.5,170.5 Z"/></g>
<g><path style="opacity:1" fill="#97864c" d="M 122.5,211.5 C 124.403,217.249 125.736,223.249 126.5,229.5C 125.034,228.653 124.2,227.32 124,225.5C 123.006,220.882 122.506,216.215 122.5,211.5 Z"/></g>
<g><path style="opacity:1" fill="#515151" d="M 73.5,230.5 C 74.5,230.5 75.5,230.5 76.5,230.5C 77.069,234.329 76.4023,237.663 74.5,240.5C 74.5405,237.119 74.2071,233.786 73.5,230.5 Z"/></g>
<g><path style="opacity:1" fill="#423010" d="M 411.5,221.5 C 410.365,232.819 410.365,244.152 411.5,255.5C 409.574,245.387 409.074,235.053 410,224.5C 410.232,223.263 410.732,222.263 411.5,221.5 Z"/></g>
<g><path style="opacity:1" fill="#af9f5a" d="M 91.5,228.5 C 92.6546,235.321 92.8213,242.321 92,249.5C 91.7679,250.737 91.2679,251.737 90.5,252.5C 91.1655,244.517 91.4988,236.517 91.5,228.5 Z"/></g>
<g><path style="opacity:1" fill="#c8b56c" d="M 126.5,231.5 C 129.381,238.931 132.547,246.264 136,253.5C 140.603,259.048 144.437,265.048 147.5,271.5C 145.983,271.489 144.816,270.823 144,269.5C 139.311,262.152 134.645,254.819 130,247.5C 129.337,242.022 128.17,236.689 126.5,231.5 Z"/></g>
<g><path style="opacity:1" fill="#3c3c3c" d="M 74.5,241.5 C 74.5715,244.193 74.9049,246.86 75.5,249.5C 75.4431,253.043 74.4431,256.043 72.5,258.5C 73.1261,252.732 73.7927,247.066 74.5,241.5 Z"/></g>
<g><path style="opacity:1" fill="#907f45" d="M 90.5,253.5 C 90.2491,258.507 89.9157,263.507 89.5,268.5C 89.1667,268.5 88.8333,268.5 88.5,268.5C 88.4443,263.269 89.111,258.269 90.5,253.5 Z"/></g>
<g><path style="opacity:1" fill="#614a21" d="M 411.5,258.5 C 412.954,262.574 413.621,266.907 413.5,271.5C 413.497,274.355 413.164,277.022 412.5,279.5C 412.332,272.49 411.999,265.49 411.5,258.5 Z"/></g>
<g><path style="opacity:1" fill="#d6c174" d="M 363.5,256.5 C 363.005,258.482 362.505,260.482 362,262.5C 358.961,266.704 356.128,271.038 353.5,275.5C 349.024,278.544 345.357,282.377 342.5,287C 340.107,289.05 337.441,290.717 334.5,292C 333.663,293.011 333.33,294.178 333.5,295.5C 332.167,295.5 330.833,295.5 329.5,295.5C 342.457,283.922 353.79,270.922 363.5,256.5 Z"/></g>
<g><path style="opacity:1" fill="#928248" d="M 147.5,271.5 C 150.573,273.569 152.906,276.236 154.5,279.5C 151.427,277.431 149.094,274.764 147.5,271.5 Z"/></g>
<g><path style="opacity:1" fill="#4b3f1b" d="M 163.5,287.5 C 166.089,288.419 168.089,290.086 169.5,292.5C 166.911,291.581 164.911,289.914 163.5,287.5 Z"/></g>
<g><path style="opacity:1" fill="#3c3c3c" d="M 71.5,268.5 C 71.9743,281.407 75.9743,293.074 83.5,303.5C 82.609,304.11 81.609,304.443 80.5,304.5C 73.7124,295.471 70.379,285.471 70.5,274.5C 70.5046,272.304 70.838,270.304 71.5,268.5 Z"/></g>
<g><path style="opacity:1" fill="#e0cb78" d="M 88.5,268.5 C 88.8333,268.5 89.1667,268.5 89.5,268.5C 89.3354,271.518 89.502,274.518 90,277.5C 91.6667,279.833 93.3333,282.167 95,284.5C 95.3333,286.833 95.6667,289.167 96,291.5C 100.949,294.59 106.116,297.256 111.5,299.5C 111.919,300.672 112.585,301.672 113.5,302.5C 117.455,304.137 121.121,306.137 124.5,308.5C 121.921,308.606 119.588,307.939 117.5,306.5C 115.967,304.755 113.967,303.755 111.5,303.5C 95.1486,297.852 87.482,286.185 88.5,268.5 Z"/></g>
<g><path style="opacity:1" fill="#555555" d="M 297.5,295.5 C 294.291,297.934 290.624,299.601 286.5,300.5C 289.632,297.89 293.299,296.223 297.5,295.5 Z"/></g>
<g><path style="opacity:1" fill="#767676" d="M 83.5,303.5 C 90.4301,309.208 90.0968,310.208 82.5,306.5C 81.5,306.167 80.8333,305.5 80.5,304.5C 81.609,304.443 82.609,304.11 83.5,303.5 Z"/></g>
<g><path style="opacity:1" fill="#5f4b26" d="M 111.5,303.5 C 113.967,303.755 115.967,304.755 117.5,306.5C 115.033,306.245 113.033,305.245 111.5,303.5 Z"/></g>
<g><path style="opacity:1" fill="#6a6a6a" d="M 418.5,303.5 C 417.415,305.587 415.749,306.92 413.5,307.5C 414.585,305.413 416.251,304.08 418.5,303.5 Z"/></g>
<g><path style="opacity:1" fill="#a99958" d="M 307.5,308.5 C 306.426,309.885 305.093,311.051 303.5,312C 298.16,313.615 292.827,315.115 287.5,316.5C 293.874,313.321 300.54,310.654 307.5,308.5 Z"/></g>
<g><path style="opacity:1" fill="#383939" d="M 116.5,328.5 C 116.443,327.391 116.11,326.391 115.5,325.5C 116.738,325.19 116.738,324.69 115.5,324C 110.419,322.123 105.419,320.123 100.5,318C 98.0392,316.585 95.7059,315.085 93.5,313.5C 94.365,312.417 95.365,312.251 96.5,313C 103.582,316.857 110.915,320.023 118.5,322.5C 118.741,324.898 118.074,326.898 116.5,328.5 Z"/></g>
<g><path style="opacity:1" fill="#bbac66" d="M 129.5,310.5 C 133.64,312.33 137.974,313.997 142.5,315.5C 143.34,316.735 144.34,317.735 145.5,318.5C 146.167,319.5 146.833,320.5 147.5,321.5C 141.459,317.817 135.459,314.15 129.5,310.5 Z"/></g>
<g><path style="opacity:1" fill="#404041" d="M 413.5,307.5 C 413.141,309.371 412.141,310.871 410.5,312C 404.429,316.034 398.096,319.534 391.5,322.5C 391.33,321.178 391.663,320.011 392.5,319C 400.131,316.175 407.131,312.342 413.5,307.5 Z"/></g>
<g><path style="opacity:1" fill="#20170c" d="M 377.5,308.5 C 374.169,311.981 370.336,314.981 366,317.5C 365.127,317.265 364.293,316.931 363.5,316.5C 362.119,318.691 360.119,320.024 357.5,320.5C 354.705,323.47 352.038,326.637 349.5,330C 348.234,330.309 347.067,330.809 346,331.5C 345.529,334.471 344.362,337.138 342.5,339.5C 341.675,340.386 340.675,340.719 339.5,340.5C 339.532,342.619 338.532,343.952 336.5,344.5C 338.767,339.576 341.433,334.909 344.5,330.5C 353.337,320.009 364.337,312.676 377.5,308.5 Z"/></g>
<g><path style="opacity:1" fill="#d1bd73" d="M 217.5,317.5 C 218.167,317.5 218.833,317.5 219.5,317.5C 235.357,321.658 251.357,322.324 267.5,319.5C 272.537,319.092 277.537,318.426 282.5,317.5C 279.252,318.905 275.919,320.405 272.5,322C 257.833,322.667 243.167,322.667 228.5,322C 225.601,320.853 222.601,320.019 219.5,319.5C 218.287,319.253 217.62,318.586 217.5,317.5 Z"/></g>
<g><path style="opacity:1" fill="#231b0f" d="M 219.5,317.5 C 235.386,319.323 251.386,319.989 267.5,319.5C 251.357,322.324 235.357,321.658 219.5,317.5 Z"/></g>
<g><path style="opacity:1" fill="#e4ce7a" d="M 145.5,318.5 C 148.526,319.174 151.526,320.007 154.5,321C 153.833,321.667 153.167,322.333 152.5,323C 153.655,326.254 155.989,328.087 159.5,328.5C 160.805,331.053 161.805,333.72 162.5,336.5C 166.503,340.843 169.17,345.843 170.5,351.5C 171.833,351.5 173.167,351.5 174.5,351.5C 174.519,353.06 174.852,354.56 175.5,356C 178.324,359.224 180.991,362.39 183.5,365.5C 182.078,365.291 180.745,364.791 179.5,364C 175.011,358.82 171.178,353.32 168,347.5C 164.637,342.65 161.137,337.983 157.5,333.5C 156.92,331.251 155.587,329.585 153.5,328.5C 151.5,326.167 149.5,323.833 147.5,321.5C 146.833,320.5 146.167,319.5 145.5,318.5 Z"/></g>
<g><path style="opacity:1" fill="#792227" d="M 386.5,345.5 C 382.92,341.899 380.586,337.565 379.5,332.5C 378.942,330.436 377.775,328.77 376,327.5C 373.846,328.274 371.679,328.941 369.5,329.5C 371.832,326.669 374.832,325.502 378.5,326C 381.462,332.386 384.128,338.886 386.5,345.5 Z"/></g>
<g><path style="opacity:1" fill="#554a2e" d="M 153.5,328.5 C 155.587,329.585 156.92,331.251 157.5,333.5C 155.413,332.415 154.08,330.749 153.5,328.5 Z"/></g>
<g><path style="opacity:1" fill="#f7d065" d="M 344.5,330.5 C 341.433,334.909 338.767,339.576 336.5,344.5C 334.833,346.5 333.167,348.5 331.5,350.5C 330.167,350.5 328.833,350.5 327.5,350.5C 327.5,351.5 327.5,352.5 327.5,353.5C 323.932,353.759 322.599,355.759 323.5,359.5C 322.5,359.5 321.5,359.5 320.5,359.5C 320.5,360.5 320.5,361.5 320.5,362.5C 319.167,362.5 317.833,362.5 316.5,362.5C 316.156,357.029 318.489,353.195 323.5,351C 323.043,350.586 322.709,350.086 322.5,349.5C 326.085,345.201 329.419,340.701 332.5,336C 333.448,335.517 334.448,335.351 335.5,335.5C 335.162,332.843 335.829,330.51 337.5,328.5C 338.167,328.833 338.833,329.167 339.5,329.5C 341.961,326.577 343.628,326.911 344.5,330.5 Z"/></g>
<g><path style="opacity:1" fill="#61222a" d="M 135.5,331.5 C 134.178,331.33 133.011,331.663 132,332.5C 131.148,336.264 129.648,339.597 127.5,342.5C 128.538,338.882 129.705,335.215 131,331.5C 132.616,330.199 134.116,330.199 135.5,331.5 Z"/></g>
<g><path style="opacity:1" fill="#a64750" d="M 139.5,335.5 C 141.984,337.8 143.984,340.467 145.5,343.5C 141.562,342.235 139.562,339.568 139.5,335.5 Z"/></g>
<g><path style="opacity:1" fill="#773038" d="M 359.5,338.5 C 358.92,340.749 357.587,342.415 355.5,343.5C 356.08,341.251 357.413,339.585 359.5,338.5 Z"/></g>
<g><path style="opacity:1" fill="#6d2930" d="M 353.5,346.5 C 352.277,350.049 350.277,353.049 347.5,355.5C 348.723,351.951 350.723,348.951 353.5,346.5 Z"/></g>
<g><path style="opacity:1" fill="#fb636f" d="M 379.5,332.5 C 377.886,331.729 376.386,330.729 375,329.5C 374.228,329.645 373.561,329.978 373,330.5C 372.927,333.158 373.26,335.824 374,338.5C 378.055,345.359 381.721,352.359 385,359.5C 386,363.167 387,366.833 388,370.5C 389.464,376.041 391.964,381.041 395.5,385.5C 397.246,389.737 398.58,394.07 399.5,398.5C 400.833,398.5 402.167,398.5 403.5,398.5C 403.065,401.838 403.732,404.838 405.5,407.5C 399.255,406.035 392.922,404.535 386.5,403C 387.5,402.667 388.5,402.333 389.5,402C 385.227,400.97 380.894,400.303 376.5,400C 377.706,398.982 377.373,398.482 375.5,398.5C 370.676,399.06 366.01,399.727 361.5,400.5C 358.478,401.522 356.478,403.522 355.5,406.5C 350.387,415.825 344.72,424.825 338.5,433.5C 337.624,433.369 336.957,433.702 336.5,434.5C 334.807,437.886 333.14,441.22 331.5,444.5C 331.5,444.833 331.5,445.167 331.5,445.5C 329.726,444.63 328.393,443.297 327.5,441.5C 326.833,439.167 326.167,436.833 325.5,434.5C 319.674,420.82 314.341,406.82 309.5,392.5C 308.717,390.712 307.384,389.712 305.5,389.5C 305.5,388.5 305.5,387.5 305.5,386.5C 310.616,385.851 315.616,384.684 320.5,383C 322.093,382.051 323.426,380.885 324.5,379.5C 326.655,379.628 328.655,379.128 330.5,378C 334.77,374.239 338.437,370.072 341.5,365.5C 343,361.827 345,358.494 347.5,355.5C 350.277,353.049 352.277,350.049 353.5,346.5C 353.427,344.973 354.094,343.973 355.5,343.5C 357.587,342.415 358.92,340.749 359.5,338.5C 361.556,334.112 364.889,331.112 369.5,329.5C 371.679,328.941 373.846,328.274 376,327.5C 377.775,328.77 378.942,330.436 379.5,332.5 Z"/></g>
<g><path style="opacity:1" fill="#3a1317" d="M 123.5,350.5 C 122.072,354.351 120.405,358.017 118.5,361.5C 117.313,363.072 116.313,364.739 115.5,366.5C 115.201,364.396 115.534,362.396 116.5,360.5C 119.076,358.122 120.076,355.122 119.5,351.5C 120.959,351.567 122.292,351.234 123.5,350.5 Z"/></g>
<g><path style="opacity:1" fill="#fc6270" d="M 135.5,331.5 C 137.139,332.473 138.473,333.806 139.5,335.5C 139.562,339.568 141.562,342.235 145.5,343.5C 148.977,348.381 152.31,353.381 155.5,358.5C 157.644,362.488 158.978,366.822 159.5,371.5C 162.833,373.167 166.167,374.833 169.5,376.5C 172.193,377.847 174.86,379.18 177.5,380.5C 181.085,382.806 185.085,384.139 189.5,384.5C 189.918,385.222 190.584,385.722 191.5,386C 196.489,386.499 201.489,386.666 206.5,386.5C 206.737,387.791 206.404,388.791 205.5,389.5C 203.31,390.802 201.31,392.469 199.5,394.5C 196.081,403.276 191.747,411.443 186.5,419C 185.023,422.33 184.189,425.83 184,429.5C 183,431.167 181.667,432.5 180,433.5C 180.121,436.921 178.788,439.588 176,441.5C 174.03,448.276 171.863,454.943 169.5,461.5C 170.5,461.5 171.5,461.5 172.5,461.5C 172.672,462.492 172.338,463.158 171.5,463.5C 168.865,462.527 166.865,460.86 165.5,458.5C 161.397,452.459 157.73,446.126 154.5,439.5C 153.908,434.634 151.575,430.967 147.5,428.5C 147.023,425.975 145.69,423.975 143.5,422.5C 141.969,420.32 139.802,419.32 137,419.5C 134.516,419.497 132.349,420.163 130.5,421.5C 129.167,421.5 127.833,421.5 126.5,421.5C 117.929,422.595 109.596,424.261 101.5,426.5C 96.9673,427.644 92.3006,428.311 87.5,428.5C 89.0783,423.416 91.4116,418.75 94.5,414.5C 97.4438,410.274 99.6105,405.608 101,400.5C 102.979,399.286 104.479,397.619 105.5,395.5C 109.84,384.143 114.174,372.809 118.5,361.5C 120.405,358.017 122.072,354.351 123.5,350.5C 124.814,347.872 126.147,345.205 127.5,342.5C 129.648,339.597 131.148,336.264 132,332.5C 133.011,331.663 134.178,331.33 135.5,331.5 Z"/></g>
<g><path style="opacity:1" fill="#f44957" d="M 379.5,332.5 C 380.586,337.565 382.92,341.899 386.5,345.5C 387.931,346.78 388.598,348.447 388.5,350.5C 388.755,352.967 389.755,354.967 391.5,356.5C 392.713,362.003 394.546,367.336 397,372.5C 397.697,374.584 398.864,376.251 400.5,377.5C 401.338,377.842 401.672,378.508 401.5,379.5C 402.059,382.943 403.393,385.943 405.5,388.5C 405.752,392.327 407.085,395.66 409.5,398.5C 409.394,401.079 410.061,403.412 411.5,405.5C 411.5,406.5 411.5,407.5 411.5,408.5C 409.379,408.675 407.379,408.341 405.5,407.5C 403.732,404.838 403.065,401.838 403.5,398.5C 402.167,398.5 400.833,398.5 399.5,398.5C 398.58,394.07 397.246,389.737 395.5,385.5C 391.964,381.041 389.464,376.041 388,370.5C 387,366.833 386,363.167 385,359.5C 381.721,352.359 378.055,345.359 374,338.5C 373.26,335.824 372.927,333.158 373,330.5C 373.561,329.978 374.228,329.645 375,329.5C 376.386,330.729 377.886,331.729 379.5,332.5 Z"/></g>
<g><path style="opacity:1" fill="#530e13" d="M 388.5,350.5 C 390.245,352.033 391.245,354.033 391.5,356.5C 389.755,354.967 388.755,352.967 388.5,350.5 Z"/></g>
<g><path style="opacity:1" fill="#837542" d="M 257.5,358.5 C 251.464,358.36 245.464,358.693 239.5,359.5C 242.695,357.97 246.195,357.304 250,357.5C 252.69,357.503 255.19,357.836 257.5,358.5 Z"/></g>
<g><path style="opacity:1" fill="#312416" d="M 318.5,365.5 C 317.086,367.054 315.419,368.388 313.5,369.5C 305.833,370.833 298.167,370.833 290.5,369.5C 289.099,368.479 287.765,367.479 286.5,366.5C 297.286,370.671 307.953,370.338 318.5,365.5 Z"/></g>
<g><path style="opacity:1" fill="#67181f" d="M 391.5,356.5 C 395.057,363.143 398.057,370.143 400.5,377.5C 398.864,376.251 397.697,374.584 397,372.5C 394.546,367.336 392.713,362.003 391.5,356.5 Z"/></g>
<g><path style="opacity:1" fill="#c1535e" d="M 155.5,358.5 C 159.671,364.821 164.338,370.821 169.5,376.5C 166.167,374.833 162.833,373.167 159.5,371.5C 158.978,366.822 157.644,362.488 155.5,358.5 Z"/></g>
<g><path style="opacity:1" fill="#914347" d="M 341.5,365.5 C 338.437,370.072 334.77,374.239 330.5,378C 328.655,379.128 326.655,379.628 324.5,379.5C 330.718,375.627 336.384,370.96 341.5,365.5 Z"/></g>
<g><path style="opacity:1" fill="#1e1e1e" d="M 245.5,373.5 C 245.389,374.117 245.056,374.617 244.5,375C 248.5,375.667 252.5,375.667 256.5,375C 255.944,374.617 255.611,374.117 255.5,373.5C 256.959,373.433 258.292,373.766 259.5,374.5C 259.389,375.117 259.056,375.617 258.5,376C 264.735,377.6 270.902,379.434 277,381.5C 278.03,381.164 278.53,380.497 278.5,379.5C 284.016,381.327 287.35,385.16 288.5,391C 287.584,391.278 286.918,391.778 286.5,392.5C 285.458,390.261 284.125,388.095 282.5,386C 269.508,381.392 256.175,378.725 242.5,378C 236.532,378.824 231.199,380.991 226.5,384.5C 226.781,382.037 227.781,379.87 229.5,378C 235.141,376.101 240.475,374.601 245.5,373.5 Z"/></g>
<g><path style="opacity:1" fill="#646464" d="M 245.5,373.5 C 248.833,374.833 252.167,374.833 255.5,373.5C 255.611,374.117 255.944,374.617 256.5,375C 252.5,375.667 248.5,375.667 244.5,375C 245.056,374.617 245.389,374.117 245.5,373.5 Z"/></g>
<g><path style="opacity:1" fill="#4d4d4d" d="M 259.5,374.5 C 265.877,376.011 272.211,377.678 278.5,379.5C 278.53,380.497 278.03,381.164 277,381.5C 270.902,379.434 264.735,377.6 258.5,376C 259.056,375.617 259.389,375.117 259.5,374.5 Z"/></g>
<g><path style="opacity:1" fill="#722832" d="M 177.5,380.5 C 181.767,381.256 185.767,382.589 189.5,384.5C 185.085,384.139 181.085,382.806 177.5,380.5 Z"/></g>
<g><path style="opacity:1" fill="#4f0d14" d="M 401.5,379.5 C 403.584,382.053 404.917,385.053 405.5,388.5C 403.393,385.943 402.059,382.943 401.5,379.5 Z"/></g>
<g><path style="opacity:1" fill="#a93f4a" d="M 189.5,384.5 C 195.833,384.5 202.167,384.5 208.5,384.5C 207.617,389.484 205.95,394.151 203.5,398.5C 203.167,398.5 202.833,398.5 202.5,398.5C 203.759,395.634 204.759,392.634 205.5,389.5C 206.404,388.791 206.737,387.791 206.5,386.5C 201.489,386.666 196.489,386.499 191.5,386C 190.584,385.722 189.918,385.222 189.5,384.5 Z"/></g>
<g><path style="opacity:1" fill="#ad4d54" d="M 324.5,379.5 C 323.426,380.885 322.093,382.051 320.5,383C 315.616,384.684 310.616,385.851 305.5,386.5C 305.5,387.5 305.5,388.5 305.5,389.5C 303.744,388.448 303.077,386.781 303.5,384.5C 310.863,384.266 317.863,382.599 324.5,379.5 Z"/></g>
<g><path style="opacity:1" fill="#5e151e" d="M 405.5,388.5 C 407.794,391.37 409.128,394.703 409.5,398.5C 407.085,395.66 405.752,392.327 405.5,388.5 Z"/></g>
<g><path style="opacity:1" fill="#c3535f" d="M 118.5,361.5 C 114.174,372.809 109.84,384.143 105.5,395.5C 104.479,397.619 102.979,399.286 101,400.5C 99.6105,405.608 97.4438,410.274 94.5,414.5C 95.6944,409.767 97.1944,405.101 99,400.5C 103.172,395.154 106.006,389.154 107.5,382.5C 110.17,377.103 112.836,371.77 115.5,366.5C 116.313,364.739 117.313,363.072 118.5,361.5 Z"/></g>
<g><path style="opacity:1" fill="#e5606b" d="M 405.5,407.5 C 407.379,408.341 409.379,408.675 411.5,408.5C 411.5,407.5 411.5,406.5 411.5,405.5C 412.339,406.641 413.006,407.974 413.5,409.5C 410.911,410.205 408.244,410.205 405.5,409.5C 398.742,408.015 392.075,406.682 385.5,405.5C 381.274,403.044 376.607,402.044 371.5,402.5C 370.833,402.5 370.167,402.5 369.5,402.5C 367.22,400.777 364.553,400.111 361.5,400.5C 366.01,399.727 370.676,399.06 375.5,398.5C 377.373,398.482 377.706,398.982 376.5,400C 380.894,400.303 385.227,400.97 389.5,402C 388.5,402.333 387.5,402.667 386.5,403C 392.922,404.535 399.255,406.035 405.5,407.5 Z"/></g>
<g><path style="opacity:1" fill="#782d33" d="M 361.5,400.5 C 364.553,400.111 367.22,400.777 369.5,402.5C 366.824,401.992 364.157,401.825 361.5,402C 359.34,403.332 357.34,404.832 355.5,406.5C 356.478,403.522 358.478,401.522 361.5,400.5 Z"/></g>
<g><path style="opacity:1" fill="#9f464f" d="M 371.5,402.5 C 376.607,402.044 381.274,403.044 385.5,405.5C 380.64,404.867 375.973,403.867 371.5,402.5 Z"/></g>
<g><path style="opacity:1" fill="#2c0d0b" d="M 202.5,398.5 C 202.833,398.5 203.167,398.5 203.5,398.5C 203.662,400.527 203.495,402.527 203,404.5C 200.99,408.324 198.49,411.658 195.5,414.5C 196.228,410.594 198.062,407.26 201,404.5C 201.191,402.292 201.691,400.292 202.5,398.5 Z"/></g>
<g><path style="opacity:1" fill="#611921" d="M 409.5,398.5 C 412.515,402.227 414.182,406.56 414.5,411.5C 411.171,411.785 408.171,411.118 405.5,409.5C 408.244,410.205 410.911,410.205 413.5,409.5C 413.006,407.974 412.339,406.641 411.5,405.5C 410.061,403.412 409.394,401.079 409.5,398.5 Z"/></g>
<g><path style="opacity:1" fill="#cb5c66" d="M 305.5,389.5 C 307.384,389.712 308.717,390.712 309.5,392.5C 314.341,406.82 319.674,420.82 325.5,434.5C 321.779,429.883 319.279,424.55 318,418.5C 312.39,409.517 308.223,399.85 305.5,389.5 Z"/></g>
<g><path style="opacity:1" fill="#68272a" d="M 143.5,422.5 C 139.232,421.627 134.898,421.294 130.5,421.5C 132.349,420.163 134.516,419.497 137,419.5C 139.802,419.32 141.969,420.32 143.5,422.5 Z"/></g>
<g><path style="opacity:1" fill="#313131" d="M 369.5,418.5 C 375.541,418.844 381.541,419.511 387.5,420.5C 387.5,421.5 387.5,422.5 387.5,423.5C 383.836,423.797 380.67,422.797 378,420.5C 375.899,421.615 373.733,421.615 371.5,420.5C 370.287,420.253 369.62,419.586 369.5,418.5 Z"/></g>
<g><path style="opacity:1" fill="#621921" d="M 195.5,414.5 C 189.95,428.596 183.617,442.262 176.5,455.5C 178.956,448.567 181.456,441.567 184,434.5C 188.113,427.934 191.946,421.267 195.5,414.5 Z"/></g>
<g><path style="opacity:1" fill="#85272d" d="M 126.5,421.5 C 118.585,424.541 110.252,426.208 101.5,426.5C 109.596,424.261 117.929,422.595 126.5,421.5 Z"/></g>
<g><path style="opacity:1" fill="#3c3c3c" d="M 388.5,422.5 C 397.93,423.191 407.264,424.525 416.5,426.5C 416.5,427.5 416.5,428.5 416.5,429.5C 408.476,428.195 400.476,426.695 392.5,425C 390.563,424.878 389.23,424.045 388.5,422.5 Z"/></g>
<g><path style="opacity:1" fill="#474747" d="M 317.5,463.5 C 306.795,440.405 296.462,417.072 286.5,393.5C 287.688,392.316 288.855,392.316 290,393.5C 298.46,413.199 307.127,432.866 316,452.5C 317.533,456.178 318.033,459.845 317.5,463.5 Z"/></g>
<g><path style="opacity:1" fill="#a74a53" d="M 147.5,428.5 C 151.575,430.967 153.908,434.634 154.5,439.5C 151.421,436.35 149.087,432.683 147.5,428.5 Z"/></g>
<g><path style="opacity:1" fill="#ef4f5e" d="M 205.5,389.5 C 204.759,392.634 203.759,395.634 202.5,398.5C 201.691,400.292 201.191,402.292 201,404.5C 198.062,407.26 196.228,410.594 195.5,414.5C 191.946,421.267 188.113,427.934 184,434.5C 181.456,441.567 178.956,448.567 176.5,455.5C 174.31,456.975 172.977,458.975 172.5,461.5C 171.5,461.5 170.5,461.5 169.5,461.5C 171.863,454.943 174.03,448.276 176,441.5C 178.788,439.588 180.121,436.921 180,433.5C 181.667,432.5 183,431.167 184,429.5C 184.189,425.83 185.023,422.33 186.5,419C 191.747,411.443 196.081,403.276 199.5,394.5C 201.31,392.469 203.31,390.802 205.5,389.5 Z"/></g>
<g><path style="opacity:1" fill="#555555" d="M 366.5,422.5 C 358.497,434.835 350.497,447.169 342.5,459.5C 341.957,459.44 341.624,459.107 341.5,458.5C 342.098,457.205 342.598,455.872 343,454.5C 351.082,442.671 358.916,430.671 366.5,418.5C 367.626,419.808 367.626,421.142 366.5,422.5 Z"/></g>
<g><path style="opacity:1" fill="#83242d" d="M 338.5,433.5 C 336.902,437.711 334.568,441.378 331.5,444.5C 333.14,441.22 334.807,437.886 336.5,434.5C 336.957,433.702 337.624,433.369 338.5,433.5 Z"/></g>
<g><path style="opacity:1" fill="#282828" d="M 123.5,441.5 C 119.317,442.627 114.983,443.627 110.5,444.5C 109.432,443.566 108.099,443.232 106.5,443.5C 106.5,442.5 106.5,441.5 106.5,440.5C 111.5,439.833 116.5,439.167 121.5,438.5C 121.285,440.179 121.952,441.179 123.5,441.5 Z"/></g>
<g><path style="opacity:1" fill="#383838" d="M 89.5,442.5 C 92.5719,442.183 95.5719,442.516 98.5,443.5C 91.9245,446.653 84.9245,447.987 77.5,447.5C 77.5,446.5 77.5,445.5 77.5,444.5C 81.1817,444.665 84.8484,444.499 88.5,444C 89.056,443.617 89.3893,443.117 89.5,442.5 Z"/></g>
<g><path style="opacity:1" fill="#5a1f26" d="M 327.5,441.5 C 328.393,443.297 329.726,444.63 331.5,445.5C 328.172,446.851 326.839,445.517 327.5,441.5 Z"/></g>
<g><path style="opacity:1" fill="#383838" d="M 160.5,487.5 C 151.413,473.666 143.079,459.333 135.5,444.5C 134.962,442.883 134.629,441.216 134.5,439.5C 132.023,439.949 130.023,439.283 128.5,437.5C 130.484,436.294 132.484,436.294 134.5,437.5C 136.473,440.64 138.64,443.64 141,446.5C 148.286,459.65 155.953,472.65 164,485.5C 164.404,490.077 163.57,490.41 161.5,486.5C 160.893,486.624 160.56,486.957 160.5,487.5 Z"/></g>
<g><path style="opacity:1" fill="#a13d51" d="M 165.5,458.5 C 166.865,460.86 168.865,462.527 171.5,463.5C 171.052,465.465 170.052,465.798 168.5,464.5C 166.736,462.87 165.736,460.87 165.5,458.5 Z"/></g>
<g><path style="opacity:1" fill="#636363" d="M 342.5,460.5 C 339.734,465.045 336.734,469.378 333.5,473.5C 333.077,472.735 332.743,471.902 332.5,471C 335.211,468.183 337.378,465.016 339,461.5C 340.011,460.663 341.178,460.33 342.5,460.5 Z"/></g>
<g><path style="opacity:1" fill="#525252" d="M 321.5,472.5 C 319.657,470.147 318.323,467.48 317.5,464.5C 318.15,464.196 318.817,463.863 319.5,463.5C 321.813,468.821 325.813,471.821 331.5,472.5C 327.866,473.292 324.533,473.292 321.5,472.5 Z"/></g>
<g><path style="opacity:1" fill="#707070" d="M 178.5,487.5 C 178.378,490.292 177.044,492.292 174.5,493.5C 174.324,490.921 175.657,488.921 178.5,487.5 Z"/></g>
</svg>
