<?xml version="1.0" encoding="UTF-8"?>
<!DOCTYPE svg PUBLIC "-//W3C//DTD SVG 1.1//EN" "http://www.w3.org/Graphics/SVG/1.1/DTD/svg11.dtd">
<svg xmlns="http://www.w3.org/2000/svg" version="1.1" width="4088px" height="4088px" style="shape-rendering:geometricPrecision; text-rendering:geometricPrecision; image-rendering:optimizeQuality; fill-rule:evenodd; clip-rule:evenodd" xmlns:xlink="http://www.w3.org/1999/xlink">
<g><path style="opacity:1" fill="#2068fe" d="M 1962.5,-0.5 C 2016.5,-0.5 2070.5,-0.5 2124.5,-0.5C 2546.69,19.8168 2927.03,154.317 3265.5,403C 3599.16,655.369 3835.99,978.869 3976,1373.5C 4041.25,1564.53 4078.42,1760.87 4087.5,1962.5C 4087.5,2016.5 4087.5,2070.5 4087.5,2124.5C 4065.95,2564.79 3921.45,2958.13 3654,3304.5C 3417.04,3603.78 3120.2,3821.61 2763.5,3958C 2557.05,4035.14 2343.71,4078.31 2123.5,4087.5C 2070.17,4087.5 2016.83,4087.5 1963.5,4087.5C 1540.29,4067.36 1159.29,3932.53 820.5,3683C 487.204,3430.98 250.704,3107.82 111,2713.5C 45.7448,2522.43 8.57815,2326.1 -0.5,2124.5C -0.5,2070.5 -0.5,2016.5 -0.5,1962.5C 17.3287,1579.21 131.162,1228.21 341,909.5C 576.634,561.187 888.8,307.02 1277.5,147C 1497.36,58.8007 1725.7,9.63408 1962.5,-0.5 Z"/></g>
<g><path style="opacity:1" fill="#fefeff" d="M 2792.5,736.5 C 2792.5,891.167 2792.5,1045.83 2792.5,1200.5C 2453.33,1200.17 2114.33,1200.5 1775.5,1201.5C 1775.5,1202.17 1775.5,1202.83 1775.5,1203.5C 1773.13,1228.08 1771.13,1252.75 1769.5,1277.5C 1768.19,1282.62 1767.53,1287.95 1767.5,1293.5C 1756.2,1427.5 1745.37,1561.5 1735,1695.5C 1855.88,1587.2 1998.04,1531.04 2161.5,1527C 2289.91,1523.12 2412.24,1548.12 2528.5,1602C 2649.45,1661.94 2746.95,1748.44 2821,1861.5C 2899.52,1986.24 2944.02,2122.58 2954.5,2270.5C 2954.26,2279.38 2954.93,2288.05 2956.5,2296.5C 2957.82,2330.17 2957.82,2363.83 2956.5,2397.5C 2955.27,2406.64 2954.6,2415.98 2954.5,2425.5C 2940.41,2613.88 2873.24,2779.88 2753,2923.5C 2664.47,3024.05 2558.63,3100.55 2435.5,3153C 2329.81,3196.42 2219.81,3221.92 2105.5,3229.5C 2093.65,3229.61 2081.98,3230.28 2070.5,3231.5C 2030.79,3233.21 1991.12,3232.55 1951.5,3229.5C 1943.06,3227.86 1934.39,3227.2 1925.5,3227.5C 1917.14,3227.13 1908.81,3226.46 1900.5,3225.5C 1891.39,3223.53 1882.05,3222.2 1872.5,3221.5C 1701.32,3199.6 1539.65,3148.1 1387.5,3067C 1323.44,3032.25 1263.77,2991.25 1208.5,2944C 1197.03,2933.53 1185.86,2922.7 1175,2911.5C 1174.85,2901.17 1175.18,2890.83 1176,2880.5C 1184.89,2765.17 1193.73,2649.83 1202.5,2534.5C 1204.03,2525.71 1204.7,2516.71 1204.5,2507.5C 1205.9,2479.78 1207.9,2452.12 1210.5,2424.5C 1211.47,2422.39 1211.8,2420.06 1211.5,2417.5C 1243.17,2417.5 1274.83,2417.5 1306.5,2417.5C 1364.65,2491.49 1431.99,2555.66 1508.5,2610C 1619.09,2685.38 1741.42,2729.88 1875.5,2743.5C 1883.9,2745.6 1892.57,2746.6 1901.5,2746.5C 1945.78,2749.4 1990.11,2750.23 2034.5,2749C 2103.46,2745.22 2168.79,2728.22 2230.5,2698C 2352.83,2632.59 2419.33,2530.43 2430,2391.5C 2434.3,2299.11 2409.97,2215.45 2357,2140.5C 2279.85,2042.18 2178.35,1992.85 2052.5,1992.5C 2004.68,1993.1 1958.01,2000.6 1912.5,2015C 1818.46,2044.78 1736.96,2094.62 1668,2164.5C 1529.41,2081.58 1391.08,1998.25 1253,1914.5C 1254.26,1892.16 1255.92,1869.83 1258,1847.5C 1288.59,1511.06 1319.42,1174.73 1350.5,838.5C 1352.11,830.39 1352.78,822.056 1352.5,813.5C 1354.5,787.83 1356.5,762.163 1358.5,736.5C 1836.5,736.5 2314.5,736.5 2792.5,736.5 Z"/></g>
<g><path style="opacity:1" fill="#c0d0ff" d="M 1352.5,813.5 C 1352.78,822.056 1352.11,830.39 1350.5,838.5C 1350.22,829.944 1350.89,821.61 1352.5,813.5 Z"/></g>
<g><path style="opacity:1" fill="#d7e1ff" d="M 2792.5,736.5 C 2793.83,891.5 2793.83,1046.5 2792.5,1201.5C 2453.5,1201.5 2114.5,1201.5 1775.5,1201.5C 2114.33,1200.5 2453.33,1200.17 2792.5,1200.5C 2792.5,1045.83 2792.5,891.167 2792.5,736.5 Z"/></g>
<g><path style="opacity:1" fill="#427fff" d="M 1775.5,1201.5 C 2114.5,1201.5 2453.5,1201.5 2792.5,1201.5C 2453.6,1202.17 2114.6,1202.83 1775.5,1203.5C 1775.5,1202.83 1775.5,1202.17 1775.5,1201.5 Z"/></g>
<g><path style="opacity:1" fill="#8eafff" d="M 1769.5,1277.5 C 1769.62,1283.07 1768.96,1288.4 1767.5,1293.5C 1767.53,1287.95 1768.19,1282.62 1769.5,1277.5 Z"/></g>
<g><path style="opacity:1" fill="#94b3ff" d="M 2954.5,2270.5 C 2956.07,2278.95 2956.74,2287.62 2956.5,2296.5C 2954.93,2288.05 2954.26,2279.38 2954.5,2270.5 Z"/></g>
<g><path style="opacity:1" fill="#93b2ff" d="M 2956.5,2397.5 C 2956.89,2407.06 2956.23,2416.39 2954.5,2425.5C 2954.6,2415.98 2955.27,2406.64 2956.5,2397.5 Z"/></g>
<g><path style="opacity:1" fill="#c9daff" d="M 1306.5,2417.5 C 1274.83,2417.5 1243.17,2417.5 1211.5,2417.5C 1211.8,2420.06 1211.47,2422.39 1210.5,2424.5C 1210.5,2421.83 1210.5,2419.17 1210.5,2416.5C 1242.67,2416.17 1274.67,2416.5 1306.5,2417.5 Z"/></g>
<g><path style="opacity:1" fill="#b3c8ff" d="M 1204.5,2507.5 C 1204.7,2516.71 1204.03,2525.71 1202.5,2534.5C 1202.3,2525.29 1202.97,2516.29 1204.5,2507.5 Z"/></g>
<g><path style="opacity:1" fill="#9cb9ff" d="M 1875.5,2743.5 C 1884.35,2744.15 1893.01,2745.15 1901.5,2746.5C 1892.57,2746.6 1883.9,2745.6 1875.5,2743.5 Z"/></g>
<g><path style="opacity:1" fill="#b4c8ff" d="M 1872.5,3221.5 C 1882.05,3222.2 1891.39,3223.53 1900.5,3225.5C 1890.92,3224.99 1881.58,3223.65 1872.5,3221.5 Z"/></g>
<g><path style="opacity:1" fill="#bccfff" d="M 1925.5,3227.5 C 1934.39,3227.2 1943.06,3227.86 1951.5,3229.5C 1942.62,3229.74 1933.95,3229.07 1925.5,3227.5 Z"/></g>
<g><path style="opacity:1" fill="#6c96ff" d="M 2105.5,3229.5 C 2094.03,3230.99 2082.37,3231.66 2070.5,3231.5C 2081.98,3230.28 2093.65,3229.61 2105.5,3229.5 Z"/></g>
</svg>
