<?xml version="1.0" encoding="utf-8"?>
<!-- Generator: Adobe Illustrator 26.0.1, SVG Export Plug-In . SVG Version: 6.00 Build 0)  -->
<svg version="1.1" id="Layer_1" xmlns="http://www.w3.org/2000/svg" xmlns:xlink="http://www.w3.org/1999/xlink" x="0px" y="0px"
	 viewBox="0 0 5000 5000" style="enable-background:new 0 0 5000 5000;" xml:space="preserve">
<style type="text/css">
	.st0{fill:#EAA203;}
	.st1{fill:#FFFFFF;}
</style>
<path class="st0" d="M5000,2500c0,40.92-1,81.81-3.01,122.67c-2.01,40.86-5.02,81.66-9.03,122.37
	c-4.01,40.72-9.02,81.31-15.02,121.79c-6.01,40.47-13,80.77-20.98,120.9c-7.98,40.12-16.94,80.04-26.89,119.72
	c-9.94,39.69-20.85,79.11-32.73,118.26s-24.71,77.99-38.49,116.51c-13.79,38.53-28.5,76.69-44.16,114.48
	c-15.66,37.8-32.23,75.19-49.72,112.18c-17.49,36.98-35.89,73.52-55.17,109.6s-39.45,71.67-60.48,106.76
	c-21.04,35.09-42.92,69.65-65.65,103.67c-22.73,34.02-46.28,67.46-70.66,100.32c-24.37,32.86-49.54,65.11-75.49,96.73
	c-25.96,31.62-52.67,62.6-80.15,92.92c-27.47,30.31-55.68,59.94-84.61,88.86c-28.93,28.93-58.55,57.14-88.87,84.61
	c-30.31,27.47-61.29,54.19-92.91,80.15c-31.63,25.96-63.88,51.12-96.73,75.49c-32.86,24.37-66.31,47.92-100.32,70.66
	c-34.02,22.73-68.58,44.61-103.67,65.65c-35.09,21.03-70.68,41.19-106.77,60.48c-36.08,19.29-72.61,37.68-109.6,55.17
	c-36.98,17.49-74.38,34.07-112.18,49.72c-37.8,15.66-75.96,30.38-114.48,44.16c-38.52,13.79-77.36,26.61-116.51,38.49
	c-39.16,11.88-78.57,22.79-118.27,32.73c-39.69,9.94-79.59,18.9-119.72,26.89c-40.12,7.98-80.43,14.97-120.9,20.98
	c-40.47,6-81.07,11.01-121.79,15.02c-40.72,4.01-81.51,7.02-122.38,9.03c-40.86,2.01-81.75,3.01-122.67,3.01
	c-40.92,0-81.8-1-122.67-3.01c-40.86-2.01-81.66-5.02-122.37-9.03c-40.72-4.01-81.31-9.02-121.79-15.02
	c-40.47-6.01-80.77-12.99-120.9-20.98c-40.13-7.98-80.04-16.94-119.73-26.89c-39.69-9.94-79.1-20.85-118.26-32.73
	c-39.15-11.88-77.99-24.7-116.51-38.49c-38.53-13.78-76.69-28.5-114.48-44.16c-37.8-15.66-75.19-32.23-112.18-49.72
	c-36.98-17.49-73.52-35.89-109.6-55.17c-36.08-19.29-71.67-39.45-106.76-60.48c-35.09-21.04-69.65-42.92-103.67-65.65
	c-34.02-22.73-67.46-46.29-100.32-70.66c-32.86-24.38-65.1-49.54-96.73-75.49c-31.62-25.95-62.6-52.67-92.91-80.15
	c-30.32-27.48-59.94-55.68-88.87-84.61c-28.93-28.93-57.14-58.55-84.61-88.87c-27.47-30.31-54.19-61.29-80.15-92.91
	c-25.96-31.63-51.12-63.88-75.49-96.73c-24.37-32.86-47.92-66.3-70.65-100.32c-22.73-34.02-44.61-68.58-65.65-103.67
	c-21.03-35.09-41.19-70.68-60.48-106.76c-19.29-36.08-37.68-72.62-55.17-109.6c-17.49-36.99-34.07-74.38-49.72-112.18
	c-15.66-37.8-30.38-75.96-44.16-114.48c-13.79-38.52-26.61-77.36-38.49-116.51c-11.88-39.16-22.79-78.57-32.73-118.26
	c-9.94-39.69-18.9-79.6-26.89-119.73c-7.98-40.12-14.97-80.43-20.98-120.9c-6-40.47-11.01-81.07-15.02-121.79
	c-4.01-40.71-7.02-81.51-9.03-122.37C1.01,2581.81,0,2540.92,0,2500c0-40.91,1.01-81.8,3.01-122.67
	c2.01-40.86,5.02-81.66,9.03-122.38s9.02-81.31,15.02-121.78c6.01-40.47,12.99-80.78,20.98-120.9
	c7.98-40.13,16.94-80.04,26.89-119.72s20.85-79.11,32.73-118.26c11.88-39.16,24.7-77.99,38.49-116.52
	c13.78-38.52,28.51-76.68,44.16-114.48c15.66-37.8,32.23-75.19,49.72-112.18c17.49-36.99,35.89-73.52,55.17-109.6
	c19.29-36.08,39.45-71.67,60.48-106.77c21.04-35.09,42.92-69.65,65.65-103.67c22.73-34.02,46.28-67.46,70.65-100.32
	c24.38-32.86,49.54-65.11,75.49-96.74c25.95-31.62,52.67-62.59,80.15-92.91c27.48-30.32,55.68-59.94,84.61-88.87
	c28.93-28.93,58.55-57.14,88.87-84.61c30.31-27.48,61.29-54.19,92.91-80.15c31.63-25.95,63.88-51.12,96.73-75.49
	c32.86-24.38,66.31-47.93,100.32-70.66c34.02-22.73,68.58-44.61,103.67-65.65c35.09-21.04,70.68-41.2,106.77-60.48
	c36.08-19.29,72.61-37.68,109.6-55.17c36.99-17.49,74.38-34.07,112.18-49.72c37.8-15.66,75.96-30.38,114.48-44.16
	c38.52-13.78,77.36-26.61,116.51-38.49c39.16-11.88,78.57-22.79,118.26-32.73c39.69-9.94,79.6-18.9,119.73-26.89
	c40.12-7.98,80.43-14.97,120.9-20.97c40.47-6.01,81.07-11.01,121.79-15.02c40.71-4.01,81.51-7.02,122.37-9.03
	C2418.2,1.01,2459.08,0,2500,0c40.92,0,81.8,1.01,122.67,3.01c40.87,2.01,81.66,5.02,122.38,9.03s81.31,9.02,121.79,15.02
	c40.47,6,80.77,12.99,120.9,20.97c40.13,7.98,80.04,16.95,119.72,26.89c39.69,9.94,79.11,20.85,118.27,32.73
	c39.15,11.88,77.99,24.71,116.51,38.49c38.52,13.79,76.68,28.51,114.48,44.16c37.8,15.66,75.19,32.23,112.18,49.72
	c36.99,17.49,73.53,35.89,109.61,55.17c36.08,19.29,71.67,39.45,106.76,60.48c35.09,21.03,69.65,42.92,103.67,65.65
	c34.02,22.73,67.46,46.28,100.32,70.66c32.86,24.37,65.1,49.54,96.73,75.49c31.62,25.96,62.6,52.67,92.91,80.15
	c30.32,27.47,59.94,55.68,88.87,84.61c28.93,28.93,57.14,58.55,84.61,88.87c27.48,30.32,54.19,61.29,80.15,92.91
	c25.95,31.63,51.12,63.88,75.49,96.74c24.38,32.86,47.93,66.3,70.66,100.32c22.73,34.02,44.61,68.57,65.65,103.67
	c21.03,35.09,41.19,70.68,60.48,106.77c19.29,36.08,37.68,72.61,55.17,109.6c17.49,36.98,34.07,74.38,49.72,112.18
	c15.66,37.8,30.38,75.96,44.16,114.48c13.78,38.52,26.61,77.36,38.49,116.52c11.88,39.15,22.79,78.57,32.73,118.26
	c9.94,39.69,18.9,79.59,26.89,119.72c7.98,40.12,14.97,80.43,20.98,120.9c6,40.47,11.01,81.06,15.02,121.78
	c4.01,40.72,7.02,81.51,9.03,122.38C4999,2418.2,5000,2459.09,5000,2500z"/>
<g>
	<g transform="translate(945.340817, 2935.121633)">
		<g>
			<path class="st1" d="M1730.69-1066.91c-236.77,0-413.09,80.6-554.14,206.54l50.38-604.52h1244.3v-569.26H718.12L587.14-593.37
				l508.8,307.3c115.87-125.94,307.3-211.58,473.54-211.58c261.96,0,458.42,201.51,458.42,463.46
				c0,266.99-211.58,463.46-528.95,463.46c-272.04,0-579.33-70.53-846.33-408.05H536.77l-45.34,604.52
				c221.66,226.69,659.93,392.94,1042.79,392.94c664.97,0,1138.51-453.39,1138.51-1078.06
				C2672.73-633.67,2289.87-1066.91,1730.69-1066.91z"/>
		</g>
	</g>
</g>
</svg>
