<?xml version="1.0" encoding="utf-8"?>
<!-- Generator: Adobe Illustrator 26.0.1, SVG Export Plug-In . SVG Version: 6.00 Build 0)  -->
<svg version="1.1" id="Layer_1" xmlns="http://www.w3.org/2000/svg" xmlns:xlink="http://www.w3.org/1999/xlink" x="0px" y="0px"
	 viewBox="0 0 5000 5000" style="enable-background:new 0 0 5000 5000;" xml:space="preserve">
<style type="text/css">
	.st0{clip-path:url(#SVGID_00000013170538285951382870000014441510252077630638_);}
	.st1{fill:#DD9900;}
	.st2{clip-path:url(#SVGID_00000133500840300280665110000000974566617792868481_);}
	.st3{fill:#323232;}
</style>
<g>
	<defs>
		<path id="SVGID_1_" d="M2500.4,5000.8C1121.68,5000.8,0,3879.12,0,2500.4C0,1121.68,1121.68,0,2500.4,0
			c1378.72,0,2500.4,1121.68,2500.4,2500.4C5000.8,3879.12,3879.12,5000.8,2500.4,5000.8z M2500.4,210.26
			c-1262.79,0-2290.14,1027.33-2290.14,2290.14c0,1262.8,1027.35,2290.14,2290.14,2290.14
			c1262.78,0,2290.14-1027.34,2290.14-2290.14C4790.54,1237.59,3763.18,210.26,2500.4,210.26z"/>
	</defs>
	<clipPath id="SVGID_00000090981446025906995330000002630649680760770744_">
		<use xlink:href="#SVGID_1_"  style="overflow:visible;"/>
	</clipPath>
	<g style="clip-path:url(#SVGID_00000090981446025906995330000002630649680760770744_);">
		<rect x="-500" y="-500" class="st1" width="6000" height="6000"/>
	</g>
</g>
<g>
	<defs>
		<rect id="SVGID_00000046327832952897307630000012160464442007123337_" x="1161.33" y="1429.02" width="2676" height="2226"/>
	</defs>
	<clipPath id="SVGID_00000164476790450382683890000012191763807731961764_">
		<use xlink:href="#SVGID_00000046327832952897307630000012160464442007123337_"  style="overflow:visible;"/>
	</clipPath>
	<g style="clip-path:url(#SVGID_00000164476790450382683890000012191763807731961764_);">
		<path class="st3" d="M3689.46,1906.84h-450.09c-81.33,0-147.51,66.17-147.51,147.5v1453.4c0,81.33,66.17,147.5,147.51,147.5
			h450.09c81.33,0,147.5-66.17,147.5-147.5V2054.35C3836.96,1973.02,3770.79,1906.84,3689.46,1906.84z M3741.58,3507.74
			c0,28.74-23.39,52.12-52.12,52.12h-450.09c-28.74,0-52.13-23.39-52.13-52.12v-1453.4c0-28.74,23.39-52.13,52.13-52.13h450.09
			c28.74,0,52.12,23.39,52.12,52.13V3507.74z M2724.7,2319.36h-450.09c-81.33,0-147.51,66.16-147.51,147.49v1040.88
			c0,81.33,66.17,147.5,147.51,147.5h450.09c81.33,0,147.5-66.17,147.5-147.5V2466.86
			C2872.2,2385.53,2806.04,2319.36,2724.7,2319.36z M2776.83,3507.74c0,28.74-23.39,52.12-52.12,52.12h-450.09
			c-28.74,0-52.13-23.39-52.13-52.12V2466.86c0-28.74,23.39-52.12,52.13-52.12h450.09c28.74,0,52.12,23.39,52.12,52.12V3507.74z
			 M1759.94,2731.89h-450.08c-81.33,0-147.51,66.16-147.51,147.49v628.36c0,81.33,66.17,147.5,147.51,147.5h450.09
			c81.34,0,147.51-66.17,147.51-147.5v-628.36C1907.45,2798.05,1841.28,2731.89,1759.94,2731.89z M1812.07,3507.74
			c0,28.74-23.39,52.12-52.13,52.12h-450.08c-28.74,0-52.13-23.39-52.13-52.12v-628.36c0-28.74,23.39-52.12,52.13-52.12h450.09
			c28.75,0,52.14,23.39,52.14,52.12v628.36H1812.07z M2998.96,1429.02h-345.85c-26.34,0-47.68,21.34-47.68,47.69
			s21.34,47.69,47.68,47.69h233.59l-503.1,483.76l-310.92-229.75c-19.21-14.2-45.97-11.99-62.59,5.18l-755.27,780.07
			c-18.32,18.92-17.84,49.11,1.08,67.43c9.27,8.97,21.22,13.42,33.17,13.42c12.46,0,24.91-4.85,34.27-14.52l726.24-750.07
			l309.74,228.86c18.69,13.81,44.64,12.12,61.39-3.98l530.58-510.18v242.4c0,26.34,21.34,47.69,47.69,47.69s47.69-21.35,47.69-47.69
			v-360.31C3046.65,1450.36,3025.3,1429.02,2998.96,1429.02z"/>
	</g>
</g>
</svg>
