<?xml version="1.0" encoding="UTF-8"?>
<!DOCTYPE svg PUBLIC "-//W3C//DTD SVG 1.1//EN" "http://www.w3.org/Graphics/SVG/1.1/DTD/svg11.dtd">
<svg xmlns="http://www.w3.org/2000/svg" version="1.1" width="4088px" height="4088px" style="shape-rendering:geometricPrecision; text-rendering:geometricPrecision; image-rendering:optimizeQuality; fill-rule:evenodd; clip-rule:evenodd" xmlns:xlink="http://www.w3.org/1999/xlink">
<g><path style="opacity:0.997" fill="#1c60f8" d="M 1962.5,-0.5 C 2016.83,-0.5 2071.17,-0.5 2125.5,-0.5C 2568.75,21.1414 2964.08,167.641 3311.5,439C 3592.52,663.235 3801.69,941.402 3939,1273.5C 4026.39,1489.72 4075.89,1714.39 4087.5,1947.5C 4087.5,2011.83 4087.5,2076.17 4087.5,2140.5C 4062.45,2588.41 3910.28,2986.07 3631,3333.5C 3400.05,3614.25 3115.22,3821.09 2776.5,3954C 2571.59,4032.06 2359.59,4076.56 2140.5,4087.5C 2076.17,4087.5 2011.83,4087.5 1947.5,4087.5C 1527.71,4064.21 1150.37,3928.05 815.5,3679C 523.8,3457.09 305.3,3177.92 160,2841.5C 63.5653,2612.61 10.0653,2373.94 -0.5,2125.5C -0.5,2070.83 -0.5,2016.17 -0.5,1961.5C 21.3623,1519.14 167.529,1124.47 438,777.5C 674.593,481.444 969.759,265.277 1323.5,129C 1529.58,51.9143 1742.58,8.7476 1962.5,-0.5 Z M 1995.5,172.5 C 2405.45,165.589 2778.12,277.756 3113.5,509C 3427.21,731.112 3654.04,1021.61 3794,1380.5C 3923.87,1729.42 3949.53,2086.09 3871,2450.5C 3792.94,2788.03 3635.94,3082.03 3400,3332.5C 3164.92,3577.2 2883.76,3747.7 2556.5,3844C 2183,3947.42 1812.34,3938.42 1444.5,3817C 1095.16,3695.04 805.33,3490.21 575,3202.5C 321.139,2877.39 187.139,2507.05 173,2091.5C 165.833,1679.69 278.833,1305.69 512,969.5C 717.459,681.338 981.959,466.171 1305.5,324C 1525.76,229.974 1755.76,179.474 1995.5,172.5 Z M 2641.5,1637.5 C 2768.5,1637.33 2895.5,1637.5 3022.5,1638C 3041.79,1642.29 3053.29,1654.13 3057,1673.5C 3057.67,2073.5 3057.67,2473.5 3057,2873.5C 3053.65,2889.85 3044.15,2901.02 3028.5,2907C 2899.2,2908.66 2769.87,2908.99 2640.5,2908C 2622.05,2903.61 2610.88,2892.11 2607,2873.5C 2606.33,2473.17 2606.33,2072.83 2607,1672.5C 2611.38,1653.62 2622.88,1641.96 2641.5,1637.5 Z M 1855.5,1974.5 C 1980.83,1974.33 2106.17,1974.5 2231.5,1975C 2251.44,1978.27 2263.61,1989.77 2268,2009.5C 2268.67,2297.83 2268.67,2586.17 2268,2874.5C 2264.57,2890.19 2255.41,2901.02 2240.5,2907C 2110.86,2908.66 1981.2,2908.99 1851.5,2908C 1832.82,2903.32 1821.65,2891.48 1818,2872.5C 1817.33,2585.5 1817.33,2298.5 1818,2011.5C 1822.09,1990.57 1834.59,1978.24 1855.5,1974.5 Z M 1063.5,2312.5 C 1190.83,2312.33 1318.17,2312.5 1445.5,2313C 1466.59,2317.76 1478.09,2330.93 1480,2352.5C 1480.67,2524.5 1480.67,2696.5 1480,2868.5C 1478.09,2890.07 1466.59,2903.24 1445.5,2908C 1317.83,2908.67 1190.17,2908.67 1062.5,2908C 1043.34,2903.17 1032.17,2891.01 1029,2871.5C 1028.33,2697.5 1028.33,2523.5 1029,2349.5C 1032.48,2329.53 1043.98,2317.2 1063.5,2312.5 Z"/></g>
<g><path style="opacity:0.987" fill="#313131" d="M 2160.5,1167.5 C 2260.5,1167.33 2360.5,1167.5 2460.5,1168C 2477.51,1172.35 2487.68,1183.18 2491,1200.5C 2491.67,1303.17 2491.67,1405.83 2491,1508.5C 2483.68,1534.14 2466.85,1544.64 2440.5,1540C 2426.67,1535.5 2417.5,1526.33 2413,1512.5C 2411.68,1443.88 2411.01,1375.21 2411,1306.5C 2265.86,1445.97 2120.69,1585.47 1975.5,1725C 1958.93,1735.1 1942.6,1734.77 1926.5,1724C 1843.19,1661.68 1759.52,1599.85 1675.5,1538.5C 1477.68,1742.49 1280.01,1946.65 1082.5,2151C 1066.29,2164.24 1048.96,2165.91 1030.5,2156C 1013.52,2141.57 1009.35,2124.07 1018,2103.5C 1021.62,2098.21 1025.62,2093.21 1030,2088.5C 1234.42,1878.75 1438.09,1668.41 1641,1457.5C 1655.31,1444.88 1671.48,1442.05 1689.5,1449C 1775.11,1511.61 1860.45,1574.61 1945.5,1638C 1946.76,1638.98 1948.09,1639.32 1949.5,1639C 2084.61,1508.06 2220.27,1377.56 2356.5,1247.5C 2289.46,1246.99 2222.46,1246.15 2155.5,1245C 2131.8,1233.74 2123.97,1215.58 2132,1190.5C 2137.86,1178.17 2147.36,1170.51 2160.5,1167.5 Z"/></g>
<g><path style="opacity:0.988" fill="#313131" d="M 2643.5,1557.5 C 2774.51,1557.03 2905.51,1557.53 3036.5,1559C 3093.94,1571.78 3127.44,1607.28 3137,1665.5C 3137.67,2070.83 3137.67,2476.17 3137,2881.5C 3128,2935.68 3097.16,2970.52 3044.5,2986C 3037.2,2987.22 3029.86,2988.22 3022.5,2989C 2895.5,2989.67 2768.5,2989.67 2641.5,2989C 2586.1,2983.26 2549.27,2954.1 2531,2901.5C 2529.51,2895.2 2528.17,2888.87 2527,2882.5C 2526.33,2476.5 2526.33,2070.5 2527,1664.5C 2533.82,1620.98 2556.65,1589.15 2595.5,1569C 2610.96,1562.3 2626.96,1558.47 2643.5,1557.5 Z M 2641.5,1637.5 C 2622.88,1641.96 2611.38,1653.62 2607,1672.5C 2606.33,2072.83 2606.33,2473.17 2607,2873.5C 2610.88,2892.11 2622.05,2903.61 2640.5,2908C 2769.87,2908.99 2899.2,2908.66 3028.5,2907C 3044.15,2901.02 3053.65,2889.85 3057,2873.5C 3057.67,2473.5 3057.67,2073.5 3057,1673.5C 3053.29,1654.13 3041.79,1642.29 3022.5,1638C 2895.5,1637.5 2768.5,1637.33 2641.5,1637.5 Z"/></g>
<g><path style="opacity:0.982" fill="#313131" d="M 1848.5,1894.5 C 1980.86,1894.01 2113.19,1894.51 2245.5,1896C 2288.9,1904.1 2320.07,1927.93 2339,1967.5C 2344.63,1981.63 2347.96,1996.3 2349,2011.5C 2349.67,2298.5 2349.67,2585.5 2349,2872.5C 2343.21,2931.25 2312.04,2969.08 2255.5,2986C 2248.2,2987.22 2240.86,2988.22 2233.5,2989C 2103.48,2989.98 1973.48,2989.65 1843.5,2988C 1798.72,2980.54 1766.55,2956.38 1747,2915.5C 1742.73,2904.17 1739.73,2892.51 1738,2880.5C 1737.33,2588.17 1737.33,2295.83 1738,2003.5C 1745.88,1950.29 1775.38,1915.46 1826.5,1899C 1833.98,1897.54 1841.31,1896.04 1848.5,1894.5 Z M 1855.5,1974.5 C 1834.59,1978.24 1822.09,1990.57 1818,2011.5C 1817.33,2298.5 1817.33,2585.5 1818,2872.5C 1821.65,2891.48 1832.82,2903.32 1851.5,2908C 1981.2,2908.99 2110.86,2908.66 2240.5,2907C 2255.41,2901.02 2264.57,2890.19 2268,2874.5C 2268.67,2586.17 2268.67,2297.83 2268,2009.5C 2263.61,1989.77 2251.44,1978.27 2231.5,1975C 2106.17,1974.5 1980.83,1974.33 1855.5,1974.5 Z"/></g>
<g><path style="opacity:0.989" fill="#313131" d="M 1067.5,2231.5 C 1196.18,2231.02 1324.85,2231.52 1453.5,2233C 1505.53,2241.69 1539.7,2271.19 1556,2321.5C 1557.85,2329.41 1559.18,2337.41 1560,2345.5C 1560.67,2522.5 1560.67,2699.5 1560,2876.5C 1553.17,2931.66 1523.34,2967.83 1470.5,2985C 1462.23,2986.72 1453.9,2988.05 1445.5,2989C 1318.17,2989.67 1190.83,2989.67 1063.5,2989C 1018.89,2985.12 985.385,2963.96 963,2925.5C 955.392,2910.74 950.725,2895.07 949,2878.5C 948.009,2697.48 948.342,2516.48 950,2335.5C 960.137,2285.03 989.637,2251.87 1038.5,2236C 1048.25,2234.04 1057.91,2232.54 1067.5,2231.5 Z M 1063.5,2312.5 C 1043.98,2317.2 1032.48,2329.53 1029,2349.5C 1028.33,2523.5 1028.33,2697.5 1029,2871.5C 1032.17,2891.01 1043.34,2903.17 1062.5,2908C 1190.17,2908.67 1317.83,2908.67 1445.5,2908C 1466.59,2903.24 1478.09,2890.07 1480,2868.5C 1480.67,2696.5 1480.67,2524.5 1480,2352.5C 1478.09,2330.93 1466.59,2317.76 1445.5,2313C 1318.17,2312.5 1190.83,2312.33 1063.5,2312.5 Z"/></g>
</svg>
