<?xml version="1.0" encoding="UTF-8"?>
<!DOCTYPE svg PUBLIC "-//W3C//DTD SVG 1.1//EN" "http://www.w3.org/Graphics/SVG/1.1/DTD/svg11.dtd">
<svg xmlns="http://www.w3.org/2000/svg" version="1.1" width="4088px" height="4088px" style="shape-rendering:geometricPrecision; text-rendering:geometricPrecision; image-rendering:optimizeQuality; fill-rule:evenodd; clip-rule:evenodd" xmlns:xlink="http://www.w3.org/1999/xlink">
<g><path style="opacity:0.997" fill="#1c60f8" d="M 1962.5,-0.5 C 2016.83,-0.5 2071.17,-0.5 2125.5,-0.5C 2568.75,21.1414 2964.08,167.641 3311.5,439C 3592.52,663.235 3801.69,941.402 3939,1273.5C 4026.39,1489.72 4075.89,1714.39 4087.5,1947.5C 4087.5,2011.83 4087.5,2076.17 4087.5,2140.5C 4062.45,2588.41 3910.28,2986.07 3631,3333.5C 3400.05,3614.25 3115.22,3821.09 2776.5,3954C 2571.59,4032.06 2359.59,4076.56 2140.5,4087.5C 2076.17,4087.5 2011.83,4087.5 1947.5,4087.5C 1527.71,4064.21 1150.37,3928.05 815.5,3679C 523.8,3457.09 305.3,3177.92 160,2841.5C 63.5653,2612.61 10.0653,2373.94 -0.5,2125.5C -0.5,2070.83 -0.5,2016.17 -0.5,1961.5C 21.3623,1519.14 167.529,1124.47 438,777.5C 674.593,481.444 969.759,265.277 1323.5,129C 1529.58,51.9143 1742.58,8.7476 1962.5,-0.5 Z M 1995.5,172.5 C 2405.45,165.589 2778.12,277.756 3113.5,509C 3427.21,731.112 3654.04,1021.61 3794,1380.5C 3923.87,1729.42 3949.53,2086.09 3871,2450.5C 3792.94,2788.03 3635.94,3082.03 3400,3332.5C 3164.95,3577.19 2883.78,3747.69 2556.5,3844C 2183,3947.42 1812.34,3938.42 1444.5,3817C 1095.16,3695.04 805.33,3490.21 575,3202.5C 321.139,2877.39 187.139,2507.05 173,2091.5C 165.833,1679.69 278.833,1305.69 512,969.5C 717.459,681.338 981.959,466.171 1305.5,324C 1525.76,229.974 1755.76,179.474 1995.5,172.5 Z M 2574.5,2062.5 C 2575.68,2062.28 2576.68,2062.61 2577.5,2063.5C 2569.67,2078.5 2560.84,2092.84 2551,2106.5C 2551.08,2095.82 2551.75,2085.16 2553,2074.5C 2558.63,2072.38 2564.13,2069.88 2569.5,2067C 2571.62,2065.95 2573.28,2064.45 2574.5,2062.5 Z"/></g>
<g><path style="opacity:0.997" fill="#1e1f1e" d="M 1996.5,800.5 C 2054.95,796.902 2112.29,803.069 2168.5,819C 2205.66,830.243 2239,848.243 2268.5,873C 2313.16,866.846 2357.16,870.179 2400.5,883C 2439.12,894.191 2475.45,910.191 2509.5,931C 2559.12,966.08 2594.95,1011.91 2617,1068.5C 2634.45,1115.98 2645.12,1164.98 2649,1215.5C 2650.57,1240.31 2651.4,1265.14 2651.5,1290C 2650.73,1334.24 2648.89,1378.4 2646,1422.5C 2655.63,1460.25 2661.79,1498.59 2664.5,1537.5C 2685.93,1546.75 2704.09,1560.42 2719,1578.5C 2741.02,1607.2 2756.68,1639.2 2766,1674.5C 2784.78,1748.85 2786.12,1823.52 2770,1898.5C 2761.97,1933.61 2748.3,1966.28 2729,1996.5C 2713.78,2019.4 2693.94,2036.9 2669.5,2049C 2665.81,2050.18 2662.15,2051.35 2658.5,2052.5C 2632.61,2124.9 2588.27,2183.4 2525.5,2228C 2502.24,2244.1 2477.57,2257.76 2451.5,2269C 2406.59,2317.58 2360.09,2364.41 2312,2409.5C 2313.22,2441.41 2316.89,2473.08 2323,2504.5C 2325.69,2515.26 2328.69,2525.92 2332,2536.5C 2333.14,2540.11 2334.81,2543.45 2337,2546.5C 2348.31,2561.97 2359.81,2577.31 2371.5,2592.5C 2374.17,2594.84 2377.17,2596.67 2380.5,2598C 2407.13,2608.65 2434.47,2617.32 2462.5,2624C 2523.33,2637.43 2584.67,2648.09 2646.5,2656C 2689.48,2661.19 2732.48,2666.19 2775.5,2671C 2824.13,2676.42 2871.13,2688.08 2916.5,2706C 2955.81,2723.1 2986.31,2750.27 3008,2787.5C 3022.45,2816.73 3032.79,2847.4 3039,2879.5C 3053.08,2952.18 3062.08,3025.51 3066,3099.5C 3068.47,3146.47 3070.3,3193.47 3071.5,3240.5C 3074.4,3255.62 3070.4,3268.46 3059.5,3279C 3055.08,3281.88 3050.41,3284.21 3045.5,3286C 2377.5,3286.67 1709.5,3286.67 1041.5,3286C 1028.33,3282.17 1019.83,3273.67 1016,3260.5C 1014.85,3147.54 1022.52,3035.21 1039,2923.5C 1044.33,2889.17 1052.33,2855.51 1063,2822.5C 1078.46,2775.07 1107.96,2739.24 1151.5,2715C 1193.61,2694.72 1237.95,2681.38 1284.5,2675C 1336.12,2668.34 1387.79,2662 1439.5,2656C 1508.21,2647.39 1576.21,2635.06 1643.5,2619C 1661.43,2614.1 1679.09,2608.44 1696.5,2602C 1698.29,2601.22 1699.79,2600.05 1701,2598.5C 1720.33,2572.5 1739.67,2546.5 1759,2520.5C 1767.34,2485.48 1772.5,2449.98 1774.5,2414C 1774.42,2412.11 1774.09,2410.27 1773.5,2408.5C 1719.23,2357.61 1667.06,2304.61 1617,2249.5C 1594.34,2222.84 1574.01,2194.51 1556,2164.5C 1540.82,2136.13 1532.99,2105.8 1532.5,2073.5C 1524.94,2071.05 1517.94,2067.55 1511.5,2063C 1502.17,2062.67 1492.83,2062.33 1483.5,2062C 1479.11,2060.87 1474.77,2059.54 1470.5,2058C 1425.33,2058.67 1389.5,2040.83 1363,2004.5C 1336.67,1966.47 1319.67,1924.47 1312,1878.5C 1300.49,1808.85 1303.49,1739.85 1321,1671.5C 1332.21,1630.56 1352.04,1594.73 1380.5,1564C 1392.87,1553.15 1406.54,1544.32 1421.5,1537.5C 1424.08,1510.02 1427.75,1482.69 1432.5,1455.5C 1418.31,1322.52 1426.14,1190.85 1456,1060.5C 1470.47,1002.75 1491.8,947.753 1520,895.5C 1527.26,885.201 1537.26,879.868 1550,879.5C 1563.89,882.26 1577.89,884.26 1592,885.5C 1603.58,884.598 1615.08,883.098 1626.5,881C 1664.13,869.54 1701.8,858.207 1739.5,847C 1823.97,824.239 1909.64,808.739 1996.5,800.5 Z M 2574.5,2062.5 C 2573.28,2064.45 2571.62,2065.95 2569.5,2067C 2564.13,2069.88 2558.63,2072.38 2553,2074.5C 2551.75,2085.16 2551.08,2095.82 2551,2106.5C 2560.84,2092.84 2569.67,2078.5 2577.5,2063.5C 2576.68,2062.61 2575.68,2062.28 2574.5,2062.5 Z"/></g>
<g><path style="opacity:1" fill="#fdfdfd" d="M 2290.5,940.5 C 2301.15,939.723 2311.81,939.39 2322.5,939.5C 2380.51,944.864 2433.51,963.697 2481.5,996C 2511.01,1019.18 2533.17,1048.01 2548,1082.5C 2570.93,1139.22 2581.93,1198.22 2581,1259.5C 2497.34,1112.83 2375.17,1013.67 2214.5,962C 2034.49,912.062 1866.16,937.396 1709.5,1038C 1618.53,1100.3 1547.36,1180.13 1496,1277.5C 1498.69,1211.04 1507.35,1145.37 1522,1080.5C 1533.12,1036.98 1548.28,994.981 1567.5,954.5C 1594.5,955.089 1621.17,952.589 1647.5,947C 1692.04,933.266 1736.7,919.933 1781.5,907C 1854.15,888.851 1927.82,876.518 2002.5,870C 2057.35,865.676 2110.69,872.343 2162.5,890C 2191.97,901.236 2217.64,918.236 2239.5,941C 2251.41,948.882 2263.74,949.549 2276.5,943C 2281.12,941.844 2285.79,941.01 2290.5,940.5 Z"/></g>
<g><path style="opacity:1" fill="#999999" d="M 2322.5,939.5 C 2311.81,939.39 2301.15,939.723 2290.5,940.5C 2296.59,938.986 2302.93,938.32 2309.5,938.5C 2314.01,938.501 2318.35,938.834 2322.5,939.5 Z"/></g>
<g><path style="opacity:1" fill="#fefefe" d="M 2007.5,1005.5 C 2163.4,998.999 2298.4,1048.17 2412.5,1153C 2491.89,1228.44 2545.89,1319.11 2574.5,1425C 2570.21,1458.88 2565.55,1492.71 2560.5,1526.5C 2557.5,1526.5 2554.5,1526.5 2551.5,1526.5C 2548.26,1483.8 2541.09,1441.8 2530,1400.5C 2509.8,1340.92 2472.3,1295.75 2417.5,1265C 2364.55,1236.07 2308.22,1226.07 2248.5,1235C 2217.64,1241.26 2191.31,1255.59 2169.5,1278C 2139.84,1297.26 2107.17,1307.59 2071.5,1309C 2042.73,1310.42 2014.06,1309.42 1985.5,1306C 1951.68,1300.59 1922.68,1285.93 1898.5,1262C 1873.24,1243.91 1844.9,1233.91 1813.5,1232C 1730.4,1228.68 1660.24,1256.85 1603,1316.5C 1575.7,1348.77 1557.7,1385.77 1549,1427.5C 1541.84,1460.11 1537.34,1493.11 1535.5,1526.5C 1528.14,1526.83 1520.8,1526.5 1513.5,1525.5C 1508.77,1501.98 1505.27,1478.31 1503,1454.5C 1537.2,1309.18 1614.03,1192.35 1733.5,1104C 1815.63,1046.12 1906.97,1013.28 2007.5,1005.5 Z"/></g>
<g><path style="opacity:1" fill="#fefefe" d="M 2162.5,2440.5 C 2150.52,2441.31 2138.52,2441.64 2126.5,2441.5C 2111.77,2440.82 2097.1,2439.49 2082.5,2437.5C 2070.69,2436.11 2058.69,2435.44 2046.5,2435.5C 2016.98,2435.16 1987.65,2437.33 1958.5,2442C 1945.11,2442.66 1931.78,2441.99 1918.5,2440C 1907.42,2437.46 1897.42,2432.79 1888.5,2426C 1869.2,2405.69 1849.53,2385.69 1829.5,2366C 1779,2319.5 1730.5,2271 1684,2220.5C 1667.19,2200.87 1650.85,2180.87 1635,2160.5C 1623.53,2144.69 1614.19,2127.69 1607,2109.5C 1603.01,2082.93 1600.35,2056.27 1599,2029.5C 1609.55,2015.34 1615.22,1999.34 1616,1981.5C 1616.67,1854.5 1616.67,1727.5 1616,1600.5C 1613.88,1586.35 1608.88,1573.35 1601,1561.5C 1601.51,1509.62 1609.51,1458.96 1625,1409.5C 1646.09,1360.41 1681.92,1327.25 1732.5,1310C 1764.91,1298.56 1797.91,1296.56 1831.5,1304C 1838.51,1305.89 1845.17,1308.56 1851.5,1312C 1880.86,1340.35 1915.53,1359.35 1955.5,1369C 1983.76,1375.83 2012.43,1378.66 2041.5,1377.5C 2091.22,1379.46 2138.56,1369.96 2183.5,1349C 2202.18,1338.99 2219.18,1326.66 2234.5,1312C 2255.59,1301.57 2277.93,1297.57 2301.5,1300C 2352.2,1304.44 2395.36,1324.6 2431,1360.5C 2438.33,1371.17 2445.67,1381.83 2453,1392.5C 2461.14,1408.38 2467.14,1425.05 2471,1442.5C 2479.57,1481.72 2484.23,1521.39 2485,1561.5C 2476.85,1573.93 2471.85,1587.6 2470,1602.5C 2469.33,1729.5 2469.33,1856.5 2470,1983.5C 2471.99,2001.34 2478.16,2017.51 2488.5,2032C 2485.42,2056.46 2482.59,2080.96 2480,2105.5C 2475.37,2119.13 2469.37,2132.13 2462,2144.5C 2445.98,2167.52 2428.81,2189.69 2410.5,2211C 2368.41,2227.81 2324.91,2238.65 2280,2243.5C 2266.79,2222.63 2247.95,2210.13 2223.5,2206C 2161.83,2205.33 2100.17,2205.33 2038.5,2206C 2002.34,2214.16 1980.17,2236.33 1972,2272.5C 1967.61,2314.72 1984.44,2344.88 2022.5,2363C 2028.45,2364.87 2034.45,2366.54 2040.5,2368C 2100.5,2368.67 2160.5,2368.67 2220.5,2368C 2254.03,2362.47 2276.7,2343.8 2288.5,2312C 2298.21,2310.55 2307.87,2309.21 2317.5,2308C 2294.78,2330.39 2271.78,2352.39 2248.5,2374C 2230.06,2392.44 2211.73,2410.77 2193.5,2429C 2183.6,2434.13 2173.27,2437.96 2162.5,2440.5 Z"/></g>
<g><path style="opacity:1" fill="#fefefe" d="M 1494.5,1594.5 C 1509.84,1594.33 1525.17,1594.5 1540.5,1595C 1544.09,1597.67 1546.59,1601.17 1548,1605.5C 1548.67,1730.17 1548.67,1854.83 1548,1979.5C 1547.42,1985.16 1544.92,1989.66 1540.5,1993C 1525.17,1993.67 1509.83,1993.67 1494.5,1993C 1491.16,1989.48 1488.99,1985.31 1488,1980.5C 1487.33,1855.5 1487.33,1730.5 1488,1605.5C 1489.56,1601.45 1491.73,1597.78 1494.5,1594.5 Z"/></g>
<g><path style="opacity:1" fill="#fcfcfc" d="M 2545.5,1594.5 C 2560.84,1594.33 2576.17,1594.5 2591.5,1595C 2595.71,1598.92 2598.21,1603.75 2599,1609.5C 2599.67,1732.17 2599.67,1854.83 2599,1977.5C 2598.21,1983.54 2595.71,1988.71 2591.5,1993C 2575.83,1993.67 2560.17,1993.67 2544.5,1993C 2540.62,1988.97 2538.45,1984.14 2538,1978.5C 2537.33,1854.83 2537.33,1731.17 2538,1607.5C 2539.45,1602.55 2541.95,1598.22 2545.5,1594.5 Z"/></g>
<g><path style="opacity:1" fill="#838383" d="M 1417.5,1627.5 C 1417.56,1626.96 1417.89,1626.62 1418.5,1626.5C 1419.83,1738.5 1419.83,1850.5 1418.5,1962.5C 1417.89,1962.38 1417.56,1962.04 1417.5,1961.5C 1418.83,1850.17 1418.83,1738.83 1417.5,1627.5 Z"/></g>
<g><path style="opacity:1" fill="#4a4b4a" d="M 2668.5,1626.5 C 2667.17,1738.17 2667.17,1849.83 2668.5,1961.5C 2668.44,1962.04 2668.11,1962.38 2667.5,1962.5C 2666.17,1850.17 2666.17,1737.83 2667.5,1625.5C 2668.11,1625.62 2668.44,1625.96 2668.5,1626.5 Z"/></g>
<g><path style="opacity:1" fill="#fdfdfd" d="M 2668.5,1626.5 C 2682.92,1647.22 2693.42,1669.88 2700,1694.5C 2716.96,1761.55 2716.62,1828.55 2699,1895.5C 2692.56,1919.34 2682.4,1941.34 2668.5,1961.5C 2667.17,1849.83 2667.17,1738.17 2668.5,1626.5 Z"/></g>
<g><path style="opacity:1" fill="#fdfdfd" d="M 1417.5,1627.5 C 1418.83,1738.83 1418.83,1850.17 1417.5,1961.5C 1400.51,1935.06 1388.68,1906.39 1382,1875.5C 1373.65,1828.05 1372.32,1780.38 1378,1732.5C 1382.28,1705.4 1389.94,1679.4 1401,1654.5C 1405.51,1644.8 1411.01,1635.8 1417.5,1627.5 Z"/></g>
<g><path style="opacity:1" fill="#fbfbfb" d="M 2046.5,2273.5 C 2102.5,2273.33 2158.5,2273.5 2214.5,2274C 2220.69,2276.02 2224.03,2280.35 2224.5,2287C 2223.73,2293.77 2220.06,2298.11 2213.5,2300C 2158.5,2300.67 2103.5,2300.67 2048.5,2300C 2042.09,2297.35 2039.09,2292.52 2039.5,2285.5C 2039.35,2280 2041.68,2276 2046.5,2273.5 Z"/></g>
<g><path style="opacity:1" fill="#636463" d="M 2046.5,2435.5 C 2058.69,2435.44 2070.69,2436.11 2082.5,2437.5C 2070.29,2437.78 2058.29,2437.12 2046.5,2435.5 Z"/></g>
<g><path style="opacity:1" fill="#616261" d="M 2162.5,2440.5 C 2161.39,2441.29 2160.06,2441.79 2158.5,2442C 2147.66,2442.83 2136.99,2442.66 2126.5,2441.5C 2138.52,2441.64 2150.52,2441.31 2162.5,2440.5 Z"/></g>
<g><path style="opacity:1" fill="#fdfdfd" d="M 1838.5,2473.5 C 1868.92,2498.59 1904.09,2510.93 1944,2510.5C 1964.57,2509.45 1985.07,2507.62 2005.5,2505C 2044.34,2502.72 2083.01,2504.38 2121.5,2510C 2159.16,2513.38 2194.49,2506.05 2227.5,2488C 2234.19,2483.65 2240.53,2478.82 2246.5,2473.5C 2247.19,2474.03 2247.69,2474.69 2248,2475.5C 2250.57,2487.81 2252.07,2500.14 2252.5,2512.5C 2181.22,2543.47 2109.88,2574.47 2038.5,2605.5C 1969.64,2575.57 1900.64,2545.91 1831.5,2516.5C 1833.76,2502.17 1836.09,2487.83 1838.5,2473.5 Z"/></g>
<g><path style="opacity:1" fill="#fdfdfd" d="M 1801.5,2578.5 C 1834.94,2592.05 1868.27,2605.88 1901.5,2620C 1927.09,2631.45 1952.75,2642.95 1978.5,2654.5C 1944.13,2690.04 1909.63,2725.37 1875,2760.5C 1835.69,2720.86 1796.69,2680.86 1758,2640.5C 1757.48,2638.71 1757.81,2637.04 1759,2635.5C 1773.38,2616.62 1787.55,2597.62 1801.5,2578.5 Z"/></g>
<g><path style="opacity:1" fill="#fdfdfd" d="M 2270.5,2578.5 C 2273.89,2578.19 2276.39,2579.52 2278,2582.5C 2291.42,2601.01 2305.09,2619.35 2319,2637.5C 2319.67,2638.5 2319.67,2639.5 2319,2640.5C 2279.6,2680.4 2240.43,2720.4 2201.5,2760.5C 2166.53,2725.53 2131.86,2690.19 2097.5,2654.5C 2155.07,2628.88 2212.73,2603.55 2270.5,2578.5 Z"/></g>
<g><path style="opacity:1" fill="#fefefe" d="M 2381.5,2673.5 C 2403.05,2679.75 2424.72,2685.75 2446.5,2691.5C 2355.49,2824.87 2264.49,2958.2 2173.5,3091.5C 2147.91,2995.22 2122.58,2898.89 2097.5,2802.5C 2105.75,2794.04 2114.41,2786.04 2123.5,2778.5C 2143.01,2798.51 2162.68,2818.35 2182.5,2838C 2195.68,2845.57 2208.68,2845.23 2221.5,2837C 2274.76,2782.25 2328.09,2727.75 2381.5,2673.5 Z"/></g>
<g><path style="opacity:1" fill="#fefefe" d="M 1693.5,2675.5 C 1694.87,2675.34 1696.21,2675.51 1697.5,2676C 1750.47,2730.64 1803.8,2784.97 1857.5,2839C 1870.53,2845.51 1883.2,2844.84 1895.5,2837C 1916.71,2816.29 1937.38,2795.12 1957.5,2773.5C 1967.54,2783.71 1977.38,2794.04 1987,2804.5C 1963.19,2900.63 1938.52,2996.63 1913,3092.5C 1822,2959.17 1731,2825.83 1640,2692.5C 1639.57,2691.4 1640.07,2690.73 1641.5,2690.5C 1659.13,2686.1 1676.46,2681.1 1693.5,2675.5 Z"/></g>
<g><path style="opacity:1" fill="#fbfbfb" d="M 2037.5,2691.5 C 2038.24,2691.37 2038.91,2691.54 2039.5,2692C 2051.32,2704.65 2063.32,2717.15 2075.5,2729.5C 2063.83,2740.17 2052.17,2750.83 2040.5,2761.5C 2028.68,2749.51 2017.01,2737.34 2005.5,2725C 2016.29,2714.04 2026.95,2702.88 2037.5,2691.5 Z"/></g>
<g><path style="opacity:1" fill="#fefefe" d="M 1915.5,3217.5 C 1638.83,3217.5 1362.17,3217.5 1085.5,3217.5C 1085.64,3201.5 1085.98,3185.5 1086.5,3169.5C 1088.43,3075.37 1097.93,2982.03 1115,2889.5C 1119.28,2865.66 1126.95,2842.99 1138,2821.5C 1153.69,2795.91 1175.52,2777.74 1203.5,2767C 1237.11,2754.27 1271.77,2745.6 1307.5,2741C 1350.14,2735.72 1392.8,2730.72 1435.5,2726C 1478.82,2720.52 1521.99,2714.02 1565,2706.5C 1567.15,2706.64 1568.82,2707.64 1570,2709.5C 1684.93,2879.04 1800.1,3048.37 1915.5,3217.5 Z"/></g>
<g><path style="opacity:1" fill="#fefefe" d="M 2999.5,3157.5 C 2999.61,3177.5 2999.94,3197.5 3000.5,3217.5C 2723.83,3217.67 2447.17,3217.5 2170.5,3217C 2286.12,3047.59 2401.62,2878.09 2517,2708.5C 2518.13,2707.06 2519.63,2706.39 2521.5,2706.5C 2596.13,2719.27 2671.13,2729.44 2746.5,2737C 2785.09,2741.48 2823.09,2748.82 2860.5,2759C 2885.58,2766.04 2907.92,2778.04 2927.5,2795C 2946.09,2814.01 2958.59,2836.51 2965,2862.5C 2981.19,2936.3 2991.52,3010.97 2996,3086.5C 2997.17,3110.17 2998.33,3133.84 2999.5,3157.5 Z"/></g>
<g><path style="opacity:1" fill="#fdfdfd" d="M 2042.5,2863.5 C 2044.13,2865.86 2045.3,2868.52 2046,2871.5C 2070.38,2968.32 2095.38,3064.98 2121,3161.5C 2121.67,3164.17 2121.67,3166.83 2121,3169.5C 2110.04,3185.25 2099.21,3201.08 2088.5,3217C 2058.16,3217.83 2027.83,3217.67 1997.5,3216.5C 1987.2,3201.03 1976.7,3185.7 1966,3170.5C 1965.04,3168.8 1964.54,3166.97 1964.5,3165C 1990.81,3064.58 2016.81,2964.08 2042.5,2863.5 Z"/></g>
<g><path style="opacity:1" fill="#9d9e9d" d="M 2999.5,3157.5 C 3001.39,3177.48 3001.72,3197.48 3000.5,3217.5C 2999.94,3197.5 2999.61,3177.5 2999.5,3157.5 Z"/></g>
<g><path style="opacity:1" fill="#474847" d="M 1086.5,3169.5 C 1085.98,3185.5 1085.64,3201.5 1085.5,3217.5C 1362.17,3217.5 1638.83,3217.5 1915.5,3217.5C 1638.67,3218.5 1361.67,3218.83 1084.5,3218.5C 1084.08,3201.96 1084.74,3185.63 1086.5,3169.5 Z"/></g>
</svg>
