<?xml version="1.0" encoding="utf-8"?>
<!-- Generator: Adobe Illustrator 26.0.1, SVG Export Plug-In . SVG Version: 6.00 Build 0)  -->
<svg version="1.1" id="Layer_1" xmlns="http://www.w3.org/2000/svg" xmlns:xlink="http://www.w3.org/1999/xlink" x="0px" y="0px"
	 viewBox="0 0 5000 5000" style="enable-background:new 0 0 5000 5000;" xml:space="preserve">
<style type="text/css">
	.st0{clip-path:url(#SVGID_00000168102861258480257040000013249741176916518289_);}
	.st1{fill:#DD9900;}
	.st2{fill:#FFFFFF;}
	.st3{fill:#1F1E1F;}
</style>
<g>
	<g>
		<defs>
			<path id="SVGID_1_" d="M2500.4,5000.8C1121.68,5000.8,0,3879.12,0,2500.4S1121.68,0,2500.4,0s2500.4,1121.68,2500.4,2500.4
				S3879.12,5000.8,2500.4,5000.8z M2500.4,210.26c-1262.79,0-2290.14,1027.33-2290.14,2290.14
				c0,1262.8,1027.35,2290.14,2290.14,2290.14c1262.78,0,2290.14-1027.33,2290.14-2290.14S3763.18,210.26,2500.4,210.26z"/>
		</defs>
		<clipPath id="SVGID_00000168826625543097309830000004963167007655837587_">
			<use xlink:href="#SVGID_1_"  style="overflow:visible;"/>
		</clipPath>
		<g style="clip-path:url(#SVGID_00000168826625543097309830000004963167007655837587_);">
			<rect x="-500" y="-500" class="st1" width="6000" height="6000"/>
		</g>
	</g>
</g>
<g>
	<g>
		<g>
			<path class="st2" d="M3689.03,3609.46c-29.86-196.57-54.76-270.94-327.48-302.59c-103.17-11.88-384.2-40.85-488.75-100.48
				c-104.47-59.72-87.79-358.4-87.79-358.4H2499.6h-285.42c0,0,16.68,298.68-87.87,358.4c-104.55,59.64-385.5,88.61-488.74,100.48
				c-272.73,31.65-297.62,106.01-327.48,302.59c-23.92,157.6-24.9,368.33-24.9,368.33H2499.6h1214.33
				C3713.93,3977.79,3712.95,3767.06,3689.03,3609.46z"/>
			<path class="st3" d="M3713.93,4019.44H1285.18c-11.06,0-21.64-4.44-29.54-12.28c-7.81-7.85-12.12-18.51-12.12-29.58
				c0.08-8.75,1.3-215.61,25.39-374.39c33.2-218.29,73.14-303.97,363.85-337.7l19.45-2.24c108.37-12.28,362.3-41.05,453.51-93.08
				c56.63-32.34,73.23-206.54,66.88-319.88c-0.65-11.43,3.5-22.62,11.31-30.96c7.89-8.3,18.88-13.02,30.27-13.02h570.84
				c11.47,0,22.46,4.72,30.27,13.02c7.89,8.3,11.96,19.52,11.39,30.92c-6.27,113.42,10.34,287.65,66.8,319.96
				c91.13,51.95,344.98,80.75,453.43,93.04l19.45,2.2c290.71,33.76,330.66,119.44,363.85,337.73
				c24.16,158.78,25.38,365.64,25.38,374.39c0.08,11.06-4.31,21.72-12.12,29.58C3735.65,4015.01,3725.08,4019.44,3713.93,4019.44z
				 M1327.57,3936.13h2344.05c-1.62-68.79-6.83-209.18-23.76-320.41c-27.09-177.94-36.13-237.91-291.12-267.48l-19.2-2.2
				c-123.18-13.95-379.31-43-485.33-103.49c-100.48-57.4-111.14-256.42-110.16-352.91h-484.84c0.98,96.5-9.76,295.51-110.25,352.91
				c-106.01,60.49-362.23,89.54-485.41,103.49l-19.2,2.2c-254.91,29.57-264.02,89.54-291.03,267.48
				C1334.4,3726.95,1329.2,3867.34,1327.57,3936.13z"/>
		</g>
	</g>
	<g>
		<g>
			<path class="st2" d="M3142.19,2102.38h-12.69c5.37-43.65,10.82-86.61,16.11-127.29c27.5-210.81,89.42-826.77-646.02-826.77
				s-673.6,615.95-646.1,826.77c5.29,40.68,10.74,83.64,16.19,127.29h-12.69c-111.95-82.79-121.31,133.44-74.69,207.35
				c38.65,61.18,39.54,67.81,62.81,135.14c17.17,49.71,45.81,56.26,69.65,50.89c3.01,29.41,5.62,55.08,7.4,75.5
				c10.34,113.66,283.55,341.32,345.38,412.51c58.01,66.8,154.75,40.76,185.75,39.38c31.33-1.47,46.3-2.28,46.3-2.28
				s14.89,0.81,46.21,2.28c31,1.38,127.74,27.42,185.75-39.38c61.92-71.19,335.05-298.85,345.3-412.51
				c1.87-20.42,4.47-46.09,7.49-75.58c23.92,5.45,52.48-1.1,69.64-50.81c23.27-67.33,24.09-73.96,62.82-135.14
				C3263.5,2235.82,3254.07,2019.59,3142.19,2102.38z"/>
			<path class="st3" d="M2617.32,3070.96c-22.62,0-42.96-2.6-57.77-4.47c-6.26-0.81-11.55-1.55-15.54-1.71l-44.42-2.2l-44.34,2.2
				c-4.07,0.16-9.36,0.9-15.62,1.71c-14.89,1.87-35.15,4.47-57.77,4.47c-62.24,0-111.22-20.14-145.72-59.88
				c-14.32-16.48-43.28-44.26-76.72-76.44c-147.51-141.74-270.28-266.63-278.75-359.62c-0.97-11.51-2.28-24.74-3.74-39.34
				c-24.33-6.79-53.54-26.2-71.19-77.17l-4.88-14.24c-18.22-52.97-20.58-59.76-53.78-112.24c-38.81-61.55-44.1-181.23-10.82-241.64
				c18.72-33.85,49.14-51.06,83.97-47.84c-2.69-21.11-5.37-41.86-8.06-62.04c-14.48-111.23-58.58-449.65,135.39-670.47
				c118.47-134.94,304.21-203.36,552.05-203.36c247.83,0,433.58,68.43,552.13,203.41c193.89,220.94,149.7,559.24,135.23,670.43
				c-2.6,20.17-5.29,40.92-7.98,62.08c34.74-3.38,65.26,13.96,83.97,47.8c33.28,60.49,27.91,180.18-10.9,241.61
				c-33.2,52.4-35.48,59.19-53.62,111.99l-5.04,14.53c-17.58,51.01-46.86,70.42-71.19,77.17c-1.47,14.65-2.77,27.87-3.82,39.38
				c-8.38,92.96-131.16,217.89-278.67,359.62c-33.44,32.18-62.32,59.92-76.64,76.4C2728.55,3050.82,2679.49,3070.96,2617.32,3070.96
				z M2499.6,2979.22c0.73,0,1.46,0,2.27,0.04l45.89,2.27c5.62,0.25,13.26,1.14,22.3,2.28c13.34,1.71,29.94,3.82,47.27,3.82
				c38,0,64.36-9.93,82.83-31.2c16.76-19.32,45.48-46.91,81.85-81.81c86.32-83.03,247.1-237.54,253.36-307.14
				c1.95-20.59,4.56-46.38,7.56-76.03c1.22-11.88,7.49-22.66,17.17-29.61c9.69-6.92,21.89-9.4,33.52-6.76
				c1.63,0.37,3.09,0.53,4.31,0.53c7.89,0,15.3-20.26,16.68-24.32l4.97-14.4c19.93-57.89,24.89-70.66,62.08-129.41
				c27.99-44.34,23.52-148.36,4.31-162.4c0,0.53-6.51,1.55-18.96,10.78c-7.16,5.33-15.86,8.17-24.82,8.17h-12.69
				c-11.88,0-23.27-5.12-31.16-14.03c-7.89-8.95-11.64-20.87-10.17-32.71c5.37-43.73,10.82-86.77,16.11-127.53
				c13.34-101.99,53.86-412.14-115.21-604.73c-101.95-116.15-266.63-175.05-489.48-175.05c-222.77,0-387.45,58.87-489.48,175.01
				c-168.99,192.5-128.63,502.78-115.29,604.73c5.29,40.72,10.74,83.8,16.19,127.53c1.47,11.88-2.2,23.76-10.09,32.71
				c-7.97,8.95-19.28,14.07-31.24,14.07h-12.69c-8.95,0-17.58-2.85-24.82-8.17c-13.91-10.29-20.34-10.41-20.42-10.41
				c-17.73,12.81-22.37,117.49,5.78,162.07c37.18,58.78,42.14,71.56,62.08,129.61l4.88,14.12c1.47,4.11,8.87,24.45,16.93,24.45
				c1.22,0,2.6-0.2,4.23-0.57c11.64-2.68,23.84-0.12,33.44,6.84c9.68,6.96,15.95,17.74,17.17,29.57c3.01,29.62,5.62,55.45,7.4,76
				c6.35,69.52,167.12,224.03,253.53,307.06c36.29,34.94,65.01,62.52,81.85,81.85c18.47,21.27,44.83,31.2,82.83,31.2
				c17.33,0,33.93-2.12,47.27-3.82c9.03-1.14,16.6-2.03,22.38-2.28l45.81-2.27C2498.05,2979.22,2498.86,2979.22,2499.6,2979.22z"/>
		</g>
	</g>
	<g>
		<g>
			<path class="st2" d="M2996.15,1148.32c-155.73-68.51-231.07-30.51-231.07-30.51l-0.08,0.16
				c-41.82-44.79-149.38-120.22-385.98-87.95c-328.54,44.87-360.92,118.3-482.8,89.58c0,0-53.46,93.36-78.35,212.76
				c-47.6,228.06-47.68,463.48,45.4,742.06c27.26,113.63,56.79,194.78,56.79,194.78s-31-403.11,30.92-562.38
				c62.32-159.47,279.48-194.05,351.98-124.36c72.33,69.65,196.65,61.55,196.65,61.55s124.24,8.1,196.57-61.55
				c61.1-58.79,224.88-43.04,312.19,58.99l28.72,42.02c3.99,7.57,7.81,15.21,11.06,23.35c62,159.27,31,562.38,31,562.38
				s67.45-185.42,92.67-388.59h0.08C3257.89,1372.6,3137.56,1210.61,2996.15,1148.32z"/>
			<path class="st3" d="M1920.05,2310.87c-17.17,0-33.03-10.66-39.13-27.42c-1.22-3.37-30.67-84.7-58.09-199.3
				c-85.59-255.48-100.4-498.18-45.73-760.29c25.96-124.44,80.71-220.9,82.99-224.97c9.11-16.03,27.74-24.17,45.72-19.85
				c50.86,11.96,83.56,2.07,148-18.35c66.31-20.99,157.03-49.75,319.59-71.93c39.78-5.45,78.27-8.21,114.23-8.21
				c153.94,0,242.46,50.32,288.43,90.35c13.18-2.89,30.59-5.25,52.31-5.25c55.25,0,117.41,14.97,184.53,44.51
				c210.65,92.79,274.19,339.81,200.07,777.42c-25.31,203.65-91.86,388.14-94.63,395.87c-7.16,19.57-27.74,30.8-48.01,26.49
				c-20.34-4.4-34.33-23.15-32.71-43.89c0.32-3.95,29.54-395.51-28.31-544.07c-2.28-5.82-5.13-11.43-8.06-17l-25.95-38.04
				c-41.01-46.74-108.95-76.89-173.87-76.89c-33.19,0-61.75,8.42-76.4,22.46c-68.83,66.31-172.16,73.47-213.42,73.47
				c-5.45,0-9.6-0.12-12.04-0.2c-2.52,0.08-6.59,0.2-12.13,0.2c-41.17,0-144.5-7.16-213.41-73.47
				c-14.73-14.12-43.45-22.54-76.89-22.54c-75.02,0-171.92,41.29-207.39,132.05c-53.21,136.81-32.63,479.27-28.72,536.02
				c0.98,3.58,1.55,7.32,1.55,11.19c0,23.03-18.71,41.66-41.66,41.66C1920.62,2310.95,1920.38,2310.91,1920.05,2310.87z
				 M1919.16,1165.98c-16.6,34.26-44.75,99.47-60.54,174.93c-44.26,212.07-40.11,410.84,13.59,617.46
				c3.66-99.83,14.48-201.17,39.95-266.63c49.71-127.21,182.58-185.1,285.01-185.1c56.14,0,103.9,16.27,134.65,45.81
				c48.41,46.58,131.4,50.2,155.65,50.2c5.54,0,8.95-0.17,9.52-0.2c1.71-0.12,3.58-0.04,5.29,0c0.49,0.04,3.91,0.2,9.36,0.2
				c24.33,0,107.32-3.62,155.65-50.16c30.68-29.5,78.35-45.77,134.17-45.77c90.4,0,181.76,41.25,238.56,107.68
				c0.98,1.14,1.87,2.32,2.69,3.54l28.8,42.02c0.9,1.38,1.79,2.81,2.52,4.27c4.64,8.83,9.11,17.78,12.86,27.29
				c21.89,56.23,32.95,138.81,38.08,224.2c2.03-13.31,3.9-26.73,5.53-40.23c87.95-519.42-44.1-641.91-151.09-689.06
				c-70.46-30.96-120.99-37.47-151.01-37.47c-26.85,0-41.74,5.09-44.83,6.27c-3.91,1.91-8.14,3.25-12.53,3.91
				c-13.43,2.03-27.18-2.73-36.45-12.73c-28.72-30.83-99.1-82.54-246.94-82.54c-32.22,0-66.88,2.52-103,7.44
				c-155.4,21.23-242.3,48.74-305.68,68.83C2019.64,1158.94,1974.16,1172.57,1919.16,1165.98z"/>
		</g>
	</g>
	<g>
		<path class="st3" d="M2639.37,2839.03c-22.94,0-41.66-18.67-41.66-41.66c0-23.02,18.71-41.66,41.66-41.66
			c216.1,0,372.48-52.6,464.74-156.25c105.77-118.87,89.66-268.05,89.5-269.52c-2.68-22.82,13.59-43.53,36.37-46.29
			c22.78-2.65,43.53,13.43,46.29,36.17c0.97,7.52,21.48,186.32-108.94,333.87C3058.72,2776.67,2881.02,2839.03,2639.37,2839.03z"/>
	</g>
	<g>
		<g>
			<path class="st2" d="M3359.51,2195.09c0-153.37-63.46-277.65-141.89-278.46v-0.12h-51.1v17.17
				c-57.68,39.05-103.9,141.17-103.9,261.42c0,120.17,46.22,222.32,103.9,261.38v17.17h51.1v-0.12
				C3296.05,2472.7,3359.51,2348.34,3359.51,2195.09z"/>
			<path class="st3" d="M3217.62,2515.3h-51.1c-21.89,0-39.87-16.97-41.5-38.49c-62.97-55.65-104.06-165.08-104.06-281.72
				s41.09-226.06,104.06-281.76c1.63-21.52,19.61-38.49,41.5-38.49h51.1c1.55,0,3.01,0.08,4.47,0.25
				c102.35,4.52,179.08,140.92,179.08,320c0,179.08-76.73,315.49-179.08,320C3220.63,2515.21,3219.16,2515.3,3217.62,2515.3z
				 M3200.29,2431.98h14.16c0.9-0.04,1.87-0.08,2.77-0.12c42.07-0.4,100.64-90.72,100.64-236.77c0-146.04-58.58-236.36-100.64-236.8
				c-0.9,0-1.87-0.04-2.77-0.12h-14.16c-2.85,3.87-6.35,7.28-10.41,10.01c-42.47,28.8-85.59,115.98-85.59,226.92
				c0,110.94,43.12,198.12,85.59,226.88C3193.94,2424.74,3197.44,2428.12,3200.29,2431.98z"/>
		</g>
		<g>
			<path class="st2" d="M3221.28,2414.94c0,36.37-23.59,65.82-52.89,65.82h-52.88c-29.21,0-52.88-29.46-52.88-65.82v-439.73
				c0-36.33,23.67-65.82,52.88-65.82h52.88c29.29,0,52.89,29.49,52.89,65.82V2414.94z"/>
			<path class="st3" d="M3168.39,2522.42h-52.88c-52.07,0-94.54-48.21-94.54-107.48v-439.73c0-59.27,42.47-107.48,94.54-107.48
				h52.88c52.16,0,94.55,48.21,94.55,107.48v439.73C3262.94,2474.21,3220.55,2522.42,3168.39,2522.42z M3115.51,1951.04
				c-2.77,0-11.23,8.59-11.23,24.17v439.73c0,15.62,8.46,24.17,11.23,24.17h52.88c2.85,0,11.23-8.54,11.23-24.17v-439.73
				c0-15.58-8.38-24.17-11.23-24.17H3115.51z"/>
		</g>
		<g>
			<path class="st2" d="M1639.59,2195.09c0-153.37,63.47-277.65,141.9-278.46v-0.12h51.09v17.17
				c57.77,39.05,103.9,141.17,103.9,261.42c0,120.17-46.13,222.32-103.9,261.38v17.17h-51.09v-0.12
				C1703.06,2472.7,1639.59,2348.34,1639.59,2195.09z"/>
			<path class="st3" d="M1832.58,2515.3h-51.09c-1.55,0-3.01-0.08-4.47-0.2c-102.36-4.52-179.08-140.92-179.08-320
				c0-179.08,76.72-315.52,179.16-320c1.47-0.16,2.93-0.25,4.39-0.25h51.09c21.97,0,39.95,16.97,41.58,38.49
				c62.89,55.69,103.98,165.12,103.98,281.76s-41.09,226.07-103.98,281.72C1872.53,2498.33,1854.55,2515.3,1832.58,2515.3z
				 M1784.66,2431.98h14.24c2.85-3.87,6.35-7.24,10.34-10.01c42.55-28.76,85.59-115.94,85.59-226.88
				c0-110.94-43.04-198.12-85.59-226.92c-3.99-2.73-7.49-6.14-10.34-10.01h-14.24c-0.89,0.08-1.79,0.12-2.77,0.12
				c-41.98,0.45-100.64,90.76-100.64,236.8c0,146.05,58.66,236.36,100.64,236.77C1782.87,2431.9,1783.77,2431.94,1784.66,2431.98z"
				/>
		</g>
		<g>
			<path class="st2" d="M1777.83,2414.94c0,36.37,23.67,65.82,52.88,65.82h52.88c29.21,0,52.89-29.46,52.89-65.82v-439.73
				c0-36.33-23.68-65.82-52.89-65.82h-52.88c-29.21,0-52.88,29.49-52.88,65.82V2414.94z"/>
			<path class="st3" d="M1883.6,2522.42h-52.88c-52.07,0-94.54-48.21-94.54-107.48v-439.73c0-59.27,42.47-107.48,94.54-107.48h52.88
				c52.16,0,94.55,48.21,94.55,107.48v439.73C1978.14,2474.21,1935.75,2522.42,1883.6,2522.42z M1830.71,1951.04
				c-2.77,0-11.23,8.59-11.23,24.17v439.73c0,15.62,8.46,24.17,11.23,24.17h52.88c2.85,0,11.23-8.54,11.23-24.17v-439.73
				c0-15.58-8.38-24.17-11.23-24.17H1830.71z"/>
		</g>
		<g>
			<path class="st3" d="M3218.27,1980.3c-22.95,0-41.66-18.63-41.66-41.66c0-390.7-303.73-708.59-677.01-708.59
				c-373.29,0-677.02,317.89-677.02,708.59c0,23.02-18.63,41.66-41.66,41.66c-23.02,0-41.66-18.63-41.66-41.66
				c0-436.67,341.07-791.9,760.33-791.9c419.26,0,760.33,355.23,760.33,791.9C3259.93,1961.66,3241.29,1980.3,3218.27,1980.3z"/>
		</g>
	</g>
	<g>
		<path class="st2" d="M2762.56,2798.27c0,31.65-25.55,57.2-57.12,57.2h-195.35c-31.57,0-57.2-25.55-57.2-57.2v-1.79
			c0-31.57,25.63-57.2,57.2-57.2h195.35c31.57,0,57.12,25.63,57.12,57.2V2798.27z"/>
		<path class="st3" d="M2705.44,2897.13h-195.35c-54.51,0-98.85-44.34-98.85-98.86c0-56.3,44.34-100.64,98.85-100.64h195.35
			c54.51,0,98.77,44.34,98.77,98.86C2804.22,2852.79,2759.96,2897.13,2705.44,2897.13z M2510.09,2780.94
			c-8.54,0-15.54,6.96-15.54,15.54c0,10.33,6.99,17.33,15.54,17.33h195.35c8.54,0,15.46-7,15.46-15.54
			c0-10.37-6.92-17.33-15.46-17.33H2510.09z"/>
	</g>
	<g>
		<path class="st2" d="M2493.57,3232.51l-302.1-130.35h-0.16c-13.26,46.54-33.61,86.25-65.01,104.23
			c-104.55,59.64-385.5,88.61-488.74,100.48c-272.73,31.65-297.62,106.01-327.48,302.59c-23.92,157.6-24.9,368.33-24.9,368.33
			H2499.6h1214.33c0,0-0.97-210.73-24.89-368.33c-29.86-196.57-54.76-270.94-327.48-302.59c-103.17-11.88-384.2-40.85-488.75-100.48
			c-31.41-17.98-51.66-57.69-64.93-104.14l-0.16-0.08L2493.57,3232.51z"/>
		<path class="st3" d="M3714.82,4019.44c-0.32,0-0.57-0.04-0.9,0H1285.18c-11.06,0-21.64-4.44-29.54-12.28
			c-7.81-7.85-12.12-18.51-12.12-29.58c0.08-8.75,1.3-215.61,25.39-374.39c33.2-218.29,73.14-303.97,363.85-337.7l19.45-2.24
			c108.37-12.28,362.3-41.05,453.51-93.08c17.65-10.09,33.85-38.32,45.56-79.45c6.67-23.35,34.42-36.45,56.71-26.81l285.9,123.34
			l297.87-123.59c12.94-5.29,27.58-3.9,39.14,3.87c8.21,5.45,14.32,13.75,17,23.27c11.71,41.09,27.91,69.28,45.64,79.41
			c91.04,51.95,344.9,80.75,453.35,93.04l19.45,2.2c290.71,33.76,330.66,119.44,363.85,337.73
			c21.72,142.71,24.89,324.27,25.3,365.89c0.65,2.81,0.97,5.74,0.97,8.71C3756.48,4000.77,3737.77,4019.44,3714.82,4019.44z
			 M1327.57,3936.13h2344.05c-1.62-68.79-6.83-209.18-23.76-320.41c-27.09-177.94-36.13-237.91-291.12-267.48l-19.2-2.2
			c-123.18-13.95-379.31-43-485.33-103.49c-28.89-16.52-51.66-44.55-69.08-85.11l-273.54,113.54c-10.41,4.27-22.13,4.19-32.46-0.25
			l-261.33-112.73c-17.33,40.23-40.03,68.06-68.75,84.49c-106.1,60.53-362.31,89.58-485.49,103.53l-19.2,2.2
			c-254.91,29.57-264.02,89.54-291.03,267.48C1334.4,3726.95,1329.2,3867.34,1327.57,3936.13z"/>
	</g>
	<g>
		<polygon class="st2" points="2514.32,3393.6 2499.6,3372.94 2484.79,3393.6 2339.72,3952.08 2422.63,3977.79 2499.6,3977.79 
			2576.48,3977.79 2659.39,3952.08 		"/>
		<path class="st3" d="M2576.48,4019.44h-153.86c-4.15,0-8.3-0.65-12.28-1.87l-82.91-25.71c-21.32-6.59-33.6-28.72-27.99-50.28
			l145.07-558.47c1.3-4.92,3.42-9.6,6.43-13.75l14.73-20.67c7.81-10.94,20.5-17.41,33.93-17.41l0,0c13.51,0,26.11,6.51,33.93,17.45
			l14.73,20.67c2.93,4.15,5.13,8.79,6.35,13.71l145.15,558.47c5.62,21.56-6.75,43.69-27.99,50.28l-82.91,25.71
			C2584.86,4018.79,2580.71,4019.44,2576.48,4019.44z M2428.97,3936.13h141.25l38.89-12.08l-109.51-421.54l-109.52,421.54
			L2428.97,3936.13z"/>
	</g>
	<g>
		<path class="st2" d="M1936.49,3264.48L1936.49,3264.48c-112.85,22.13-237.34,35.31-298.93,42.39
			c-272.73,31.65-297.62,106.01-327.48,302.59c-23.92,157.6-24.9,368.33-24.9,368.33h1137.45L1936.49,3264.48z"/>
		<path class="st3" d="M2422.63,4019.44H1285.18c-11.06,0-21.64-4.44-29.45-12.28c-7.89-7.85-12.21-18.51-12.21-29.58
			c0.08-8.75,1.3-215.61,25.39-374.39c33.2-218.29,73.14-303.97,363.85-337.7l18.71-2.15c65.9-7.44,176.23-19.97,277.04-39.75
			c16.27-3.25,33.03,3.62,42.39,17.41l486.14,713.3c8.71,12.77,9.68,29.29,2.44,42.92
			C2452.24,4010.9,2438.08,4019.44,2422.63,4019.44z M1327.57,3936.13h1016.3l-426.42-625.68c-96.09,17.5-195.27,28.72-256.61,35.68
			l-18.47,2.12c-254.91,29.57-264.02,89.54-291.03,267.48C1334.4,3727.07,1329.2,3867.38,1327.57,3936.13z"/>
	</g>
	<g>
		<path class="st2" d="M3713.93,3977.79c0,0-0.97-210.73-24.89-368.33c-29.86-196.57-54.76-270.94-327.48-302.59
			c-61.51-7.08-186.08-20.26-298.93-42.39l0,0l-486.14,713.31H3713.93z"/>
		<path class="st3" d="M3713.93,4019.44H2576.48c-15.38,0-29.62-8.54-36.78-22.21c-7.24-13.63-6.34-30.15,2.36-42.92l486.14-713.3
			c9.44-13.79,26.2-20.71,42.47-17.41c100.73,19.73,210.98,32.26,276.88,39.75l18.8,2.12c290.71,33.76,330.66,119.44,363.85,337.73
			c24.16,158.78,25.38,365.64,25.38,374.39c0.08,11.06-4.31,21.72-12.12,29.58C3735.65,4015.01,3725.08,4019.44,3713.93,4019.44z
			 M2655.32,3936.13h1016.3c-1.62-68.79-6.83-209.18-23.76-320.41c-27.09-177.94-36.13-237.91-291.12-267.48l-18.63-2.12
			c-61.35-6.96-160.45-18.23-256.37-35.68L2655.32,3936.13z"/>
	</g>
	<g>
		<polygon class="st2" points="2395.61,3332.91 2493.57,3436.89 2607.73,3332.91 2493.57,3232.51 		"/>
		<path class="st3" d="M2493.57,3478.55c-11.06,0-22.13-4.39-30.26-13.1l-97.96-103.98c-15.3-16.28-15.13-41.7,0.49-57.65
			l97.96-100.4c15.46-15.9,40.68-16.84,57.36-2.2l114.15,100.4c8.87,7.81,13.99,19.08,14.08,30.92c0.16,11.84-4.8,23.19-13.59,31.16
			l-114.15,103.98C2513.67,3474.93,2503.66,3478.55,2493.57,3478.55z M2453.38,3333.39l42.47,45.11l49.47-45.07l-49.55-43.53
			L2453.38,3333.39z"/>
	</g>
	<g>
		<polygon class="st2" points="2493.57,3232.51 2294.07,3436.89 2094.57,3232.51 2191.48,3102.16 		"/>
		<path class="st3" d="M2294.07,3478.55c-11.23,0-21.97-4.56-29.78-12.57l-199.5-204.38c-14.32-14.65-15.87-37.51-3.66-53.94
			l96.9-130.34c11.47-15.5,32.14-21.12,49.96-13.38l302.1,130.34c12.61,5.41,21.72,16.68,24.41,30.14
			c2.6,13.47-1.46,27.38-11.06,37.18l-199.5,204.38C2316.04,3473.99,2305.3,3478.55,2294.07,3478.55z M2149.25,3228.8l144.83,148.45
			l127.41-130.5l-216.27-93.28L2149.25,3228.8z"/>
	</g>
	<g>
		<polygon class="st2" points="2493.57,3232.51 2693.15,3436.89 2892.57,3232.51 2795.75,3102.16 		"/>
		<path class="st3" d="M2693.15,3478.55c-11.23,0-21.97-4.56-29.78-12.57l-199.58-204.38c-9.6-9.81-13.75-23.72-11.06-37.18
			c2.68-13.46,11.8-24.73,24.41-30.19l302.18-130.34c17.65-7.61,38.4-2.07,49.88,13.43l96.82,130.34
			c12.21,16.43,10.66,39.3-3.58,53.94l-199.5,204.38C2715.12,3473.99,2704.39,3478.55,2693.15,3478.55z M2565.74,3246.75
			l127.41,130.5l144.83-148.45l-55.98-75.34L2565.74,3246.75z"/>
	</g>
</g>
</svg>
