<?xml version="1.0" encoding="UTF-8"?>
<!DOCTYPE svg PUBLIC "-//W3C//DTD SVG 1.1//EN" "http://www.w3.org/Graphics/SVG/1.1/DTD/svg11.dtd">
<svg xmlns="http://www.w3.org/2000/svg" version="1.1" width="4088px" height="4088px" style="shape-rendering:geometricPrecision; text-rendering:geometricPrecision; image-rendering:optimizeQuality; fill-rule:evenodd; clip-rule:evenodd" xmlns:xlink="http://www.w3.org/1999/xlink">
<g><path style="opacity:0.997" fill="#1c60f8" d="M 1962.5,-0.5 C 2016.83,-0.5 2071.17,-0.5 2125.5,-0.5C 2568.75,21.1414 2964.08,167.641 3311.5,439C 3592.52,663.235 3801.69,941.402 3939,1273.5C 4026.39,1489.72 4075.89,1714.39 4087.5,1947.5C 4087.5,2011.83 4087.5,2076.17 4087.5,2140.5C 4062.45,2588.41 3910.28,2986.07 3631,3333.5C 3400.05,3614.25 3115.22,3821.09 2776.5,3954C 2571.59,4032.06 2359.59,4076.56 2140.5,4087.5C 2076.17,4087.5 2011.83,4087.5 1947.5,4087.5C 1527.71,4064.21 1150.37,3928.05 815.5,3679C 523.8,3457.09 305.3,3177.92 160,2841.5C 63.5653,2612.61 10.0653,2373.94 -0.5,2125.5C -0.5,2070.83 -0.5,2016.17 -0.5,1961.5C 21.3623,1519.14 167.529,1124.47 438,777.5C 674.593,481.444 969.759,265.277 1323.5,129C 1529.58,51.9143 1742.58,8.7476 1962.5,-0.5 Z M 1995.5,172.5 C 2405.45,165.589 2778.12,277.756 3113.5,509C 3427.21,731.112 3654.04,1021.61 3794,1380.5C 3923.87,1729.42 3949.53,2086.09 3871,2450.5C 3792.94,2788.03 3635.94,3082.03 3400,3332.5C 3164.95,3577.19 2883.78,3747.69 2556.5,3844C 2183,3947.42 1812.34,3938.42 1444.5,3817C 1095.16,3695.04 805.33,3490.21 575,3202.5C 321.139,2877.39 187.139,2507.05 173,2091.5C 165.833,1679.69 278.833,1305.69 512,969.5C 717.459,681.338 981.959,466.171 1305.5,324C 1525.76,229.974 1755.76,179.474 1995.5,172.5 Z M 1186.5,1131.5 C 1757.83,1131.33 2329.17,1131.5 2900.5,1132C 2925.36,1136.19 2942.53,1150.02 2952,1173.5C 2953,1178.17 2954,1182.83 2955,1187.5C 2955.5,1573.83 2955.67,1960.17 2955.5,2346.5C 2347.5,2346.5 1739.5,2346.5 1131.5,2346.5C 1131.33,1959.83 1131.5,1573.17 1132,1186.5C 1135.73,1162.76 1148.57,1145.93 1170.5,1136C 1175.96,1134.47 1181.29,1132.97 1186.5,1131.5 Z M 1131.5,2432.5 C 1739.5,2432.5 2347.5,2432.5 2955.5,2432.5C 2955.67,2453.84 2955.5,2475.17 2955,2496.5C 2948.8,2529.03 2929.3,2547.53 2896.5,2552C 2612.17,2552.17 2327.83,2552.33 2043.5,2552.5C 1759.17,2552.33 1474.83,2552.17 1190.5,2552C 1158.14,2547.64 1138.64,2529.47 1132,2497.5C 1131.5,2475.84 1131.33,2454.17 1131.5,2432.5 Z M 1832.5,2638.5 C 1973.17,2638.5 2113.83,2638.5 2254.5,2638.5C 2254.5,2683.17 2254.5,2727.83 2254.5,2772.5C 2113.83,2772.5 1973.17,2772.5 1832.5,2772.5C 1832.5,2727.83 1832.5,2683.17 1832.5,2638.5 Z M 1705.5,2859.5 C 1930.83,2859.33 2156.17,2859.5 2381.5,2860C 2412.12,2866.62 2429.62,2885.46 2434,2916.5C 2434.5,2929.5 2434.67,2942.5 2434.5,2955.5C 2173.83,2955.5 1913.17,2955.5 1652.5,2955.5C 1652.33,2942.16 1652.5,2928.83 1653,2915.5C 1658.01,2885 1675.51,2866.33 1705.5,2859.5 Z"/></g>
<g><path style="opacity:0.987" fill="#313131" d="M 1182.5,1044.5 C 1756.5,1044.33 2330.5,1044.5 2904.5,1045C 2966.08,1052.36 3008.92,1084.52 3033,1141.5C 3038.19,1155.37 3041.19,1169.7 3042,1184.5C 3042.67,1622.83 3042.67,2061.17 3042,2499.5C 3035.7,2558.63 3005.87,2601.13 2952.5,2627C 2938.39,2632.86 2923.73,2636.53 2908.5,2638C 2719.51,2639.48 2530.51,2639.98 2341.5,2639.5C 2341.5,2683.83 2341.5,2728.17 2341.5,2772.5C 2393.96,2765.71 2439.46,2780.05 2478,2815.5C 2505.14,2843.56 2519.48,2877.22 2521,2916.5C 2521.5,2958.5 2521.67,3000.5 2521.5,3042.5C 2202.83,3042.5 1884.17,3042.5 1565.5,3042.5C 1565.33,2999.17 1565.5,2955.83 1566,2912.5C 1571.11,2852.75 1600.61,2809.91 1654.5,2784C 1666.75,2778.95 1679.42,2775.28 1692.5,2773C 1710.14,2771.74 1727.81,2771.24 1745.5,2771.5C 1745.5,2727.5 1745.5,2683.5 1745.5,2639.5C 1561.17,2639.67 1376.83,2639.5 1192.5,2639C 1124.91,2635.14 1078.41,2601.98 1053,2539.5C 1048.71,2527.18 1046.04,2514.52 1045,2501.5C 1044.33,2061.83 1044.33,1622.17 1045,1182.5C 1051.52,1124.34 1081.02,1082.5 1133.5,1057C 1149.34,1050.46 1165.67,1046.29 1182.5,1044.5 Z M 1186.5,1131.5 C 1181.29,1132.97 1175.96,1134.47 1170.5,1136C 1148.57,1145.93 1135.73,1162.76 1132,1186.5C 1131.5,1573.17 1131.33,1959.83 1131.5,2346.5C 1739.5,2346.5 2347.5,2346.5 2955.5,2346.5C 2955.67,1960.17 2955.5,1573.83 2955,1187.5C 2954,1182.83 2953,1178.17 2952,1173.5C 2942.53,1150.02 2925.36,1136.19 2900.5,1132C 2329.17,1131.5 1757.83,1131.33 1186.5,1131.5 Z M 1131.5,2432.5 C 1131.33,2454.17 1131.5,2475.84 1132,2497.5C 1138.64,2529.47 1158.14,2547.64 1190.5,2552C 1474.83,2552.17 1759.17,2552.33 2043.5,2552.5C 2327.83,2552.33 2612.17,2552.17 2896.5,2552C 2929.3,2547.53 2948.8,2529.03 2955,2496.5C 2955.5,2475.17 2955.67,2453.84 2955.5,2432.5C 2347.5,2432.5 1739.5,2432.5 1131.5,2432.5 Z M 1832.5,2638.5 C 1832.5,2683.17 1832.5,2727.83 1832.5,2772.5C 1973.17,2772.5 2113.83,2772.5 2254.5,2772.5C 2254.5,2727.83 2254.5,2683.17 2254.5,2638.5C 2113.83,2638.5 1973.17,2638.5 1832.5,2638.5 Z M 1705.5,2859.5 C 1675.51,2866.33 1658.01,2885 1653,2915.5C 1652.5,2928.83 1652.33,2942.16 1652.5,2955.5C 1913.17,2955.5 2173.83,2955.5 2434.5,2955.5C 2434.67,2942.5 2434.5,2929.5 2434,2916.5C 2429.62,2885.46 2412.12,2866.62 2381.5,2860C 2156.17,2859.5 1930.83,2859.33 1705.5,2859.5 Z"/></g>
</svg>
