<?xml version="1.0" encoding="utf-8"?>
<!-- Generator: Adobe Illustrator 26.0.1, SVG Export Plug-In . SVG Version: 6.00 Build 0)  -->
<svg version="1.1" id="Layer_1" xmlns="http://www.w3.org/2000/svg" xmlns:xlink="http://www.w3.org/1999/xlink" x="0px" y="0px"
	 viewBox="0 0 5000 5000" style="enable-background:new 0 0 5000 5000;" xml:space="preserve">
<style type="text/css">
	.st0{clip-path:url(#SVGID_00000017508771631211858970000015125266186293075852_);}
	.st1{fill:#DD9900;}
	.st2{clip-path:url(#SVGID_00000010307261200898220040000002619956076013424263_);}
	.st3{fill:#323232;}
</style>
<g>
	<defs>
		<path id="SVGID_1_" d="M2500.4,5000.8C1121.68,5000.8,0,3879.12,0,2500.4C0,1121.68,1121.68,0,2500.4,0
			c1378.72,0,2500.4,1121.68,2500.4,2500.4C5000.8,3879.12,3879.12,5000.8,2500.4,5000.8z M2500.4,210.26
			c-1262.79,0-2290.14,1027.33-2290.14,2290.14c0,1262.8,1027.35,2290.14,2290.14,2290.14
			c1262.78,0,2290.14-1027.33,2290.14-2290.14C4790.54,1237.59,3763.18,210.26,2500.4,210.26z"/>
	</defs>
	<clipPath id="SVGID_00000061458064095638327520000001964436004528014524_">
		<use xlink:href="#SVGID_1_"  style="overflow:visible;"/>
	</clipPath>
	<g style="clip-path:url(#SVGID_00000061458064095638327520000001964436004528014524_);">
		<rect x="-500" y="-500" class="st1" width="6000" height="6000"/>
	</g>
</g>
<g>
	<defs>
		<rect id="SVGID_00000119819559038290221700000004958078340757294995_" x="1279.43" y="1279.43" width="2441" height="2441"/>
	</defs>
	<clipPath id="SVGID_00000124854890316505925550000001330921952428531085_">
		<use xlink:href="#SVGID_00000119819559038290221700000004958078340757294995_"  style="overflow:visible;"/>
	</clipPath>
	<g style="clip-path:url(#SVGID_00000124854890316505925550000001330921952428531085_);">
		<path class="st3" d="M3538.65,1279.43H1461.2c-2.97,0-5.95,0.07-8.92,0.22c-2.97,0.15-5.94,0.36-8.9,0.66
			c-2.96,0.29-5.91,0.66-8.85,1.09c-2.94,0.44-5.88,0.95-8.79,1.53c-2.92,0.58-5.82,1.23-8.71,1.96c-2.89,0.72-5.75,1.52-8.6,2.38
			c-2.84,0.86-5.67,1.79-8.47,2.8c-2.8,1-5.58,2.07-8.32,3.21c-2.75,1.14-5.47,2.34-8.16,3.62c-2.69,1.27-5.35,2.6-7.97,4.01
			c-2.62,1.4-5.21,2.86-7.76,4.4c-2.55,1.53-5.06,3.12-7.54,4.78c-2.47,1.65-4.91,3.36-7.3,5.14c-2.39,1.77-4.73,3.6-7.03,5.49
			c-2.3,1.89-4.55,3.83-6.76,5.83c-2.21,1.99-4.36,4.05-6.46,6.15c-2.1,2.1-4.16,4.26-6.15,6.46c-2,2.2-3.94,4.45-5.83,6.76
			c-1.89,2.3-3.72,4.64-5.49,7.03c-1.77,2.39-3.48,4.82-5.14,7.3c-1.66,2.47-3.24,4.98-4.78,7.54c-1.53,2.55-2.99,5.14-4.4,7.77
			c-1.41,2.62-2.74,5.28-4.01,7.97c-1.28,2.69-2.48,5.41-3.62,8.16c-1.14,2.74-2.21,5.52-3.21,8.32c-1.01,2.8-1.94,5.62-2.8,8.47
			c-0.86,2.84-1.66,5.71-2.38,8.6c-0.72,2.89-1.38,5.79-1.96,8.7c-0.58,2.92-1.09,5.85-1.53,8.79c-0.43,2.94-0.8,5.89-1.09,8.85
			c-0.29,2.96-0.51,5.93-0.66,8.9c-0.15,2.97-0.22,5.95-0.22,8.92v1584.05c0,2.97,0.07,5.95,0.22,8.92c0.15,2.97,0.36,5.93,0.66,8.9
			c0.29,2.96,0.66,5.91,1.09,8.85c0.44,2.94,0.95,5.88,1.53,8.79c0.58,2.92,1.23,5.82,1.96,8.7c0.72,2.89,1.52,5.76,2.38,8.6
			c0.86,2.85,1.8,5.67,2.8,8.47c1,2.8,2.07,5.57,3.21,8.32c1.14,2.75,2.34,5.47,3.62,8.16c1.27,2.69,2.6,5.34,4.01,7.97
			c1.4,2.62,2.86,5.21,4.4,7.77c1.53,2.55,3.12,5.06,4.78,7.54c1.65,2.47,3.36,4.91,5.14,7.29c1.77,2.39,3.6,4.73,5.49,7.04
			c1.89,2.3,3.83,4.55,5.83,6.76c1.99,2.2,4.05,4.36,6.15,6.46c2.1,2.1,4.26,4.15,6.46,6.15c2.2,2,4.45,3.94,6.76,5.83
			c2.3,1.89,4.64,3.71,7.03,5.49c2.39,1.77,4.82,3.48,7.3,5.14c2.47,1.65,4.98,3.24,7.54,4.78c2.55,1.53,5.14,2.99,7.76,4.4
			c2.62,1.4,5.28,2.74,7.97,4.01c2.69,1.27,5.41,2.48,8.16,3.61c2.74,1.14,5.52,2.21,8.32,3.21c2.8,1,5.62,1.93,8.47,2.8
			c2.85,0.86,5.71,1.66,8.6,2.38c2.89,0.72,5.79,1.38,8.71,1.95c2.92,0.58,5.85,1.09,8.79,1.53c2.94,0.44,5.89,0.8,8.85,1.09
			c2.96,0.29,5.93,0.51,8.9,0.66c2.97,0.15,5.95,0.22,8.92,0.22h675.17v164.64h-37.91c-2.97,0-5.95,0.07-8.92,0.22
			c-2.97,0.15-5.94,0.36-8.9,0.66c-2.96,0.29-5.91,0.65-8.85,1.09c-2.94,0.44-5.88,0.95-8.79,1.53c-2.92,0.58-5.82,1.23-8.7,1.95
			c-2.89,0.72-5.76,1.52-8.6,2.38c-2.85,0.86-5.67,1.8-8.47,2.8c-2.8,1-5.57,2.07-8.32,3.21c-2.75,1.14-5.47,2.34-8.16,3.61
			c-2.69,1.28-5.34,2.61-7.97,4.02c-2.62,1.4-5.21,2.86-7.77,4.4s-5.06,3.12-7.54,4.77c-2.47,1.66-4.91,3.36-7.3,5.14
			c-2.39,1.77-4.73,3.6-7.03,5.49c-2.3,1.89-4.55,3.83-6.76,5.83c-2.2,1.99-4.36,4.05-6.46,6.15c-2.1,2.1-4.15,4.26-6.15,6.46
			c-2,2.21-3.94,4.46-5.83,6.76c-1.89,2.3-3.72,4.64-5.49,7.03c-1.77,2.39-3.48,4.82-5.14,7.3c-1.66,2.47-3.24,4.98-4.78,7.54
			c-1.53,2.55-2.99,5.14-4.4,7.76c-1.4,2.62-2.74,5.28-4.01,7.97c-1.27,2.69-2.48,5.41-3.61,8.16c-1.14,2.74-2.21,5.52-3.21,8.32
			c-1,2.8-1.93,5.62-2.8,8.47c-0.86,2.85-1.66,5.71-2.38,8.6s-1.38,5.79-1.95,8.71c-0.58,2.92-1.09,5.85-1.53,8.79
			c-0.44,2.94-0.8,5.89-1.09,8.85c-0.29,2.96-0.51,5.93-0.66,8.9c-0.15,2.97-0.22,5.94-0.22,8.92v146.98h1166.48v-146.46
			c0-2.97-0.07-5.95-0.22-8.92c-0.15-2.97-0.36-5.94-0.66-8.9c-0.29-2.96-0.66-5.91-1.09-8.85c-0.44-2.94-0.95-5.87-1.53-8.79
			c-0.58-2.92-1.23-5.82-1.96-8.7c-0.72-2.89-1.52-5.75-2.38-8.6c-0.86-2.85-1.79-5.67-2.8-8.47c-1-2.8-2.07-5.57-3.21-8.32
			c-1.14-2.74-2.34-5.46-3.62-8.16c-1.27-2.69-2.61-5.34-4.01-7.97c-1.4-2.62-2.87-5.21-4.4-7.76c-1.53-2.55-3.12-5.07-4.78-7.54
			c-1.65-2.47-3.36-4.9-5.14-7.29c-1.77-2.39-3.6-4.73-5.49-7.04c-1.89-2.3-3.83-4.55-5.83-6.76c-1.99-2.2-4.05-4.36-6.15-6.46
			c-2.1-2.1-4.26-4.16-6.46-6.16c-2.2-1.99-4.45-3.94-6.76-5.83c-2.3-1.89-4.64-3.71-7.03-5.49c-2.39-1.77-4.82-3.48-7.3-5.14
			c-2.47-1.65-4.98-3.24-7.54-4.77c-2.55-1.53-5.14-2.99-7.77-4.4c-2.62-1.4-5.28-2.74-7.97-4.01c-2.69-1.27-5.41-2.47-8.16-3.61
			c-2.74-1.14-5.52-2.21-8.32-3.21c-2.8-1-5.62-1.93-8.47-2.8c-2.84-0.86-5.71-1.66-8.59-2.38c-2.89-0.72-5.79-1.38-8.71-1.95
			c-2.92-0.58-5.85-1.09-8.79-1.53c-2.94-0.44-5.89-0.8-8.85-1.09c-2.96-0.29-5.93-0.51-8.9-0.66c-2.97-0.15-5.95-0.22-8.92-0.22
			h-37.91v-165.16h675.17c2.97,0,5.95-0.07,8.92-0.22c2.97-0.15,5.94-0.36,8.9-0.66c2.96-0.29,5.92-0.66,8.86-1.09
			s5.87-0.94,8.79-1.53c2.92-0.58,5.82-1.23,8.71-1.95c2.89-0.72,5.75-1.52,8.6-2.38c2.84-0.86,5.67-1.8,8.47-2.8
			c2.8-1.01,5.58-2.07,8.33-3.21c2.74-1.14,5.46-2.34,8.16-3.61c2.69-1.27,5.34-2.61,7.97-4.01c2.62-1.4,5.21-2.87,7.76-4.4
			c2.55-1.53,5.07-3.12,7.54-4.78c2.47-1.65,4.91-3.36,7.3-5.14c2.39-1.78,4.73-3.6,7.04-5.49c2.3-1.89,4.55-3.83,6.76-5.83
			c2.2-2,4.35-4.05,6.46-6.15s4.16-4.26,6.15-6.46c2-2.2,3.94-4.45,5.83-6.76c1.89-2.3,3.72-4.65,5.49-7.04
			c1.77-2.39,3.48-4.82,5.14-7.29c1.65-2.47,3.24-4.98,4.77-7.54c1.53-2.55,2.99-5.14,4.4-7.77c1.4-2.62,2.73-5.28,4.01-7.97
			c1.27-2.69,2.47-5.41,3.61-8.16c1.14-2.75,2.21-5.52,3.21-8.32c1.01-2.8,1.94-5.62,2.8-8.47c0.86-2.84,1.66-5.71,2.38-8.6
			c0.72-2.89,1.37-5.79,1.95-8.7c0.58-2.92,1.09-5.85,1.53-8.79c0.44-2.94,0.8-5.9,1.09-8.85c0.29-2.96,0.51-5.93,0.66-8.9
			c0.15-2.97,0.22-5.95,0.22-8.92V1461.2c0-2.97-0.07-5.95-0.22-8.92c-0.15-2.97-0.36-5.94-0.66-8.9c-0.29-2.96-0.66-5.91-1.09-8.85
			c-0.44-2.94-0.95-5.88-1.53-8.79c-0.58-2.92-1.23-5.82-1.95-8.7c-0.72-2.89-1.52-5.76-2.38-8.6c-0.86-2.85-1.8-5.67-2.8-8.47
			c-1-2.8-2.07-5.58-3.21-8.32c-1.14-2.75-2.34-5.47-3.61-8.16c-1.28-2.69-2.61-5.35-4.02-7.97c-1.4-2.62-2.86-5.21-4.4-7.77
			c-1.53-2.55-3.12-5.06-4.77-7.54c-1.66-2.47-3.37-4.91-5.14-7.3s-3.6-4.73-5.49-7.03c-1.89-2.3-3.83-4.55-5.83-6.76
			c-1.99-2.21-4.05-4.36-6.15-6.46c-2.1-2.1-4.26-4.16-6.46-6.15c-2.21-2-4.46-3.94-6.76-5.83c-2.3-1.89-4.65-3.72-7.04-5.49
			c-2.39-1.77-4.82-3.48-7.3-5.14c-2.47-1.66-4.98-3.24-7.54-4.78c-2.55-1.53-5.14-2.99-7.76-4.4c-2.62-1.41-5.28-2.74-7.97-4.01
			c-2.69-1.28-5.41-2.48-8.16-3.62c-2.75-1.14-5.53-2.21-8.33-3.21c-2.8-1.01-5.62-1.94-8.47-2.8c-2.85-0.86-5.71-1.66-8.6-2.38
			c-2.89-0.72-5.79-1.38-8.71-1.96c-2.92-0.58-5.84-1.09-8.79-1.53c-2.94-0.43-5.9-0.8-8.86-1.09c-2.96-0.29-5.92-0.51-8.9-0.66
			C3544.6,1279.5,3541.62,1279.43,3538.65,1279.43z M1461.2,1383.3h2077.45c2.55,0,5.09,0.12,7.64,0.38
			c2.54,0.25,5.06,0.62,7.56,1.12c2.5,0.49,4.97,1.11,7.41,1.85c2.44,0.74,4.84,1.6,7.2,2.58c2.36,0.97,4.66,2.06,6.91,3.27
			c2.26,1.2,4.44,2.52,6.56,3.93c2.12,1.42,4.17,2.94,6.15,4.55c1.97,1.62,3.86,3.33,5.66,5.14c1.81,1.81,3.52,3.69,5.14,5.67
			c1.62,1.97,3.14,4.02,4.55,6.14c1.42,2.12,2.73,4.31,3.93,6.56s2.29,4.55,3.27,6.91c0.97,2.35,1.83,4.76,2.57,7.2
			c0.74,2.44,1.36,4.91,1.86,7.42c0.49,2.5,0.87,5.02,1.12,7.56c0.25,2.54,0.38,5.08,0.38,7.64v1409.81H1383.3V1461.2
			c0-2.55,0.12-5.1,0.38-7.64c0.25-2.54,0.62-5.06,1.12-7.56c0.49-2.51,1.11-4.97,1.85-7.42c0.74-2.44,1.6-4.84,2.58-7.2
			c0.97-2.36,2.06-4.66,3.27-6.91s2.52-4.44,3.93-6.56c1.42-2.12,2.94-4.17,4.55-6.14c1.62-1.97,3.33-3.86,5.14-5.67
			c1.8-1.8,3.69-3.52,5.67-5.14c1.97-1.61,4.02-3.14,6.14-4.55c2.12-1.42,4.31-2.73,6.56-3.93s4.55-2.29,6.91-3.27
			c2.35-0.98,4.76-1.84,7.2-2.58c2.44-0.74,4.91-1.36,7.42-1.85c2.5-0.5,5.02-0.88,7.56-1.12
			C1456.1,1383.42,1458.65,1383.3,1461.2,1383.3z M2901.39,3496.06c2.55,0,5.1,0.12,7.64,0.38c2.54,0.25,5.06,0.62,7.56,1.12
			c2.51,0.5,4.97,1.12,7.42,1.86c2.44,0.74,4.84,1.6,7.2,2.57c2.36,0.98,4.66,2.07,6.91,3.27s4.44,2.51,6.56,3.93
			c2.12,1.42,4.17,2.93,6.14,4.55c1.97,1.62,3.86,3.33,5.67,5.14c1.8,1.8,3.52,3.69,5.14,5.66c1.61,1.97,3.14,4.02,4.55,6.14
			c1.42,2.12,2.73,4.31,3.93,6.56s2.29,4.56,3.27,6.91c0.98,2.36,1.84,4.76,2.58,7.2c0.74,2.44,1.36,4.92,1.85,7.42
			c0.5,2.51,0.88,5.03,1.12,7.56c0.25,2.54,0.38,5.08,0.38,7.64v42.59h-958.74v-42.59c0-2.55,0.12-5.09,0.38-7.64
			c0.25-2.54,0.62-5.06,1.12-7.56c0.49-2.5,1.11-4.97,1.85-7.42c0.74-2.44,1.6-4.84,2.58-7.2c0.97-2.35,2.07-4.66,3.27-6.91
			s2.51-4.43,3.93-6.56c1.42-2.12,2.94-4.17,4.56-6.14c1.61-1.97,3.33-3.86,5.13-5.66c1.81-1.81,3.69-3.52,5.67-5.14
			c1.97-1.62,4.02-3.14,6.14-4.55c2.12-1.42,4.31-2.73,6.56-3.93s4.55-2.29,6.91-3.27c2.36-0.97,4.76-1.83,7.2-2.57
			c2.44-0.74,4.92-1.36,7.42-1.86c2.5-0.49,5.02-0.87,7.56-1.12c2.54-0.25,5.08-0.38,7.64-0.38H2901.39z M2759.73,3392.19h-519.49
			v-165.16h519.36L2759.73,3392.19z M3538.65,3123.16H1461.2c-2.55,0-5.1-0.12-7.64-0.38c-2.54-0.25-5.06-0.62-7.56-1.12
			c-2.51-0.49-4.97-1.11-7.42-1.85c-2.44-0.74-4.84-1.6-7.2-2.58c-2.36-0.97-4.66-2.07-6.91-3.27s-4.44-2.51-6.56-3.93
			c-2.12-1.42-4.17-2.94-6.14-4.56c-1.97-1.61-3.86-3.33-5.67-5.13c-1.8-1.81-3.52-3.69-5.14-5.67c-1.61-1.97-3.14-4.02-4.55-6.14
			c-1.42-2.12-2.73-4.31-3.93-6.56s-2.29-4.55-3.27-6.91c-0.98-2.36-1.84-4.76-2.58-7.2c-0.74-2.44-1.36-4.91-1.85-7.42
			c-0.5-2.5-0.88-5.02-1.12-7.56c-0.25-2.54-0.38-5.08-0.38-7.64v-70.89h2233.26v70.89c0,2.55-0.12,5.1-0.38,7.64
			c-0.25,2.54-0.62,5.06-1.12,7.56c-0.5,2.51-1.12,4.97-1.86,7.42s-1.6,4.84-2.57,7.2c-0.98,2.36-2.07,4.66-3.27,6.91
			s-2.52,4.44-3.93,6.56c-1.42,2.12-2.93,4.17-4.55,6.14c-1.62,1.97-3.33,3.86-5.14,5.67c-1.8,1.8-3.69,3.52-5.67,5.13
			c-1.97,1.62-4.02,3.14-6.14,4.56c-2.12,1.42-4.3,2.73-6.56,3.93c-2.25,1.2-4.55,2.3-6.91,3.27c-2.35,0.97-4.76,1.83-7.2,2.58
			c-2.44,0.74-4.91,1.36-7.41,1.85c-2.51,0.5-5.03,0.88-7.56,1.12C3543.74,3123.04,3541.2,3123.16,3538.65,3123.16z"/>
	</g>
</g>
</svg>
