<?xml version="1.0" encoding="UTF-8"?>
<!DOCTYPE svg PUBLIC "-//W3C//DTD SVG 1.1//EN" "http://www.w3.org/Graphics/SVG/1.1/DTD/svg11.dtd">
<svg xmlns="http://www.w3.org/2000/svg" version="1.1" width="500px" height="500px" style="shape-rendering:geometricPrecision; text-rendering:geometricPrecision; image-rendering:optimizeQuality; fill-rule:evenodd; clip-rule:evenodd" xmlns:xlink="http://www.w3.org/1999/xlink">
<g><path style="opacity:0.999" fill="#060607" d="M 265.5,1.5 C 269.876,2.44494 274.376,3.44494 279,4.5C 279.765,4.43007 280.265,4.09674 280.5,3.5C 282.565,3.51715 284.565,3.85048 286.5,4.5C 286.47,5.49722 286.97,6.16389 288,6.5C 293.505,8.11187 298.838,10.1119 304,12.5C 304.399,12.2716 304.565,11.9382 304.5,11.5C 305.833,11.8333 307.167,12.1667 308.5,12.5C 311.771,15.8119 315.771,18.1452 320.5,19.5C 323.331,20.0787 325.664,21.412 327.5,23.5C 331.302,27.2371 335.635,30.2371 340.5,32.5C 365.65,52.1023 382.317,77.4357 390.5,108.5C 390.062,108.435 389.728,108.601 389.5,109C 390.352,111.417 391.019,113.917 391.5,116.5C 391.747,117.713 392.414,118.38 393.5,118.5C 394.819,124.419 395.486,130.419 395.5,136.5C 394.167,144.167 394.167,151.833 395.5,159.5C 395.5,160.5 395.5,161.5 395.5,162.5C 394.275,163.152 393.608,164.319 393.5,166C 392.656,168.69 392.656,171.19 393.5,173.5C 388.636,201.559 376.636,225.892 357.5,246.5C 352.5,249.5 348.5,253.5 345.5,258.5C 338.784,263.881 331.784,268.881 324.5,273.5C 318.581,275.126 313.247,277.793 308.5,281.5C 302.065,286.342 295.065,287.509 287.5,285C 286.177,284.184 285.511,283.017 285.5,281.5C 284.971,277.808 285.971,274.642 288.5,272C 303.274,266.698 316.774,259.198 329,249.5C 332.278,218.876 320.111,197.043 292.5,184C 289.183,183.023 286.516,183.856 284.5,186.5C 267.079,195.819 248.745,198.319 229.5,194C 220.886,191.022 212.552,187.522 204.5,183.5C 184.024,191.75 171.524,206.75 167,228.5C 166.333,235.5 166.333,242.5 167,249.5C 179.031,259.505 192.531,267.005 207.5,272C 210.029,274.642 211.029,277.808 210.5,281.5C 209.075,285.304 206.242,286.971 202,286.5C 189.171,283.67 177.337,278.503 166.5,271C 159.978,265.969 153.644,260.803 147.5,255.5C 145.57,251.9 142.903,248.9 139.5,246.5C 136.45,244.451 134.117,241.784 132.5,238.5C 127.826,231.495 123.159,224.495 118.5,217.5C 107.491,199.128 101.491,179.128 100.5,157.5C 101.833,150.5 101.833,143.5 100.5,136.5C 103.125,104.435 114.625,76.102 135,51.5C 149.512,34.5138 167.012,21.8472 187.5,13.5C 187.435,13.9382 187.601,14.2716 188,14.5C 192.485,12.1147 197.152,10.1147 202,8.5C 203.03,8.16389 203.53,7.49722 203.5,6.5C 223.789,0.798024 244.456,-0.868643 265.5,1.5 Z"/></g>
<g><path style="opacity:0.055" fill="#545555" d="M 265.5,1.5 C 270.75,1.30249 275.75,1.96916 280.5,3.5C 280.265,4.09674 279.765,4.43007 279,4.5C 274.376,3.44494 269.876,2.44494 265.5,1.5 Z"/></g>
<g><path style="opacity:0.465" fill="#4e4e4e" d="M 286.5,4.5 C 292.891,6.07018 298.891,8.40351 304.5,11.5C 304.565,11.9382 304.399,12.2716 304,12.5C 298.838,10.1119 293.505,8.11187 288,6.5C 286.97,6.16389 286.47,5.49722 286.5,4.5 Z"/></g>
<g><path style="opacity:0.525" fill="#434445" d="M 203.5,6.5 C 203.53,7.49722 203.03,8.16389 202,8.5C 197.152,10.1147 192.485,12.1147 188,14.5C 187.601,14.2716 187.435,13.9382 187.5,13.5C 192.265,10.1229 197.599,7.78962 203.5,6.5 Z"/></g>
<g><path style="opacity:0.31" fill="#5c5e5e" d="M 308.5,12.5 C 312.864,14.3437 316.864,16.677 320.5,19.5C 315.771,18.1452 311.771,15.8119 308.5,12.5 Z"/></g>
<g><path style="opacity:1" fill="#01a7f2" d="M 285.5,22.5 C 328.892,45.5478 354.392,81.5478 362,130.5C 364.901,160.39 359.068,188.39 344.5,214.5C 344.043,215.298 343.376,215.631 342.5,215.5C 338.836,205.186 333.336,195.852 326,187.5C 319.012,181.281 311.845,175.448 304.5,170C 325.942,140.766 327.108,110.599 308,79.5C 283.62,51.6122 253.786,43.4455 218.5,55C 215.473,56.5133 212.473,58.0133 209.5,59.5C 182.117,66.0494 165.284,83.0494 159,110.5C 155.587,135.395 163.087,156.229 181.5,173C 160.756,180.744 146.256,194.911 138,215.5C 137.329,214.748 136.496,214.414 135.5,214.5C 114.683,176.228 111.849,136.562 127,95.5C 157.396,35.8828 205.896,10.3828 272.5,19C 276.932,19.8671 281.265,21.0338 285.5,22.5 Z"/></g>
<g><path style="opacity:0.447" fill="#515151" d="M 327.5,23.5 C 332.365,25.7629 336.698,28.7629 340.5,32.5C 335.635,30.2371 331.302,27.2371 327.5,23.5 Z"/></g>
<g><path style="opacity:1" fill="#fddeb0" d="M 257.5,66.5 C 286.629,87.1284 295.463,114.462 284,148.5C 277.705,160.269 269.205,170.102 258.5,178C 250.841,178.5 243.174,178.666 235.5,178.5C 204.153,168.845 189.319,147.512 191,114.5C 199.567,79.7781 221.733,63.7781 257.5,66.5 Z"/></g>
<g><path style="opacity:1" fill="#dabf98" d="M 257.5,66.5 C 295.949,77.3885 310.782,102.389 302,141.5C 289.159,170.883 266.992,183.217 235.5,178.5C 243.174,178.666 250.841,178.5 258.5,178C 269.205,170.102 277.705,160.269 284,148.5C 295.463,114.462 286.629,87.1284 257.5,66.5 Z"/></g>
<g><path style="opacity:1" fill="#0174b9" d="M 209.5,59.5 C 177.157,82.2592 167.324,112.593 180,150.5C 182.931,157.528 186.764,164.028 191.5,170C 175.867,179.301 164.034,192.134 156,208.5C 153.515,216.405 151.348,224.405 149.5,232.5C 144.353,226.871 139.686,220.871 135.5,214.5C 136.496,214.414 137.329,214.748 138,215.5C 146.256,194.911 160.756,180.744 181.5,173C 163.087,156.229 155.587,135.395 159,110.5C 165.284,83.0494 182.117,66.0494 209.5,59.5 Z"/></g>
<g><path style="opacity:1" fill="#0074ba" d="M 285.5,22.5 C 338.048,39.9449 368.882,75.9449 378,130.5C 381.668,167.848 372.001,201.181 349,230.5C 348.311,231.357 347.478,232.023 346.5,232.5C 345.418,226.756 344.085,221.089 342.5,215.5C 343.376,215.631 344.043,215.298 344.5,214.5C 359.068,188.39 364.901,160.39 362,130.5C 354.392,81.5478 328.892,45.5478 285.5,22.5 Z"/></g>
<g><path style="opacity:0.098" fill="#5b5b5b" d="M 390.5,108.5 C 391.87,111.619 392.87,114.952 393.5,118.5C 392.414,118.38 391.747,117.713 391.5,116.5C 391.019,113.917 390.352,111.417 389.5,109C 389.728,108.601 390.062,108.435 390.5,108.5 Z"/></g>
<g><path style="opacity:0.043" fill="#6f6f70" d="M 100.5,136.5 C 101.833,143.5 101.833,150.5 100.5,157.5C 99.1901,150.599 99.1901,143.599 100.5,136.5 Z"/></g>
<g><path style="opacity:0.059" fill="#6b6b6b" d="M 395.5,136.5 C 396.812,144.068 396.812,151.735 395.5,159.5C 394.167,151.833 394.167,144.167 395.5,136.5 Z"/></g>
<g><path style="opacity:0.137" fill="#525252" d="M 395.5,162.5 C 395.354,166.387 394.687,170.054 393.5,173.5C 392.656,171.19 392.656,168.69 393.5,166C 393.608,164.319 394.275,163.152 395.5,162.5 Z"/></g>
<g><path style="opacity:1" fill="#ec2f4b" d="M 284.5,186.5 C 285.873,186.343 287.207,186.51 288.5,187C 301.671,197.837 309.838,211.67 313,228.5C 313.832,236.853 313.665,245.187 312.5,253.5C 299.837,263.997 285.837,272.164 270.5,278C 267.522,278.696 264.522,279.196 261.5,279.5C 256.08,273.761 249.413,271.927 241.5,274C 236.927,277.07 233.261,280.904 230.5,285.5C 223.887,284.044 217.22,282.711 210.5,281.5C 211.029,277.808 210.029,274.642 207.5,272C 192.531,267.005 179.031,259.505 167,249.5C 166.333,242.5 166.333,235.5 167,228.5C 171.524,206.75 184.024,191.75 204.5,183.5C 212.552,187.522 220.886,191.022 229.5,194C 248.745,198.319 267.079,195.819 284.5,186.5 Z"/></g>
<g><path style="opacity:1" fill="#b7183a" d="M 285.5,281.5 C 279.918,282.979 274.252,283.979 268.5,284.5C 267.167,284.5 265.833,284.5 264.5,284.5C 263.263,283.035 262.263,281.368 261.5,279.5C 264.522,279.196 267.522,278.696 270.5,278C 285.837,272.164 299.837,263.997 312.5,253.5C 313.665,245.187 313.832,236.853 313,228.5C 309.838,211.67 301.671,197.837 288.5,187C 287.207,186.51 285.873,186.343 284.5,186.5C 286.516,183.856 289.183,183.023 292.5,184C 320.111,197.043 332.278,218.876 329,249.5C 316.774,259.198 303.274,266.698 288.5,272C 285.971,274.642 284.971,277.808 285.5,281.5 Z"/></g>
<g><path style="opacity:0.055" fill="#474948" d="M 118.5,217.5 C 123.159,224.495 127.826,231.495 132.5,238.5C 126.083,232.667 121.417,225.667 118.5,217.5 Z"/></g>
<g><path style="opacity:0.999" fill="#080706" d="M 92.5,246.5 C 99.0983,246.062 104.598,248.395 109,253.5C 111.608,259.053 114.441,264.387 117.5,269.5C 120.418,274.333 123.084,279.333 125.5,284.5C 125.956,289.413 127.956,293.413 131.5,296.5C 148.787,298.253 165.787,300.92 182.5,304.5C 185.067,308.87 185.067,313.203 182.5,317.5C 180.135,318.594 177.635,319.261 175,319.5C 163.829,317.777 152.662,316.11 141.5,314.5C 136.731,313.111 131.731,312.444 126.5,312.5C 122.507,312.755 119.674,311.089 118,307.5C 111.598,293.028 104.431,279.028 96.5,265.5C 88.5519,279.062 81.3852,293.062 75,307.5C 73.6032,309.07 72.1032,310.404 70.5,311.5C 54.6236,313.315 38.957,315.648 23.5,318.5C 21.9719,318.517 21.4719,319.184 22,320.5C 33.9709,331.47 45.6376,342.804 57,354.5C 57.4974,357.146 57.6641,359.813 57.5,362.5C 55.9605,364.838 55.2938,367.505 55.5,370.5C 54.0623,382.087 52.0623,393.587 49.5,405C 49.8333,405.5 50.1667,406 50.5,406.5C 65.7727,398.947 80.9393,391.281 96,383.5C 113.216,391.858 130.382,400.358 147.5,409C 149.07,410.397 150.404,411.897 151.5,413.5C 152.032,420.12 149.032,423.787 142.5,424.5C 132.604,420.885 123.27,416.218 114.5,410.5C 108.885,406.687 102.885,403.354 96.5,400.5C 90.1153,403.354 84.1153,406.687 78.5,410.5C 73.0885,413.894 67.4219,416.894 61.5,419.5C 55.7367,422.403 49.7367,424.07 43.5,424.5C 38.28,423.614 34.9467,420.614 33.5,415.5C 33.9382,415.565 34.2716,415.399 34.5,415C 33.8719,412.061 33.2052,409.228 32.5,406.5C 34.5938,391.534 37.2604,376.701 40.5,362C 34.9637,356.631 29.6303,351.131 24.5,345.5C 16.3794,337.388 8.71274,329.055 1.5,320.5C 1.5,318.833 1.5,317.167 1.5,315.5C 4.44404,310.556 8.44404,306.556 13.5,303.5C 29.3502,300.972 45.3502,298.472 61.5,296C 64.4811,289.86 67.8144,284.026 71.5,278.5C 74.5988,273.142 77.5988,267.642 80.5,262C 79.9056,261.536 79.2389,261.369 78.5,261.5C 80.5749,258.354 82.4082,255.021 84,251.5C 86.3575,248.909 89.1908,247.242 92.5,246.5 Z"/></g>
<g><path style="opacity:0.02" fill="#6c706f" d="M 139.5,246.5 C 142.903,248.9 145.57,251.9 147.5,255.5C 144.126,253.126 141.459,250.126 139.5,246.5 Z"/></g>
<g><path style="opacity:0.999" fill="#070605" d="M 403.5,246.5 C 403.833,246.5 404.167,246.5 404.5,246.5C 406.718,248.208 408.884,250.208 411,252.5C 414.354,259.883 418.187,266.883 422.5,273.5C 426.615,280.894 430.615,288.394 434.5,296C 452.646,298.358 470.646,301.358 488.5,305C 493.31,310.498 494.643,316.665 492.5,323.5C 485.528,330.807 478.528,338.14 471.5,345.5C 466.37,351.131 461.036,356.631 455.5,362C 458.74,376.701 461.406,391.534 463.5,406.5C 463.229,416.346 458.229,422.346 448.5,424.5C 442.891,423.02 437.557,421.02 432.5,418.5C 427.016,416.593 422.016,413.927 417.5,410.5C 411.885,406.687 405.885,403.354 399.5,400.5C 393.115,403.354 387.115,406.687 381.5,410.5C 376.949,413.943 371.949,416.61 366.5,418.5C 362.638,419.428 358.971,420.928 355.5,423C 347.676,423.245 344.676,419.412 346.5,411.5C 346.953,410.542 347.619,409.708 348.5,409C 365.128,400.103 381.962,391.603 399,383.5C 414.549,391.024 430.049,398.691 445.5,406.5C 445.833,406 446.167,405.5 446.5,405C 442.504,388.357 440.004,371.524 439,354.5C 450.681,342.652 462.514,330.986 474.5,319.5C 469.291,317.92 463.958,316.92 458.5,316.5C 447.647,314.749 436.647,313.082 425.5,311.5C 423.983,311.489 422.816,310.823 422,309.5C 415.282,294.396 407.782,279.729 399.5,265.5C 391.902,278.361 385.069,291.694 379,305.5C 377.669,307.996 375.836,309.996 373.5,311.5C 354.207,314.209 334.874,316.542 315.5,318.5C 315.158,317.662 314.492,317.328 313.5,317.5C 312.195,314.947 311.195,312.28 310.5,309.5C 310.901,305.93 312.901,303.764 316.5,303C 332.513,300.76 348.513,298.427 364.5,296C 365.056,295.617 365.389,295.117 365.5,294.5C 368.71,292.082 370.376,288.748 370.5,284.5C 371.917,281.331 373.583,278.331 375.5,275.5C 379.559,268.386 383.392,261.052 387,253.5C 391.495,248.2 396.995,245.867 403.5,246.5 Z"/></g>
<g><path style="opacity:0.455" fill="#515252" d="M 117.5,269.5 C 114.441,264.387 111.608,259.053 109,253.5C 104.598,248.395 99.0983,246.062 92.5,246.5C 99.5782,244.265 105.411,246.265 110,252.5C 113.068,257.964 115.568,263.631 117.5,269.5 Z"/></g>
<g><path style="opacity:0.078" fill="#6a6a6a" d="M 357.5,246.5 C 353.833,250.833 349.833,254.833 345.5,258.5C 348.5,253.5 352.5,249.5 357.5,246.5 Z"/></g>
<g><path style="opacity:0.576" fill="#414141" d="M 404.5,246.5 C 407.643,247.134 410.143,248.8 412,251.5C 416.319,258.471 419.819,265.804 422.5,273.5C 418.187,266.883 414.354,259.883 411,252.5C 408.884,250.208 406.718,248.208 404.5,246.5 Z"/></g>
<g><path style="opacity:0.447" fill="#606061" d="M 403.5,246.5 C 396.995,245.867 391.495,248.2 387,253.5C 383.392,261.052 379.559,268.386 375.5,275.5C 377.903,267.358 381.403,259.692 386,252.5C 390.589,246.265 396.422,244.265 403.5,246.5 Z"/></g>
<g><path style="opacity:0.298" fill="#3f3f40" d="M 78.5,261.5 C 79.2389,261.369 79.9056,261.536 80.5,262C 77.5988,267.642 74.5988,273.142 71.5,278.5C 72.9915,272.513 75.3248,266.846 78.5,261.5 Z"/></g>
<g><path style="opacity:1" fill="#090705" d="M 261.5,279.5 C 262.263,281.368 263.263,283.035 264.5,284.5C 264.229,286.38 264.896,287.713 266.5,288.5C 270.689,299.211 275.689,309.545 281.5,319.5C 284.503,323.87 287.17,328.537 289.5,333.5C 302.946,336.064 316.446,338.397 330,340.5C 330.765,340.43 331.265,340.097 331.5,339.5C 337.53,342.09 343.863,343.59 350.5,344C 362.681,348.695 365.847,356.862 360,368.5C 355.963,372.369 352.13,376.369 348.5,380.5C 343.145,383.855 338.812,388.188 335.5,393.5C 333.192,395.471 330.858,397.471 328.5,399.5C 323.594,402.898 319.094,406.898 315,411.5C 314.308,412.437 314.475,413.103 315.5,413.5C 317.927,424.725 319.927,436.059 321.5,447.5C 320.876,447.917 320.543,448.584 320.5,449.5C 320.643,452.406 321.643,454.739 323.5,456.5C 323.5,457.167 323.5,457.833 323.5,458.5C 322.142,462.06 322.809,465.06 325.5,467.5C 325.5,468.167 325.5,468.833 325.5,469.5C 324.667,474.082 323.667,478.748 322.5,483.5C 316.963,490.408 309.963,492.242 301.5,489C 299.273,488.059 297.273,486.892 295.5,485.5C 295.631,484.624 295.298,483.957 294.5,483.5C 290.604,481.428 286.604,479.762 282.5,478.5C 278.845,476.623 275.178,474.957 271.5,473.5C 272.738,473.19 272.738,472.69 271.5,472C 268.5,470.5 265.5,469 262.5,467.5C 261.893,467.624 261.56,467.957 261.5,468.5C 257.247,465.789 252.747,463.456 248,461.5C 244.87,462.984 241.703,464.317 238.5,465.5C 231.886,467.957 226.219,470.957 221.5,474.5C 216.031,477.736 210.364,480.736 204.5,483.5C 200.396,483.884 196.729,485.384 193.5,488C 189.668,489.284 186.002,489.784 182.5,489.5C 175.297,487.628 171.297,482.961 170.5,475.5C 171.833,474.167 171.833,472.833 170.5,471.5C 173.617,451.466 176.95,431.466 180.5,411.5C 176.129,406.127 171.129,401.461 165.5,397.5C 162.167,394.5 158.833,391.5 155.5,388.5C 153.855,384.855 151.188,382.188 147.5,380.5C 143.87,376.369 140.037,372.369 136,368.5C 130.75,357.505 133.583,349.338 144.5,344C 150.853,342.83 157.187,341.664 163.5,340.5C 177.874,338.661 192.208,336.494 206.5,334C 209.914,328.006 212.914,321.839 215.5,315.5C 218.756,312.664 220.756,308.997 221.5,304.5C 224.787,298.261 227.787,291.928 230.5,285.5C 233.261,280.904 236.927,277.07 241.5,274C 249.413,271.927 256.08,273.761 261.5,279.5 Z"/></g>
<g><path style="opacity:1" fill="#fbbe0a" d="M 126.5,312.5 C 131.269,313.889 136.269,314.556 141.5,314.5C 152.662,316.11 163.829,317.777 175,319.5C 177.635,319.261 180.135,318.594 182.5,317.5C 182.833,317.5 183.167,317.5 183.5,317.5C 183.445,320.614 182.112,322.948 179.5,324.5C 176.911,325.419 174.911,327.086 173.5,329.5C 170.167,333.167 166.833,336.833 163.5,340.5C 157.187,341.664 150.853,342.83 144.5,344C 133.583,349.338 130.75,357.505 136,368.5C 140.037,372.369 143.87,376.369 147.5,380.5C 147.557,381.609 147.89,382.609 148.5,383.5C 150.089,391.782 151.423,400.116 152.5,408.5C 152.493,410.369 152.16,412.036 151.5,413.5C 150.404,411.897 149.07,410.397 147.5,409C 130.382,400.358 113.216,391.858 96,383.5C 80.9393,391.281 65.7727,398.947 50.5,406.5C 50.1667,406 49.8333,405.5 49.5,405C 52.0623,393.587 54.0623,382.087 55.5,370.5C 56.7682,368.095 57.4349,365.428 57.5,362.5C 57.6641,359.813 57.4974,357.146 57,354.5C 45.6376,342.804 33.9709,331.47 22,320.5C 21.4719,319.184 21.9719,318.517 23.5,318.5C 39.4564,317.217 55.1231,314.884 70.5,311.5C 72.1032,310.404 73.6032,309.07 75,307.5C 81.3852,293.062 88.5519,279.062 96.5,265.5C 104.431,279.028 111.598,293.028 118,307.5C 119.674,311.089 122.507,312.755 126.5,312.5 Z"/></g>
<g><path style="opacity:1" fill="#fbbe0a" d="M 425.5,311.5 C 436.152,314.547 447.152,316.213 458.5,316.5C 463.958,316.92 469.291,317.92 474.5,319.5C 462.514,330.986 450.681,342.652 439,354.5C 440.004,371.524 442.504,388.357 446.5,405C 446.167,405.5 445.833,406 445.5,406.5C 430.049,398.691 414.549,391.024 399,383.5C 381.962,391.603 365.128,400.103 348.5,409C 347.619,409.708 346.953,410.542 346.5,411.5C 345.833,412.5 345.167,413.5 344.5,414.5C 343.906,412.59 343.573,410.59 343.5,408.5C 344.726,400.141 346.06,391.808 347.5,383.5C 348.404,382.791 348.737,381.791 348.5,380.5C 352.13,376.369 355.963,372.369 360,368.5C 365.847,356.862 362.681,348.695 350.5,344C 343.863,343.59 337.53,342.09 331.5,339.5C 326.17,333.337 320.337,327.671 314,322.5C 312.991,320.975 312.491,319.308 312.5,317.5C 312.833,317.5 313.167,317.5 313.5,317.5C 314.492,317.328 315.158,317.662 315.5,318.5C 319.311,319.645 323.311,319.812 327.5,319C 343.042,316.902 358.375,314.402 373.5,311.5C 375.836,309.996 377.669,307.996 379,305.5C 385.069,291.694 391.902,278.361 399.5,265.5C 407.782,279.729 415.282,294.396 422,309.5C 422.816,310.823 423.983,311.489 425.5,311.5 Z"/></g>
<g><path style="opacity:0.024" fill="#3a3a3b" d="M 324.5,273.5 C 319.753,277.207 314.419,279.874 308.5,281.5C 313.247,277.793 318.581,275.126 324.5,273.5 Z"/></g>
<g><path style="opacity:0.125" fill="#866e71" d="M 264.5,284.5 C 265.833,284.5 267.167,284.5 268.5,284.5C 267.737,285.268 266.737,285.768 265.5,286C 266.252,286.671 266.586,287.504 266.5,288.5C 264.896,287.713 264.229,286.38 264.5,284.5 Z"/></g>
<g><path style="opacity:0.757" fill="#58595a" d="M 125.5,284.5 C 128.008,288.182 130.008,292.182 131.5,296.5C 127.956,293.413 125.956,289.413 125.5,284.5 Z"/></g>
<g><path style="opacity:0.765" fill="#525254" d="M 370.5,284.5 C 370.376,288.748 368.71,292.082 365.5,294.5C 366.659,290.849 368.326,287.515 370.5,284.5 Z"/></g>
<g><path style="opacity:0.367" fill="#656565" d="M 266.5,288.5 C 270.971,296.772 275.471,305.105 280,313.5C 280.813,315.436 281.313,317.436 281.5,319.5C 275.689,309.545 270.689,299.211 266.5,288.5 Z"/></g>
<g><path style="opacity:1" fill="#f5ba08" d="M 275.5,344.5 C 269.736,344.563 264.07,343.897 258.5,342.5C 258.719,341.325 258.386,340.325 257.5,339.5C 256.832,341.969 256.165,344.302 255.5,346.5C 255.793,343.246 255.126,340.246 253.5,337.5C 254.497,337.53 255.164,337.03 255.5,336C 254.922,334.189 254.422,332.355 254,330.5C 250.134,321.477 245.634,312.811 240.5,304.5C 242.295,299.577 244.628,294.91 247.5,290.5C 248.478,290.977 249.311,291.643 250,292.5C 258.783,309.732 267.283,327.066 275.5,344.5 Z"/></g>
<g><path style="opacity:0.251" fill="#3f4040" d="M 13.5,303.5 C 8.44404,306.556 4.44404,310.556 1.5,315.5C 2.55167,308.448 6.55167,304.448 13.5,303.5 Z"/></g>
<g><path style="opacity:0.302" fill="#7e7e7d" d="M 182.5,304.5 C 187.254,308.508 187.587,312.841 183.5,317.5C 183.167,317.5 182.833,317.5 182.5,317.5C 185.067,313.203 185.067,308.87 182.5,304.5 Z"/></g>
<g><path style="opacity:0.18" fill="#6b6c6c" d="M 221.5,304.5 C 220.756,308.997 218.756,312.664 215.5,315.5C 217.262,311.638 219.262,307.972 221.5,304.5 Z"/></g>
<g><path style="opacity:1" fill="#6a5005" d="M 126.5,312.5 C 131.731,312.444 136.731,313.111 141.5,314.5C 136.269,314.556 131.269,313.889 126.5,312.5 Z"/></g>
<g><path style="opacity:1" fill="#876705" d="M 425.5,311.5 C 436.647,313.082 447.647,314.749 458.5,316.5C 447.152,316.213 436.152,314.547 425.5,311.5 Z"/></g>
<g><path style="opacity:0.459" fill="#83827e" d="M 310.5,309.5 C 311.195,312.28 312.195,314.947 313.5,317.5C 313.167,317.5 312.833,317.5 312.5,317.5C 309.948,315.2 309.282,312.533 310.5,309.5 Z"/></g>
<g><path style="opacity:1" fill="#8c6a05" d="M 70.5,311.5 C 55.1231,314.884 39.4564,317.217 23.5,318.5C 38.957,315.648 54.6236,313.315 70.5,311.5 Z"/></g>
<g><path style="opacity:1" fill="#fcd800" d="M 240.5,304.5 C 245.634,312.811 250.134,321.477 254,330.5C 254.422,332.355 254.922,334.189 255.5,336C 255.164,337.03 254.497,337.53 253.5,337.5C 248.728,334.323 244.561,334.99 241,339.5C 236.882,348.237 232.382,356.737 227.5,365C 217.708,366.112 208.041,367.779 198.5,370C 194.285,374.958 194.619,379.625 199.5,384C 201.81,384.497 204.143,384.663 206.5,384.5C 211.731,384.556 216.731,383.889 221.5,382.5C 227.716,381.34 233.883,379.673 240,377.5C 245.18,367.14 250.347,356.807 255.5,346.5C 256.165,344.302 256.832,341.969 257.5,339.5C 258.386,340.325 258.719,341.325 258.5,342.5C 264.07,343.897 269.736,344.563 275.5,344.5C 276.652,347.815 278.985,349.982 282.5,351C 292.411,352.822 302.411,353.989 312.5,354.5C 315.845,356.217 319.511,356.884 323.5,356.5C 325.735,356.205 327.735,356.539 329.5,357.5C 329.66,359.199 329.494,360.866 329,362.5C 327.357,364.977 325.524,367.31 323.5,369.5C 310.776,383.226 297.442,396.226 283.5,408.5C 282.348,411.106 282.182,413.773 283,416.5C 285.99,431.756 288.49,447.089 290.5,462.5C 289.5,462.5 288.5,462.5 287.5,462.5C 278.063,457.948 268.73,453.114 259.5,448C 255.466,446.063 251.299,444.563 247,443.5C 244.268,443.615 241.768,444.448 239.5,446C 222.339,455.328 205.172,464.495 188,473.5C 190.344,454.768 193.344,436.101 197,417.5C 197.667,413.5 197.667,409.5 197,405.5C 180.919,390.585 165.419,375.252 150.5,359.5C 155.414,359.638 160.081,358.972 164.5,357.5C 164.833,357.5 165.167,357.5 165.5,357.5C 172.422,357.344 179.089,356.344 185.5,354.5C 196.34,353.333 207.007,351.333 217.5,348.5C 225.157,333.854 232.823,319.188 240.5,304.5 Z"/></g>
<g><path style="opacity:1" fill="#906d06" d="M 373.5,311.5 C 358.375,314.402 343.042,316.902 327.5,319C 323.311,319.812 319.311,319.645 315.5,318.5C 334.874,316.542 354.207,314.209 373.5,311.5 Z"/></g>
<g><path style="opacity:0.306" fill="#404141" d="M 1.5,320.5 C 8.71274,329.055 16.3794,337.388 24.5,345.5C 17.2562,339.762 10.4228,333.428 4,326.5C 2.87803,324.593 2.04469,322.593 1.5,320.5 Z"/></g>
<g><path style="opacity:0.012" fill="#fff3a3" d="M 179.5,324.5 C 178.089,326.914 176.089,328.581 173.5,329.5C 174.911,327.086 176.911,325.419 179.5,324.5 Z"/></g>
<g><path style="opacity:1" fill="#070402" d="M 253.5,337.5 C 255.126,340.246 255.793,343.246 255.5,346.5C 250.347,356.807 245.18,367.14 240,377.5C 233.883,379.673 227.716,381.34 221.5,382.5C 216.269,382.444 211.269,383.111 206.5,384.5C 204.143,384.663 201.81,384.497 199.5,384C 194.619,379.625 194.285,374.958 198.5,370C 208.041,367.779 217.708,366.112 227.5,365C 232.382,356.737 236.882,348.237 241,339.5C 244.561,334.99 248.728,334.323 253.5,337.5 Z"/></g>
<g><path style="opacity:0.11" fill="#404040" d="M 492.5,323.5 C 492.649,324.552 492.483,325.552 492,326.5C 485.577,333.428 478.744,339.762 471.5,345.5C 478.528,338.14 485.528,330.807 492.5,323.5 Z"/></g>
<g><path style="opacity:1" fill="#8b7803" d="M 185.5,354.5 C 179.089,356.344 172.422,357.344 165.5,357.5C 171.899,355.585 178.565,354.585 185.5,354.5 Z"/></g>
<g><path style="opacity:1" fill="#827002" d="M 312.5,354.5 C 316.425,354.43 320.091,355.097 323.5,356.5C 319.511,356.884 315.845,356.217 312.5,354.5 Z"/></g>
<g><path style="opacity:1" fill="#8e7a03" d="M 164.5,357.5 C 160.081,358.972 155.414,359.638 150.5,359.5C 154.919,358.028 159.586,357.362 164.5,357.5 Z"/></g>
<g><path style="opacity:1" fill="#5f4804" d="M 57.5,362.5 C 57.4349,365.428 56.7682,368.095 55.5,370.5C 55.2938,367.505 55.9605,364.838 57.5,362.5 Z"/></g>
<g><path style="opacity:0.145" fill="#7f807d" d="M 147.5,380.5 C 151.188,382.188 153.855,384.855 155.5,388.5C 152.991,387.079 150.657,385.412 148.5,383.5C 147.89,382.609 147.557,381.609 147.5,380.5 Z"/></g>
<g><path style="opacity:1" fill="#a89302" d="M 221.5,382.5 C 216.731,383.889 211.731,384.556 206.5,384.5C 211.269,383.111 216.269,382.444 221.5,382.5 Z"/></g>
<g><path style="opacity:1" fill="#f8bc08" d="M 329.5,357.5 C 334.254,357.517 338.921,358.184 343.5,359.5C 344.932,359.733 345.432,360.4 345,361.5C 328.727,375.771 313.06,390.771 298,406.5C 297.333,408.833 297.333,411.167 298,413.5C 302.08,433.066 305.58,452.733 308.5,472.5C 301.077,469.954 294.077,466.621 287.5,462.5C 288.5,462.5 289.5,462.5 290.5,462.5C 288.49,447.089 285.99,431.756 283,416.5C 282.182,413.773 282.348,411.106 283.5,408.5C 297.442,396.226 310.776,383.226 323.5,369.5C 325.524,367.31 327.357,364.977 329,362.5C 329.494,360.866 329.66,359.199 329.5,357.5 Z"/></g>
<g><path style="opacity:0.09" fill="#72716f" d="M 348.5,380.5 C 348.737,381.791 348.404,382.791 347.5,383.5C 343.208,386.457 339.208,389.79 335.5,393.5C 338.812,388.188 343.145,383.855 348.5,380.5 Z"/></g>
<g><path style="opacity:0.243" fill="#4c4d4d" d="M 165.5,397.5 C 171.129,401.461 176.129,406.127 180.5,411.5C 174.217,408.217 169.217,403.55 165.5,397.5 Z"/></g>
<g><path style="opacity:0.118" fill="#4a4c4b" d="M 114.5,410.5 C 108.261,408.381 102.261,405.714 96.5,402.5C 90.7389,405.714 84.7389,408.381 78.5,410.5C 84.1153,406.687 90.1153,403.354 96.5,400.5C 102.885,403.354 108.885,406.687 114.5,410.5 Z"/></g>
<g><path style="opacity:0.22" fill="#424344" d="M 328.5,399.5 C 324.867,404.8 320.534,409.467 315.5,413.5C 314.475,413.103 314.308,412.437 315,411.5C 319.094,406.898 323.594,402.898 328.5,399.5 Z"/></g>
<g><path style="opacity:0.231" fill="#515252" d="M 417.5,410.5 C 411.191,408.265 405.024,405.598 399,402.5C 393.463,405.852 387.63,408.519 381.5,410.5C 387.115,406.687 393.115,403.354 399.5,400.5C 405.885,403.354 411.885,406.687 417.5,410.5 Z"/></g>
<g><path style="opacity:0.553" fill="#5d5d5d" d="M 32.5,406.5 C 33.2052,409.228 33.8719,412.061 34.5,415C 34.2716,415.399 33.9382,415.565 33.5,415.5C 31.4833,412.733 31.1499,409.733 32.5,406.5 Z"/></g>
<g><path style="opacity:0.38" fill="#3c3c3b" d="M 346.5,411.5 C 344.676,419.412 347.676,423.245 355.5,423C 358.971,420.928 362.638,419.428 366.5,418.5C 361.579,422.627 355.912,424.46 349.5,424C 346.125,421.752 344.459,418.585 344.5,414.5C 345.167,413.5 345.833,412.5 346.5,411.5 Z"/></g>
<g><path style="opacity:0.284" fill="#646465" d="M 61.5,419.5 C 56.2989,424.461 50.2989,426.128 43.5,424.5C 49.7367,424.07 55.7367,422.403 61.5,419.5 Z"/></g>
<g><path style="opacity:0.165" fill="#616163" d="M 463.5,406.5 C 464.415,419.75 458.082,425.917 444.5,425C 439.99,423.582 435.99,421.415 432.5,418.5C 437.557,421.02 442.891,423.02 448.5,424.5C 458.229,422.346 463.229,416.346 463.5,406.5 Z"/></g>
<g><path style="opacity:0.275" fill="#535656" d="M 321.5,447.5 C 322.417,450.417 323.084,453.417 323.5,456.5C 321.643,454.739 320.643,452.406 320.5,449.5C 320.543,448.584 320.876,447.917 321.5,447.5 Z"/></g>
<g><path style="opacity:0.149" fill="#515151" d="M 323.5,458.5 C 324.475,461.311 325.142,464.311 325.5,467.5C 322.809,465.06 322.142,462.06 323.5,458.5 Z"/></g>
<g><path style="opacity:0.302" fill="#5d5d5d" d="M 238.5,465.5 C 233.591,469.79 227.924,472.79 221.5,474.5C 226.219,470.957 231.886,467.957 238.5,465.5 Z"/></g>
<g><path style="opacity:0.055" fill="#717171" d="M 261.5,468.5 C 261.56,467.957 261.893,467.624 262.5,467.5C 265.5,469 268.5,470.5 271.5,472C 272.738,472.69 272.738,473.19 271.5,473.5C 267.883,472.358 264.55,470.692 261.5,468.5 Z"/></g>
<g><path style="opacity:0.376" fill="#858685" d="M 170.5,471.5 C 171.833,472.833 171.833,474.167 170.5,475.5C 169.167,474.167 169.167,472.833 170.5,471.5 Z"/></g>
<g><path style="opacity:0.937" fill="#505050" d="M 282.5,478.5 C 286.604,479.762 290.604,481.428 294.5,483.5C 295.298,483.957 295.631,484.624 295.5,485.5C 290.68,483.926 286.347,481.593 282.5,478.5 Z"/></g>
<g><path style="opacity:0.055" fill="#6d6d6d" d="M 325.5,469.5 C 326.989,474.7 325.989,479.367 322.5,483.5C 323.667,478.748 324.667,474.082 325.5,469.5 Z"/></g>
<g><path style="opacity:0.306" fill="#444445" d="M 204.5,483.5 C 200.722,485.892 196.722,488.059 192.5,490C 188.973,490.808 185.64,490.641 182.5,489.5C 186.002,489.784 189.668,489.284 193.5,488C 196.729,485.384 200.396,483.884 204.5,483.5 Z"/></g>
</svg>
