<?xml version="1.0" encoding="UTF-8"?>
<!DOCTYPE svg PUBLIC "-//W3C//DTD SVG 1.1//EN" "http://www.w3.org/Graphics/SVG/1.1/DTD/svg11.dtd">
<svg xmlns="http://www.w3.org/2000/svg" version="1.1" width="500px" height="500px" style="shape-rendering:geometricPrecision; text-rendering:geometricPrecision; image-rendering:optimizeQuality; fill-rule:evenodd; clip-rule:evenodd" xmlns:xlink="http://www.w3.org/1999/xlink">
<g><path style="opacity:0.953" fill="#040303" d="M 128.5,-0.5 C 209.167,-0.5 289.833,-0.5 370.5,-0.5C 405.271,6.41858 430.771,25.7519 447,57.5C 466.129,107.489 455.295,149.655 414.5,184C 394.494,198.445 372.161,204.779 347.5,203C 345.334,201.322 344.001,199.155 343.5,196.5C 344.978,194.355 346.312,192.021 347.5,189.5C 348.577,188.295 349.91,187.628 351.5,187.5C 395.445,186.096 424.279,164.429 438,122.5C 438.826,119.207 439.326,115.874 439.5,112.5C 440.166,108.347 440.499,104.013 440.5,99.5C 440.706,93.2515 440.04,87.2515 438.5,81.5C 438.277,77.8379 437.277,74.5046 435.5,71.5C 426.217,47.2175 409.55,30.2175 385.5,20.5C 382.374,18.0103 378.708,16.677 374.5,16.5C 374.167,16.5 373.833,16.5 373.5,16.5C 370.466,14.9823 367.133,14.1489 363.5,14C 286.999,13.1678 210.666,13.3344 134.5,14.5C 132.565,15.1495 130.565,15.4828 128.5,15.5C 126.102,15.2594 124.102,15.9261 122.5,17.5C 94.6698,25.329 75.3364,42.6623 64.5,69.5C 62.5275,72.0836 61.5275,75.0836 61.5,78.5C 60.0762,80.5145 59.4095,82.8478 59.5,85.5C 59.5,85.8333 59.5,86.1667 59.5,86.5C 58.342,95.9911 58.1754,105.658 59,115.5C 59.2321,116.737 59.7321,117.737 60.5,118.5C 60.5,119.167 60.5,119.833 60.5,120.5C 61.0094,125.703 62.6761,130.37 65.5,134.5C 75.7109,158.377 93.0443,174.711 117.5,183.5C 120.505,185.277 123.838,186.277 127.5,186.5C 129.292,187.309 131.292,187.809 133.5,188C 143.494,188.5 153.494,188.666 163.5,188.5C 165.229,189.117 166.729,190.117 168,191.5C 174.172,203.851 180.839,215.851 188,227.5C 195.388,216.408 202.055,204.742 208,192.5C 208.876,190.365 210.376,189.031 212.5,188.5C 227.871,189.15 242.871,188.484 257.5,186.5C 260.345,176.487 266.345,168.987 275.5,164C 273.833,163.667 272.167,163.333 270.5,163C 263.464,159.482 256.464,155.982 249.5,152.5C 241.141,156.347 232.808,160.18 224.5,164C 213.755,164.369 206.255,159.536 202,149.5C 201.905,139.089 202.571,128.756 204,118.5C 198.667,113.167 193.333,107.833 188,102.5C 186.787,100.075 185.621,97.7415 184.5,95.5C 184.505,91.4659 184.838,87.4659 185.5,83.5C 187.539,78.6217 190.873,74.7883 195.5,72C 204.575,70.428 213.575,68.5947 222.5,66.5C 226.282,57.7633 230.948,49.5967 236.5,42C 247.217,35.402 257.051,36.5686 266,45.5C 268.952,52.7374 272.452,59.7374 276.5,66.5C 285.053,68.7474 293.72,70.5807 302.5,72C 307.741,74.4062 311.408,78.2395 313.5,83.5C 314.162,87.4659 314.495,91.4659 314.5,95.5C 313.379,97.7415 312.213,100.075 311,102.5C 305.667,107.833 300.333,113.167 295,118.5C 296.227,128.438 296.894,138.438 297,148.5C 295.881,153.239 293.381,157.072 289.5,160C 311.732,162.399 324.065,174.566 326.5,196.5C 323.443,214.506 320.277,232.506 317,250.5C 316.5,261.828 316.333,273.162 316.5,284.5C 347.199,284.055 377.866,284.555 408.5,286C 427.053,292.596 434.887,305.763 432,325.5C 429.912,331.758 426.745,337.425 422.5,342.5C 435.833,359.167 435.833,375.833 422.5,392.5C 434.04,406.071 435.54,420.738 427,436.5C 422.588,441.418 417.755,445.751 412.5,449.5C 417.45,460.662 417.783,471.995 413.5,483.5C 408.93,491.081 402.597,496.414 394.5,499.5C 329.833,499.5 265.167,499.5 200.5,499.5C 184.36,495.513 169.86,488.18 157,477.5C 156.218,488.088 151.051,495.422 141.5,499.5C 121.167,499.5 100.833,499.5 80.5,499.5C 73.7903,496.617 69.2903,491.617 67,484.5C 66.3333,473.167 66.3333,461.833 67,450.5C 68.5707,448.077 70.7374,446.744 73.5,446.5C 75.3885,447.322 77.3885,448.155 79.5,449C 80.1258,449.75 80.6258,450.584 81,451.5C 81.3333,460.833 81.6667,470.167 82,479.5C 83.0475,481.708 84.5475,483.374 86.5,484.5C 94.8266,485.166 103.327,485.5 112,485.5C 120.861,485.498 129.361,484.831 137.5,483.5C 138.167,482.5 138.833,481.5 139.5,480.5C 140.665,421.335 140.832,362.001 140,302.5C 139.292,301.619 138.458,300.953 137.5,300.5C 131.925,299.548 126.259,299.214 120.5,299.5C 108.829,299.333 97.1619,299.5 85.5,300C 83.6667,300.5 82.5,301.667 82,303.5C 81.6667,343.167 81.3333,382.833 81,422.5C 79.4583,425.892 76.9583,427.892 73.5,428.5C 70.3308,428.161 68.1641,426.495 67,423.5C 66.3333,382.167 66.3333,340.833 67,299.5C 70.3262,291.507 76.1595,286.341 84.5,284C 102.167,283.333 119.833,283.333 137.5,284C 141.795,284.898 145.628,286.731 149,289.5C 153.671,284.498 159.171,280.665 165.5,278C 180.91,272.53 196.244,266.863 211.5,261C 217.644,256.853 223.144,252.02 228,246.5C 234.721,232.226 241.554,218.059 248.5,204C 238.816,203.168 229.149,203.335 219.5,204.5C 213.396,215.708 207.563,227.041 202,238.5C 192.352,246.77 183.019,246.436 174,237.5C 168.564,226.128 162.731,214.962 156.5,204C 112.011,206.009 78.1773,188.176 55,150.5C 37.6074,115.296 38.6074,80.629 58,46.5C 74.9976,20.9285 98.4976,5.26187 128.5,-0.5 Z"/></g>
<g><path style="opacity:1" fill="#55544c" d="M 134.5,14.5 C 210.666,13.3344 286.999,13.1678 363.5,14C 367.133,14.1489 370.466,14.9823 373.5,16.5C 366.233,15.1765 358.9,14.5098 351.5,14.5C 279.167,14.5 206.833,14.5 134.5,14.5 Z"/></g>
<g><path style="opacity:1" fill="#fefae4" d="M 134.5,14.5 C 206.833,14.5 279.167,14.5 351.5,14.5C 393.744,35.3065 412.244,69.3065 407,116.5C 400.512,149.793 382.012,173.46 351.5,187.5C 349.91,187.628 348.577,188.295 347.5,189.5C 346.312,192.021 344.978,194.355 343.5,196.5C 337.833,196.5 332.167,196.5 326.5,196.5C 324.065,174.566 311.732,162.399 289.5,160C 293.381,157.072 295.881,153.239 297,148.5C 296.894,138.438 296.227,128.438 295,118.5C 300.333,113.167 305.667,107.833 311,102.5C 312.213,100.075 313.379,97.7415 314.5,95.5C 315.16,94.036 315.493,92.3693 315.5,90.5C 315.684,87.7954 315.017,85.4621 313.5,83.5C 311.408,78.2395 307.741,74.4062 302.5,72C 293.72,70.5807 285.053,68.7474 276.5,66.5C 272.452,59.7374 268.952,52.7374 266,45.5C 257.051,36.5686 247.217,35.402 236.5,42C 230.948,49.5967 226.282,57.7633 222.5,66.5C 213.575,68.5947 204.575,70.428 195.5,72C 190.873,74.7883 187.539,78.6217 185.5,83.5C 183.983,85.4621 183.316,87.7954 183.5,90.5C 183.507,92.3693 183.84,94.036 184.5,95.5C 185.621,97.7415 186.787,100.075 188,102.5C 193.333,107.833 198.667,113.167 204,118.5C 202.571,128.756 201.905,139.089 202,149.5C 206.255,159.536 213.755,164.369 224.5,164C 232.808,160.18 241.141,156.347 249.5,152.5C 256.464,155.982 263.464,159.482 270.5,163C 272.167,163.333 273.833,163.667 275.5,164C 266.345,168.987 260.345,176.487 257.5,186.5C 242.402,187.152 227.402,187.818 212.5,188.5C 210.376,189.031 208.876,190.365 208,192.5C 202.055,204.742 195.388,216.408 188,227.5C 180.839,215.851 174.172,203.851 168,191.5C 166.729,190.117 165.229,189.117 163.5,188.5C 151.663,187.646 139.663,186.979 127.5,186.5C 124.495,184.723 121.162,183.723 117.5,183.5C 93.0443,174.711 75.7109,158.377 65.5,134.5C 64.2042,129.607 62.5376,124.94 60.5,120.5C 60.5,119.833 60.5,119.167 60.5,118.5C 59.5964,107.865 59.2631,97.1982 59.5,86.5C 59.5,86.1667 59.5,85.8333 59.5,85.5C 60.9238,83.4855 61.5905,81.1522 61.5,78.5C 63.3104,75.855 64.3104,72.855 64.5,69.5C 75.3364,42.6623 94.6698,25.329 122.5,17.5C 124.898,17.7406 126.898,17.0739 128.5,15.5C 130.565,15.4828 132.565,15.1495 134.5,14.5 Z"/></g>
<g><path style="opacity:1" fill="#fcf5c3" d="M 351.5,14.5 C 358.9,14.5098 366.233,15.1765 373.5,16.5C 373.833,16.5 374.167,16.5 374.5,16.5C 377.939,18.2043 381.605,19.5376 385.5,20.5C 409.55,30.2175 426.217,47.2175 435.5,71.5C 435.723,75.1621 436.723,78.4954 438.5,81.5C 439.267,91.8149 439.601,102.148 439.5,112.5C 439.326,115.874 438.826,119.207 438,122.5C 424.279,164.429 395.445,186.096 351.5,187.5C 382.012,173.46 400.512,149.793 407,116.5C 412.244,69.3065 393.744,35.3065 351.5,14.5 Z"/></g>
<g><path style="opacity:1" fill="#969386" d="M 128.5,15.5 C 126.898,17.0739 124.898,17.7406 122.5,17.5C 124.102,15.9261 126.102,15.2594 128.5,15.5 Z"/></g>
<g><path style="opacity:1" fill="#625f4c" d="M 374.5,16.5 C 378.708,16.677 382.374,18.0103 385.5,20.5C 381.605,19.5376 377.939,18.2043 374.5,16.5 Z"/></g>
<g><path style="opacity:1" fill="#fcce59" d="M 259.5,140.5 C 256.183,139.177 252.85,137.843 249.5,136.5C 240.37,139.9 231.703,144.067 223.5,149C 218.132,150.015 215.799,147.682 216.5,142C 218.058,132.833 219.224,123.666 220,114.5C 213.054,107.554 206.054,100.554 199,93.5C 197.835,89.3164 199.335,86.4831 203.5,85C 212.979,83.9803 222.312,82.3136 231.5,80C 235.64,72.8837 239.64,65.717 243.5,58.5C 244.738,57.5876 246.072,57.4209 247.5,58C 273.529,82.2929 277.529,109.793 259.5,140.5 Z"/></g>
<g><path style="opacity:1" fill="#8e8b7f" d="M 64.5,69.5 C 64.3104,72.855 63.3104,75.855 61.5,78.5C 61.5275,75.0836 62.5275,72.0836 64.5,69.5 Z"/></g>
<g><path style="opacity:1" fill="#817e63" d="M 435.5,71.5 C 437.277,74.5046 438.277,77.8379 438.5,81.5C 436.723,78.4954 435.723,75.1621 435.5,71.5 Z"/></g>
<g><path style="opacity:1" fill="#f7bd42" d="M 259.5,140.5 C 277.529,109.793 273.529,82.2929 247.5,58C 246.072,57.4209 244.738,57.5876 243.5,58.5C 244.758,52.5408 248.092,51.0408 253.5,54C 258.5,63 263.5,72 268.5,81C 278.113,82.9105 287.78,84.5772 297.5,86C 300.207,87.8637 301.041,90.3637 300,93.5C 292.946,100.554 285.946,107.554 279,114.5C 280.544,125.436 281.544,136.436 282,147.5C 279.847,149.444 277.347,149.944 274.5,149C 269.113,146.646 264.113,143.812 259.5,140.5 Z"/></g>
<g><path style="opacity:1" fill="#65645b" d="M 61.5,78.5 C 61.5905,81.1522 60.9238,83.4855 59.5,85.5C 59.4095,82.8478 60.0762,80.5145 61.5,78.5 Z"/></g>
<g><path style="opacity:1" fill="#9a988a" d="M 185.5,83.5 C 184.838,87.4659 184.505,91.4659 184.5,95.5C 183.84,94.036 183.507,92.3693 183.5,90.5C 183.316,87.7954 183.983,85.4621 185.5,83.5 Z"/></g>
<g><path style="opacity:1" fill="#989588" d="M 313.5,83.5 C 315.017,85.4621 315.684,87.7954 315.5,90.5C 315.493,92.3693 315.16,94.036 314.5,95.5C 314.495,91.4659 314.162,87.4659 313.5,83.5 Z"/></g>
<g><path style="opacity:1" fill="#949072" d="M 438.5,81.5 C 440.04,87.2515 440.706,93.2515 440.5,99.5C 440.499,104.013 440.166,108.347 439.5,112.5C 439.601,102.148 439.267,91.8149 438.5,81.5 Z"/></g>
<g><path style="opacity:1" fill="#929083" d="M 59.5,86.5 C 59.2631,97.1982 59.5964,107.865 60.5,118.5C 59.7321,117.737 59.2321,116.737 59,115.5C 58.1754,105.658 58.342,95.9911 59.5,86.5 Z"/></g>
<g><path style="opacity:1" fill="#747268" d="M 60.5,120.5 C 62.5376,124.94 64.2042,129.607 65.5,134.5C 62.6761,130.37 61.0094,125.703 60.5,120.5 Z"/></g>
<g><path style="opacity:1" fill="#facabc" d="M 283.5,285.5 C 283.108,283.821 282.608,282.154 282,280.5C 281.333,269.833 281.333,259.167 282,248.5C 285.297,230.351 288.463,212.184 291.5,194C 291.527,187.229 289.027,181.729 284,177.5C 282.862,177.989 281.695,178.322 280.5,178.5C 281.058,177.21 282.058,176.377 283.5,176C 294.934,174.028 303.767,177.861 310,187.5C 310.667,191.5 310.667,195.5 310,199.5C 306.791,216.795 303.791,234.129 301,251.5C 300.5,262.828 300.333,274.162 300.5,285.5C 294.833,285.5 289.167,285.5 283.5,285.5 Z"/></g>
<g><path style="opacity:1" fill="#fedece" d="M 283.5,285.5 C 277.491,285.334 271.491,285.501 265.5,286C 260.014,291.081 260.347,295.748 266.5,300C 308.165,300.5 349.832,300.667 391.5,300.5C 401.637,313.889 400.637,326.389 388.5,338C 384.719,340.225 380.719,341.891 376.5,343C 396.049,348.263 402.215,360.43 395,379.5C 393.167,382 391.333,384.5 389.5,387C 386.166,388.331 383.166,390.165 380.5,392.5C 385.399,395.223 389.899,398.557 394,402.5C 400.561,413.622 399.727,424.122 391.5,434C 387.975,434.179 384.641,434.679 381.5,435.5C 380.504,435.414 379.671,435.748 379,436.5C 377.441,438.217 376.608,440.217 376.5,442.5C 373.15,442.335 369.817,442.502 366.5,443C 384.261,453.68 387.261,467.513 375.5,484.5C 319.166,484.667 262.832,484.5 206.5,484C 200.279,482.946 194.279,481.279 188.5,479C 177.5,472.167 166.5,465.333 155.5,458.5C 155.167,434 154.833,409.5 154.5,385C 154.347,359.44 154.847,333.94 156,308.5C 158.379,301.457 162.879,296.29 169.5,293C 185.91,287.197 202.244,281.197 218.5,275C 233.2,267.124 243.367,255.291 249,239.5C 257.415,220.34 266.082,201.34 275,182.5C 276.451,180.536 278.284,179.203 280.5,178.5C 281.695,178.322 282.862,177.989 284,177.5C 289.027,181.729 291.527,187.229 291.5,194C 288.463,212.184 285.297,230.351 282,248.5C 281.333,259.167 281.333,269.833 282,280.5C 282.608,282.154 283.108,283.821 283.5,285.5 Z"/></g>
<g><path style="opacity:1" fill="#89877b" d="M 117.5,183.5 C 121.162,183.723 124.495,184.723 127.5,186.5C 123.838,186.277 120.505,185.277 117.5,183.5 Z"/></g>
<g><path style="opacity:1" fill="#6f6d63" d="M 127.5,186.5 C 139.663,186.979 151.663,187.646 163.5,188.5C 153.494,188.666 143.494,188.5 133.5,188C 131.292,187.809 129.292,187.309 127.5,186.5 Z"/></g>
<g><path style="opacity:1" fill="#6f6d63" d="M 257.5,186.5 C 242.871,188.484 227.871,189.15 212.5,188.5C 227.402,187.818 242.402,187.152 257.5,186.5 Z"/></g>
<g><path style="opacity:1" fill="#97e4fa" d="M 120.5,299.5 C 121.655,359.805 121.822,420.138 121,480.5C 120.59,481.901 120.09,483.234 119.5,484.5C 108.5,484.5 97.5,484.5 86.5,484.5C 84.5475,483.374 83.0475,481.708 82,479.5C 81.6667,470.167 81.3333,460.833 81,451.5C 80.6258,450.584 80.1258,449.75 79.5,449C 77.3885,448.155 75.3885,447.322 73.5,446.5C 73.5,440.5 73.5,434.5 73.5,428.5C 76.9583,427.892 79.4583,425.892 81,422.5C 81.3333,382.833 81.6667,343.167 82,303.5C 82.5,301.667 83.6667,300.5 85.5,300C 97.1619,299.5 108.829,299.333 120.5,299.5 Z"/></g>
<g><path style="opacity:1" fill="#62dafa" d="M 120.5,299.5 C 126.259,299.214 131.925,299.548 137.5,300.5C 137.461,301.756 137.961,302.756 139,303.5C 139.5,362.499 139.667,421.499 139.5,480.5C 138.833,481.5 138.167,482.5 137.5,483.5C 131.559,484.413 125.559,484.746 119.5,484.5C 120.09,483.234 120.59,481.901 121,480.5C 121.822,420.138 121.655,359.805 120.5,299.5 Z"/></g>
<g><path style="opacity:1" fill="#f8c8ba" d="M 391.5,300.5 C 398.255,299.668 404.589,300.835 410.5,304C 418.778,311.732 419.612,320.232 413,329.5C 408.391,333.816 402.891,335.983 396.5,336C 391.329,340.545 391.329,345.211 396.5,350C 412.669,350.514 419.169,358.681 416,374.5C 411.265,382.624 404.098,386.791 394.5,387C 391.58,390.98 391.914,394.646 395.5,398C 405.668,398.518 412.835,403.352 417,412.5C 418.4,424.534 413.234,432.034 401.5,435C 394.842,435.5 388.175,435.666 381.5,435.5C 384.641,434.679 387.975,434.179 391.5,434C 399.727,424.122 400.561,413.622 394,402.5C 389.899,398.557 385.399,395.223 380.5,392.5C 383.166,390.165 386.166,388.331 389.5,387C 391.333,384.5 393.167,382 395,379.5C 402.215,360.43 396.049,348.263 376.5,343C 380.719,341.891 384.719,340.225 388.5,338C 400.637,326.389 401.637,313.889 391.5,300.5 Z"/></g>
<g><path style="opacity:1" fill="#49a4bc" d="M 137.5,300.5 C 138.458,300.953 139.292,301.619 140,302.5C 140.832,362.001 140.665,421.335 139.5,480.5C 139.667,421.499 139.5,362.499 139,303.5C 137.961,302.756 137.461,301.756 137.5,300.5 Z"/></g>
<g><path style="opacity:1" fill="#facabc" d="M 376.5,442.5 C 378.021,448.727 382.021,451.227 388.5,450C 397.1,452.932 401.434,458.932 401.5,468C 398.235,481.625 389.568,487.125 375.5,484.5C 387.261,467.513 384.261,453.68 366.5,443C 369.817,442.502 373.15,442.335 376.5,442.5 Z"/></g>
<g><path style="opacity:1" fill="#2f4c55" d="M 137.5,483.5 C 129.361,484.831 120.861,485.498 112,485.5C 103.327,485.5 94.8266,485.166 86.5,484.5C 97.5,484.5 108.5,484.5 119.5,484.5C 125.559,484.746 131.559,484.413 137.5,483.5 Z"/></g>
</svg>
