<?xml version="1.0" encoding="UTF-8"?>
<!DOCTYPE svg PUBLIC "-//W3C//DTD SVG 1.1//EN" "http://www.w3.org/Graphics/SVG/1.1/DTD/svg11.dtd">
<svg xmlns="http://www.w3.org/2000/svg" version="1.1" width="4088px" height="4088px" style="shape-rendering:geometricPrecision; text-rendering:geometricPrecision; image-rendering:optimizeQuality; fill-rule:evenodd; clip-rule:evenodd" xmlns:xlink="http://www.w3.org/1999/xlink">
<g><path style="opacity:1" fill="#2068fe" d="M 1962.5,-0.5 C 2016.5,-0.5 2070.5,-0.5 2124.5,-0.5C 2541.71,19.6034 2918.37,151.437 3254.5,395C 3593.94,647.965 3834.44,974.131 3976,1373.5C 4041.25,1564.53 4078.42,1760.87 4087.5,1962.5C 4087.5,2016.5 4087.5,2070.5 4087.5,2124.5C 4069.66,2507.82 3955.83,2858.82 3746,3177.5C 3510.41,3525.76 3198.25,3779.92 2809.5,3940C 2589.63,4028.2 2361.3,4077.37 2124.5,4087.5C 2070.5,4087.5 2016.5,4087.5 1962.5,4087.5C 1543.47,4067.2 1165.47,3934.37 828.5,3689C 491.195,3436.31 252.028,3111.15 111,2713.5C 45.7445,2522.43 8.57783,2326.1 -0.5,2124.5C -0.5,2070.5 -0.5,2016.5 -0.5,1962.5C 17.3249,1579.22 131.158,1228.22 341,909.5C 576.626,561.196 888.793,307.029 1277.5,147C 1497.37,58.8003 1725.7,9.6336 1962.5,-0.5 Z"/></g>
<g><path style="opacity:1" fill="#fefeff" d="M 2359.5,3278.5 C 2184.17,3278.5 2008.83,3278.5 1833.5,3278.5C 1833.5,2610.17 1833.5,1941.83 1833.5,1273.5C 1709,1272.5 1584.33,1272.17 1459.5,1272.5C 1459.5,1117.83 1459.5,963.167 1459.5,808.5C 1759.5,808.5 2059.5,808.5 2359.5,808.5C 2359.5,1631.83 2359.5,2455.17 2359.5,3278.5 Z"/></g>
<g><path style="opacity:1" fill="#d0dfff" d="M 2359.5,3278.5 C 2359.5,2455.17 2359.5,1631.83 2359.5,808.5C 2059.5,808.5 1759.5,808.5 1459.5,808.5C 1459.5,963.167 1459.5,1117.83 1459.5,1272.5C 1584.33,1272.17 1709,1272.5 1833.5,1273.5C 1708.5,1273.5 1583.5,1273.5 1458.5,1273.5C 1458.5,1118.17 1458.5,962.833 1458.5,807.5C 1759.17,807.5 2059.83,807.5 2360.5,807.5C 2360.83,1631.33 2360.5,2455 2359.5,3278.5 Z"/></g>
</svg>
