<?xml version="1.0" encoding="UTF-8"?>
<!DOCTYPE svg PUBLIC "-//W3C//DTD SVG 1.1//EN" "http://www.w3.org/Graphics/SVG/1.1/DTD/svg11.dtd">
<svg xmlns="http://www.w3.org/2000/svg" version="1.1" width="4088px" height="4088px" style="shape-rendering:geometricPrecision; text-rendering:geometricPrecision; image-rendering:optimizeQuality; fill-rule:evenodd; clip-rule:evenodd" xmlns:xlink="http://www.w3.org/1999/xlink">
<g><path style="opacity:1" fill="#2068fe" d="M 1962.5,-0.5 C 2016.5,-0.5 2070.5,-0.5 2124.5,-0.5C 2541.71,19.6034 2918.37,151.437 3254.5,395C 3593.94,647.965 3834.44,974.131 3976,1373.5C 4041.25,1564.53 4078.42,1760.87 4087.5,1962.5C 4087.5,2016.5 4087.5,2070.5 4087.5,2124.5C 4069.66,2507.82 3955.83,2858.82 3746,3177.5C 3510.41,3525.75 3198.25,3779.92 2809.5,3940C 2589.63,4028.2 2361.3,4077.37 2124.5,4087.5C 2070.5,4087.5 2016.5,4087.5 1962.5,4087.5C 1541.55,4067.26 1162.21,3933.43 824.5,3686C 489.204,3433.65 251.371,3109.49 111,2713.5C 45.7448,2522.43 8.57815,2326.1 -0.5,2124.5C -0.5,2070.5 -0.5,2016.5 -0.5,1962.5C 17.3249,1579.22 131.158,1228.22 341,909.5C 576.626,561.196 888.793,307.029 1277.5,147C 1497.37,58.8003 1725.7,9.6336 1962.5,-0.5 Z"/></g>
<g><path style="opacity:1" fill="#98b7ff" d="M 2073.5,732.5 C 2043.14,732.25 2012.81,732.917 1982.5,734.5C 2012.79,731.529 2043.12,730.862 2073.5,732.5 Z"/></g>
<g><path style="opacity:1" fill="#fefeff" d="M 2073.5,732.5 C 2213.02,734.791 2343.36,769.958 2464.5,838C 2620.64,929.16 2726.14,1060.99 2781,1233.5C 2794.19,1277.94 2802.69,1323.27 2806.5,1369.5C 2806.26,1378.38 2806.93,1387.05 2808.5,1395.5C 2817.92,1548.1 2787.09,1691.76 2716,1826.5C 2683.59,1886.34 2647.92,1944.01 2609,1999.5C 2547.3,2085.87 2483.3,2170.53 2417,2253.5C 2277.62,2426.71 2138.45,2600.04 1999.5,2773.5C 1998.96,2773.56 1998.62,2773.89 1998.5,2774.5C 2283.83,2775.5 2569.17,2775.83 2854.5,2775.5C 2854.5,2930.17 2854.5,3084.83 2854.5,3239.5C 2251,3239.83 1647.67,3239.5 1044.5,3238.5C 1396.76,2786.39 1749.26,2334.39 2102,1882.5C 2141.22,1830.61 2178.89,1777.61 2215,1723.5C 2239.65,1686.2 2260.65,1646.87 2278,1605.5C 2295.62,1556.7 2302.28,1506.36 2298,1454.5C 2295.55,1414.06 2286.22,1375.39 2270,1338.5C 2237.5,1274.01 2186.33,1232.18 2116.5,1213C 2064.53,1199.91 2012.2,1198.24 1959.5,1208C 1870.11,1228.4 1807.94,1280.9 1773,1365.5C 1757.4,1411.34 1752.56,1458.34 1758.5,1506.5C 1758.5,1508.83 1758.5,1511.17 1758.5,1513.5C 1588.29,1514.16 1418.29,1513.5 1248.5,1511.5C 1248.48,1503.3 1247.82,1495.3 1246.5,1487.5C 1238.1,1266.2 1316.43,1082.36 1481.5,936C 1599.26,836.966 1734.26,773.633 1886.5,746C 1918.3,740.524 1950.3,736.691 1982.5,734.5C 2012.81,732.917 2043.14,732.25 2073.5,732.5 Z"/></g>
<g><path style="opacity:1" fill="#a5bfff" d="M 2806.5,1369.5 C 2808.07,1377.95 2808.74,1386.62 2808.5,1395.5C 2806.93,1387.05 2806.26,1378.38 2806.5,1369.5 Z"/></g>
<g><path style="opacity:1" fill="#94b2ff" d="M 1246.5,1487.5 C 1247.82,1495.3 1248.48,1503.3 1248.5,1511.5C 1248.5,1512.5 1248.5,1513.5 1248.5,1514.5C 1246.9,1505.72 1246.24,1496.72 1246.5,1487.5 Z"/></g>
<g><path style="opacity:1" fill="#ebf1ff" d="M 1248.5,1511.5 C 1418.29,1513.5 1588.29,1514.16 1758.5,1513.5C 1588.67,1514.5 1418.67,1514.83 1248.5,1514.5C 1248.5,1513.5 1248.5,1512.5 1248.5,1511.5 Z"/></g>
<g><path style="opacity:1" fill="#2e71ff" d="M 1758.5,1506.5 C 1759.48,1509.29 1759.81,1512.29 1759.5,1515.5C 1589,1515.83 1418.67,1515.5 1248.5,1514.5C 1418.67,1514.83 1588.67,1514.5 1758.5,1513.5C 1758.5,1511.17 1758.5,1508.83 1758.5,1506.5 Z"/></g>
<g><path style="opacity:1" fill="#9cbaff" d="M 1999.5,2773.5 C 2284.67,2774.5 2570,2774.83 2855.5,2774.5C 2855.83,2930 2855.5,3085.33 2854.5,3240.5C 2854.5,3240.17 2854.5,3239.83 2854.5,3239.5C 2854.5,3084.83 2854.5,2930.17 2854.5,2775.5C 2569.17,2775.83 2283.83,2775.5 1998.5,2774.5C 1998.62,2773.89 1998.96,2773.56 1999.5,2773.5 Z"/></g>
<g><path style="opacity:1" fill="#b6cdff" d="M 1044.5,3238.5 C 1647.67,3239.5 2251,3239.83 2854.5,3239.5C 2854.5,3239.83 2854.5,3240.17 2854.5,3240.5C 2250.5,3240.67 1646.5,3240.5 1042.5,3240C 1043.04,3239.28 1043.71,3238.78 1044.5,3238.5 Z"/></g>
</svg>
