<?xml version="1.0" encoding="UTF-8"?>
<!DOCTYPE svg PUBLIC "-//W3C//DTD SVG 1.1//EN" "http://www.w3.org/Graphics/SVG/1.1/DTD/svg11.dtd">
<svg xmlns="http://www.w3.org/2000/svg" version="1.1" width="4088px" height="4088px" style="shape-rendering:geometricPrecision; text-rendering:geometricPrecision; image-rendering:optimizeQuality; fill-rule:evenodd; clip-rule:evenodd" xmlns:xlink="http://www.w3.org/1999/xlink">
<g><path style="opacity:1" fill="#2068fe" d="M 1962.5,-0.5 C 2016.5,-0.5 2070.5,-0.5 2124.5,-0.5C 2507.72,17.3034 2858.72,131.137 3177.5,341C 3525.79,576.611 3779.95,888.777 3940,1277.5C 4028.2,1497.37 4077.37,1725.7 4087.5,1962.5C 4087.5,2016.5 4087.5,2070.5 4087.5,2124.5C 4065.95,2564.79 3921.45,2958.13 3654,3304.5C 3417.15,3603.87 3120.31,3821.7 2763.5,3958C 2557.04,4035.14 2343.71,4078.31 2123.5,4087.5C 2069.83,4087.5 2016.17,4087.5 1962.5,4087.5C 1541.5,4067.25 1162.17,3933.42 824.5,3686C 489.204,3433.65 251.371,3109.49 111,2713.5C 45.7448,2522.43 8.57815,2326.1 -0.5,2124.5C -0.5,2070.5 -0.5,2016.5 -0.5,1962.5C 17.3249,1579.22 131.158,1228.22 341,909.5C 576.634,561.187 888.8,307.02 1277.5,147C 1497.36,58.8007 1725.7,9.63404 1962.5,-0.5 Z"/></g>
<g><path style="opacity:1" fill="#3777ff" d="M 1198.5,767.5 C 1756,766.5 2313.67,766.167 2871.5,766.5C 2871.74,767.791 2871.4,768.791 2870.5,769.5C 2313.5,767.5 1756.17,766.834 1198.5,767.5 Z"/></g>
<g><path style="opacity:1" fill="#b4ccff" d="M 1198.5,767.5 C 1756.17,766.834 2313.5,767.5 2870.5,769.5C 2870.17,769.5 2869.83,769.5 2869.5,769.5C 2313,768.5 1756.33,768.167 1199.5,768.5C 1199.5,923.167 1199.5,1077.83 1199.5,1232.5C 1458.83,1232.17 1718.17,1232.5 1977.5,1233.5C 1977.38,1234.11 1977.04,1234.44 1976.5,1234.5C 1717.33,1233.5 1458,1233.17 1198.5,1233.5C 1198.5,1078.17 1198.5,922.833 1198.5,767.5 Z"/></g>
<g><path style="opacity:1" fill="#fefeff" d="M 2869.5,769.5 C 2606.39,1099.55 2343.39,1429.71 2080.5,1760C 2184.23,1759.13 2285.56,1773.8 2384.5,1804C 2497.46,1840.04 2594.96,1900.54 2677,1985.5C 2763.88,2081.99 2817.88,2194.66 2839,2323.5C 2843.04,2346 2845.88,2368.67 2847.5,2391.5C 2847.26,2400.38 2847.93,2409.05 2849.5,2417.5C 2850.82,2448.83 2850.82,2480.17 2849.5,2511.5C 2848.49,2518.99 2847.82,2526.66 2847.5,2534.5C 2826.61,2753.14 2733.27,2933.64 2567.5,3076C 2443.66,3177.73 2301.99,3240.06 2142.5,3263C 2082.73,3271.18 2022.73,3273.68 1962.5,3270.5C 1953.04,3269.05 1943.37,3268.39 1933.5,3268.5C 1928.82,3268.33 1924.15,3268 1919.5,3267.5C 1909.4,3265.45 1899.07,3264.11 1888.5,3263.5C 1730.2,3242.38 1588.53,3182.88 1463.5,3085C 1362.43,3003.62 1287.93,2902.79 1240,2782.5C 1215.69,2717.05 1202.19,2649.38 1199.5,2579.5C 1199.5,2571.5 1199.5,2563.5 1199.5,2555.5C 1207.35,2555.83 1215.02,2555.49 1222.5,2554.5C 1343.16,2552.48 1463.83,2550.81 1584.5,2549.5C 1616.01,2549.63 1647.34,2548.96 1678.5,2547.5C 1693.17,2547.5 1707.83,2547.5 1722.5,2547.5C 1722.82,2591.48 1736.32,2630.81 1763,2665.5C 1797.51,2708.18 1840.67,2738.68 1892.5,2757C 1916.53,2765.51 1941.2,2771.34 1966.5,2774.5C 1971.27,2775.89 1976.27,2776.56 1981.5,2776.5C 2033.18,2780.72 2083.51,2774.55 2132.5,2758C 2227.73,2720.76 2289.57,2652.93 2318,2554.5C 2337.26,2481.42 2335.92,2408.75 2314,2336.5C 2278.04,2238.55 2209.54,2176.05 2108.5,2149C 2091.99,2145.62 2075.33,2142.95 2058.5,2141C 1800.85,2139.68 1543.18,2139.01 1285.5,2139C 1515.7,1837.32 1746.03,1535.82 1976.5,1234.5C 1977.04,1234.44 1977.38,1234.11 1977.5,1233.5C 1718.17,1232.5 1458.83,1232.17 1199.5,1232.5C 1199.5,1077.83 1199.5,923.167 1199.5,768.5C 1756.33,768.167 2313,768.5 2869.5,769.5 Z"/></g>
<g><path style="opacity:1" fill="#9bb7ff" d="M 2847.5,2391.5 C 2848.64,2399.98 2849.31,2408.65 2849.5,2417.5C 2847.93,2409.05 2847.26,2400.38 2847.5,2391.5 Z"/></g>
<g><path style="opacity:1" fill="#7ca2ff" d="M 2849.5,2511.5 C 2849.92,2519.41 2849.25,2527.08 2847.5,2534.5C 2847.82,2526.66 2848.49,2518.99 2849.5,2511.5 Z"/></g>
<g><path style="opacity:1" fill="#b6cbff" d="M 1678.5,2547.5 C 1647.34,2548.96 1616.01,2549.63 1584.5,2549.5C 1615.66,2548.12 1646.99,2547.45 1678.5,2547.5 Z"/></g>
<g><path style="opacity:1" fill="#86acff" d="M 1222.5,2554.5 C 1215.02,2555.49 1207.35,2555.83 1199.5,2555.5C 1199.5,2563.5 1199.5,2571.5 1199.5,2579.5C 1198.51,2571.35 1198.17,2563.02 1198.5,2554.5C 1206.5,2554.5 1214.5,2554.5 1222.5,2554.5 Z"/></g>
<g><path style="opacity:1" fill="#8aadff" d="M 1966.5,2774.5 C 1971.73,2774.44 1976.73,2775.11 1981.5,2776.5C 1976.27,2776.56 1971.27,2775.89 1966.5,2774.5 Z"/></g>
<g><path style="opacity:1" fill="#7598ff" d="M 1888.5,3263.5 C 1899.07,3264.11 1909.4,3265.45 1919.5,3267.5C 1908.94,3266.91 1898.61,3265.58 1888.5,3263.5 Z"/></g>
<g><path style="opacity:1" fill="#aec5ff" d="M 1933.5,3268.5 C 1943.37,3268.39 1953.04,3269.05 1962.5,3270.5C 1952.63,3270.61 1942.96,3269.95 1933.5,3268.5 Z"/></g>
</svg>
