<?xml version="1.0" encoding="UTF-8"?>
<!DOCTYPE svg PUBLIC "-//W3C//DTD SVG 1.1//EN" "http://www.w3.org/Graphics/SVG/1.1/DTD/svg11.dtd">
<svg xmlns="http://www.w3.org/2000/svg" version="1.1" width="4088px" height="4088px" style="shape-rendering:geometricPrecision; text-rendering:geometricPrecision; image-rendering:optimizeQuality; fill-rule:evenodd; clip-rule:evenodd" xmlns:xlink="http://www.w3.org/1999/xlink">
<g><path style="opacity:1" fill="#2068fe" d="M 1962.5,-0.5 C 2016.5,-0.5 2070.5,-0.5 2124.5,-0.5C 2541.71,19.6034 2918.37,151.437 3254.5,395C 3593.94,647.965 3834.44,974.131 3976,1373.5C 4041.25,1564.53 4078.42,1760.87 4087.5,1962.5C 4087.5,2016.5 4087.5,2070.5 4087.5,2124.5C 4069.66,2507.82 3955.83,2858.82 3746,3177.5C 3510.41,3525.76 3198.25,3779.92 2809.5,3940C 2589.63,4028.2 2361.3,4077.37 2124.5,4087.5C 2070.5,4087.5 2016.5,4087.5 1962.5,4087.5C 1543.47,4067.2 1165.47,3934.37 828.5,3689C 491.195,3436.31 252.028,3111.15 111,2713.5C 45.7445,2522.43 8.57783,2326.1 -0.5,2124.5C -0.5,2070.5 -0.5,2016.5 -0.5,1962.5C 17.3249,1579.22 131.158,1228.22 341,909.5C 576.626,561.196 888.793,307.029 1277.5,147C 1497.37,58.8003 1725.7,9.6336 1962.5,-0.5 Z"/></g>
<g><path style="opacity:1" fill="#fefeff" d="M 1948.5,728.5 C 2170.83,728.5 2393.17,728.5 2615.5,728.5C 2615.5,1222.5 2615.5,1716.5 2615.5,2210.5C 2682.33,2211.5 2749.33,2211.83 2816.5,2211.5C 2816.5,2367.5 2816.5,2523.5 2816.5,2679.5C 2749.33,2679.17 2682.33,2679.5 2615.5,2680.5C 2615.5,2853.5 2615.5,3026.5 2615.5,3199.5C 2439.83,3199.5 2264.17,3199.5 2088.5,3199.5C 2088.5,3026.5 2088.5,2853.5 2088.5,2680.5C 1699,2680.17 1309.67,2679.17 920.5,2677.5C 1262.98,2027.54 1605.64,1377.87 1948.5,728.5 Z"/></g>
<g><path style="opacity:1" fill="#6d9aff" d="M 1948.5,728.5 C 2171,727.5 2393.67,727.167 2616.5,727.5C 2616.5,1221.83 2616.5,1716.17 2616.5,2210.5C 2616.17,2210.5 2615.83,2210.5 2615.5,2210.5C 2615.5,1716.5 2615.5,1222.5 2615.5,728.5C 2393.17,728.5 2170.83,728.5 1948.5,728.5 Z"/></g>
<g><path style="opacity:1" fill="#3074ff" d="M 2088.5,2210.5 C 1919.67,2210.83 1751,2210.5 1582.5,2209.5C 1582.5,2208.83 1582.83,2208.5 1583.5,2208.5C 1751.33,2209.5 1919.33,2209.83 2087.5,2209.5C 2087.83,1877.67 2087.5,1546 2086.5,1214.5C 2086.71,1213.08 2087.21,1211.74 2088,1210.5C 2088.5,1543.83 2088.67,1877.17 2088.5,2210.5 Z"/></g>
<g><path style="opacity:1" fill="#2068ff" d="M 2086.5,1214.5 C 2087.5,1546 2087.83,1877.67 2087.5,2209.5C 1919.33,2209.83 1751.33,2209.5 1583.5,2208.5C 1750.64,1876.89 1918.31,1545.56 2086.5,1214.5 Z"/></g>
<g><path style="opacity:1" fill="#bed3ff" d="M 1582.5,2209.5 C 1751,2210.5 1919.67,2210.83 2088.5,2210.5C 1919.67,2211.83 1750.67,2211.83 1581.5,2210.5C 1581.62,2209.89 1581.96,2209.56 1582.5,2209.5 Z"/></g>
<g><path style="opacity:1" fill="#ceddff" d="M 2615.5,2210.5 C 2615.83,2210.5 2616.17,2210.5 2616.5,2210.5C 2683.5,2210.5 2750.5,2210.5 2817.5,2210.5C 2817.5,2367.17 2817.5,2523.83 2817.5,2680.5C 2750.17,2680.5 2682.83,2680.5 2615.5,2680.5C 2682.33,2679.5 2749.33,2679.17 2816.5,2679.5C 2816.5,2523.5 2816.5,2367.5 2816.5,2211.5C 2749.33,2211.83 2682.33,2211.5 2615.5,2210.5 Z"/></g>
<g><path style="opacity:1" fill="#bfd3ff" d="M 920.5,2677.5 C 1309.67,2679.17 1699,2680.17 2088.5,2680.5C 1698.83,2680.5 1309.17,2680.5 919.5,2680.5C 919.263,2679.21 919.596,2678.21 920.5,2677.5 Z"/></g>
</svg>
